SplineFontDB: 3.0
FontName: Exo-ExtraBold
FullName: Exo ExtraBold
FamilyName: Exo
Weight: Heavy
Copyright: Copyright (c) 2011 Natanael Gama (exo@ndiscovered.com), with Reserved Font Name "Exo"
Version: 1.00
ItalicAngle: 0
UnderlinePosition: -50
UnderlineWidth: 50
Ascent: 800
Descent: 200
sfntRevision: 0x00010000
LayerCount: 2
Layer: 0 1 "Back"  1
Layer: 1 1 "Fore"  0
XUID: [1021 379 1619458239 11881626]
FSType: 0
OS2Version: 4
OS2_WeightWidthSlopeOnly: 0
OS2_UseTypoMetrics: 1
CreationTime: 1317847693
ModificationTime: 1328305023
PfmFamily: 17
TTFWeight: 800
TTFWidth: 5
LineGap: 0
VLineGap: 0
Panose: 2 0 8 3 0 0 0 0 0 0
OS2TypoAscent: 202
OS2TypoAOffset: 1
OS2TypoDescent: -127
OS2TypoDOffset: 1
OS2TypoLinegap: 0
OS2WinAscent: 0
OS2WinAOffset: 1
OS2WinDescent: 28
OS2WinDOffset: 1
HheadAscent: 0
HheadAOffset: 1
HheadDescent: -28
HheadDOffset: 1
OS2SubXSize: 650
OS2SubYSize: 700
OS2SubXOff: 0
OS2SubYOff: 140
OS2SupXSize: 650
OS2SupYSize: 700
OS2SupXOff: 0
OS2SupYOff: 480
OS2StrikeYSize: 49
OS2StrikeYPos: 258
OS2Vendor: 'PfEd'
OS2CodePages: 20000093.00000000
OS2UnicodeRanges: a00000ef.4000204b.00000000.00000000
Lookup: 4 0 0 "'ordn' Ordinals lookup 0"  {"'ordn' Ordinals lookup 0 subtable"  } ['ordn' ('DFLT' <'dflt' > 'grek' <'dflt' > 'latn' <'dflt' > ) ]
Lookup: 1 0 0 "'smcp' Lowercase to Small Capitals lookup 1"  {"'smcp' Lowercase to Small Capitals lookup 1 subtable"  } ['smcp' ('DFLT' <'dflt' > 'grek' <'dflt' > 'latn' <'FRA ' 'dflt' > ) ]
Lookup: 1 0 0 "'c2sc' Capitals to Small Capitals in Latin lookup 2"  {"'c2sc' Capitals to Small Capitals in Latin lookup 2 subtable"  } ['c2sc' ('latn' <'dflt' > ) ]
Lookup: 4 0 0 "'dlig' Discretionary Ligatures lookup 3"  {"'dlig' Discretionary Ligatures lookup 3 subtable"  } ['dlig' ('DFLT' <'dflt' > 'grek' <'dflt' > 'latn' <'dflt' > ) ]
Lookup: 4 0 1 "'liga' Standard Ligatures lookup 4"  {"'liga' Standard Ligatures lookup 4 subtable"  } ['liga' ('DFLT' <'dflt' > 'grek' <'dflt' > 'latn' <'FRA ' 'dflt' > ) ]

StartChar: .notdef
Encoding: 0 -1 0
AltUni2: 000000.ffffffff.0
Width: 692
Flags: W
LayerCount: 2
Fore
SplineSet
611 506 m 1,0,-1
 359 266 l 1,1,-1
 611 25 l 1,2,-1
 611 506 l 1,0,-1
94 13 m 1,3,-1
 601 13 l 1,4,-1
 348 256 l 1,5,-1
 94 13 l 1,3,-1
81 22 m 1,6,-1
 337 266 l 1,7,-1
 81 507 l 1,8,-1
 81 22 l 1,6,-1
602 518 m 1,9,-1
 91 518 l 1,10,-1
 348 276 l 1,11,-1
 602 518 l 1,9,-1
67 0 m 1,12,-1
 67 531 l 1,13,-1
 625 531 l 1,14,-1
 625 0 l 1,15,-1
 67 0 l 1,12,-1
EndSplineSet
EndChar

StartChar: exclam
Encoding: 33 33 4
Width: 275
GlyphClass: 2
Flags: W
LayerCount: 2
Fore
SplineSet
61 23 m 2,0,-1
 61 125 l 2,1,2
 61 150 61 150 85 150 c 2,3,-1
 185 150 l 2,4,5
 208 150 208 150 208 125 c 2,6,-1
 208 23 l 2,7,8
 208 0 208 0 185 0 c 2,9,-1
 85 0 l 2,10,11
 61 0 61 0 61 23 c 2,0,-1
56 731 m 1,12,-1
 217 731 l 1,13,-1
 199 196 l 1,14,-1
 71 196 l 1,15,-1
 56 731 l 1,12,-1
EndSplineSet
Substitution2: "'smcp' Lowercase to Small Capitals lookup 1 subtable" exclam.smcp
EndChar

StartChar: quotedbl
Encoding: 34 34 5
Width: 467
GlyphClass: 2
Flags: W
LayerCount: 2
Fore
SplineSet
57 732 m 1,0,-1
 214 732 l 1,1,-1
 214 665 l 1,2,-1
 204 531 l 1,3,-1
 69 531 l 1,4,-1
 57 665 l 1,5,-1
 57 732 l 1,0,-1
254 732 m 1,6,-1
 411 732 l 1,7,-1
 411 665 l 1,8,-1
 401 531 l 1,9,-1
 265 531 l 1,10,-1
 254 665 l 1,11,-1
 254 732 l 1,6,-1
EndSplineSet
Substitution2: "'smcp' Lowercase to Small Capitals lookup 1 subtable" quotedbl.smcp
EndChar

StartChar: numbersign
Encoding: 35 35 6
Width: 733
GlyphClass: 2
Flags: W
LayerCount: 2
Fore
SplineSet
13 202 m 1,0,-1
 30 314 l 1,1,-1
 180 314 l 1,2,-1
 199 419 l 1,3,-1
 47 419 l 1,4,-1
 65 531 l 1,5,-1
 220 531 l 1,6,-1
 257 732 l 1,7,-1
 369 732 l 1,8,-1
 332 531 l 1,9,-1
 440 531 l 1,10,-1
 476 732 l 1,11,-1
 588 732 l 1,12,-1
 552 531 l 1,13,-1
 721 531 l 1,14,-1
 705 419 l 1,15,-1
 534 419 l 1,16,-1
 516 313 l 1,17,-1
 686 313 l 1,18,-1
 671 201 l 1,19,-1
 492 201 l 1,20,-1
 454 0 l 1,21,-1
 342 0 l 1,22,-1
 380 201 l 1,23,-1
 271 202 l 1,24,-1
 234 0 l 1,25,-1
 122 0 l 1,26,-1
 159 202 l 1,27,-1
 13 202 l 1,0,-1
292 314 m 1,28,-1
 404 313 l 1,29,-1
 422 419 l 1,30,-1
 311 419 l 1,31,-1
 292 314 l 1,28,-1
EndSplineSet
Substitution2: "'smcp' Lowercase to Small Capitals lookup 1 subtable" numbersign.smcp
EndChar

StartChar: dollar
Encoding: 36 36 7
Width: 568
GlyphClass: 2
Flags: W
LayerCount: 2
Fore
SplineSet
37 483 m 2,0,-1
 37 545 l 1,1,2
 38 732 38 732 236 738 c 1,3,-1
 236 824 l 1,4,-1
 331 824 l 1,5,-1
 331 737 l 1,6,7
 422 733 422 733 505 707 c 1,8,-1
 505 580 l 1,9,10
 392 589 392 589 326.5 589 c 128,-1,11
 261 589 261 589 248 587.5 c 128,-1,12
 235 586 235 586 223 581 c 0,13,14
 201 570 201 570 201 530 c 2,15,-1
 201 505 l 2,16,17
 201 472 201 472 217 458.5 c 128,-1,18
 233 445 233 445 272 445 c 2,19,-1
 352 445 l 2,20,21
 470 445 470 445 511 348 c 1,22,23
 532 301 532 301 532 243 c 2,24,-1
 532 201 l 2,25,26
 532 -8 532 -8 331 -8 c 1,27,-1
 331 -90 l 1,28,-1
 236 -90 l 1,29,-1
 236 -7 l 1,30,31
 178 -5 178 -5 145.5 1 c 128,-1,32
 113 7 113 7 60 24 c 1,33,-1
 60 151 l 1,34,35
 190 141 190 141 292 141 c 0,36,37
 328 141 328 141 348 152.5 c 128,-1,38
 368 164 368 164 368 194 c 2,39,-1
 368 223 l 2,40,41
 368 261 368 261 345 274 c 0,42,43
 331 281 331 281 308 281 c 2,44,-1
 230 281 l 2,45,46
 179 281 179 281 141.5 297 c 128,-1,47
 104 313 104 313 84.5 335.5 c 128,-1,48
 65 358 65 358 54 388 c 0,49,50
 37 433 37 433 37 483 c 2,0,-1
EndSplineSet
Substitution2: "'smcp' Lowercase to Small Capitals lookup 1 subtable" dollar.smcp
EndChar

StartChar: percent
Encoding: 37 37 8
Width: 964
GlyphClass: 2
Flags: W
LayerCount: 2
Fore
SplineSet
28 482 m 2,0,-1
 28 600 l 2,1,2
 28 666 28 666 60 699 c 128,-1,3
 92 732 92 732 165 732 c 2,4,-1
 266 732 l 2,5,6
 337 732 337 732 368.5 699 c 128,-1,7
 400 666 400 666 400 600 c 2,8,-1
 400 482 l 2,9,10
 400 415 400 415 368.5 382 c 128,-1,11
 337 349 337 349 264 349 c 2,12,-1
 163 349 l 2,13,14
 69 349 69 349 42 409 c 0,15,16
 28 438 28 438 28 482 c 2,0,-1
138 504 m 2,17,18
 138 474 138 474 151 466.5 c 128,-1,19
 164 459 164 459 182 459 c 2,20,-1
 245 459 l 2,21,22
 273 459 273 459 281.5 469.5 c 128,-1,23
 290 480 290 480 290 504 c 2,24,-1
 290 577 l 2,25,26
 290 604 290 604 280.5 613 c 128,-1,27
 271 622 271 622 247 622 c 2,28,-1
 184 622 l 2,29,30
 159 622 159 622 148.5 612.5 c 128,-1,31
 138 603 138 603 138 577 c 2,32,-1
 138 504 l 2,17,18
201 0 m 1,33,-1
 651 732 l 1,34,-1
 762 732 l 1,35,-1
 317 0 l 1,36,-1
 201 0 l 1,33,-1
565 135 m 2,37,-1
 565 253 l 2,38,39
 565 320 565 320 596.5 353 c 128,-1,40
 628 386 628 386 701 386 c 2,41,-1
 802 386 l 2,42,43
 874 386 874 386 905.5 352.5 c 128,-1,44
 937 319 937 319 937 253 c 2,45,-1
 937 135 l 2,46,47
 937 69 937 69 905.5 36 c 128,-1,48
 874 3 874 3 800 3 c 2,49,-1
 699 3 l 2,50,51
 627 3 627 3 596 36 c 128,-1,52
 565 69 565 69 565 135 c 2,37,-1
675 158 m 2,53,54
 675 134 675 134 684 123.5 c 128,-1,55
 693 113 693 113 718 113 c 2,56,-1
 781 113 l 2,57,58
 809 113 809 113 818 123.5 c 128,-1,59
 827 134 827 134 827 158 c 2,60,-1
 827 231 l 2,61,62
 827 257 827 257 817 266.5 c 128,-1,63
 807 276 807 276 783 276 c 2,64,-1
 720 276 l 2,65,66
 696 276 696 276 685.5 266.5 c 128,-1,67
 675 257 675 257 675 231 c 2,68,-1
 675 158 l 2,53,54
EndSplineSet
Substitution2: "'smcp' Lowercase to Small Capitals lookup 1 subtable" percent.smcp
EndChar

StartChar: ampersand
Encoding: 38 38 9
Width: 695
GlyphClass: 2
Flags: W
LayerCount: 2
Fore
SplineSet
338 590 m 2,0,1
 279 590 279 590 279 561 c 0,2,3
 279 539 279 539 309 500 c 1,4,-1
 453 301 l 1,5,-1
 578 413 l 1,6,-1
 636 341 l 1,7,-1
 573 234 l 1,8,-1
 536 190 l 1,9,-1
 680 0 l 1,10,-1
 488 0 l 1,11,-1
 421 91 l 1,12,-1
 358 36 l 2,13,14
 312 -5 312 -5 228 -5 c 0,15,16
 177 -5 177 -5 132.5 18.5 c 128,-1,17
 88 42 88 42 57 86 c 1,18,19
 23 137 23 137 23 191 c 0,20,21
 23 295 23 295 108 370 c 2,22,-1
 172 426 l 1,23,-1
 124 496 l 1,24,25
 92 540 92 540 92 581.5 c 128,-1,26
 92 623 92 623 106.5 651.5 c 128,-1,27
 121 680 121 680 148.5 702.5 c 128,-1,28
 176 725 176 725 213 731 c 0,29,30
 257 738 257 738 310 738 c 128,-1,31
 363 738 363 738 488 710 c 1,32,-1
 488 590 l 1,33,-1
 338 590 l 2,0,1
209 274 m 2,34,35
 178 246 178 246 178 221.5 c 128,-1,36
 178 197 178 197 198.5 171.5 c 128,-1,37
 219 146 219 146 242 146 c 0,38,39
 272 146 272 146 292 166 c 2,40,-1
 332 205 l 1,41,-1
 251 312 l 1,42,-1
 209 274 l 2,34,35
EndSplineSet
AlternateSubs2: "'salt' Stylistic Alternatives in Latin lookup 16 subtable" ampersand.salt
Substitution2: "'smcp' Lowercase to Small Capitals lookup 1 subtable" ampersand.smcp
EndChar

StartChar: quotesingle
Encoding: 39 39 10
Width: 238
GlyphClass: 2
Flags: W
LayerCount: 2
Fore
SplineSet
37 732 m 1,0,-1
 202 732 l 1,1,-1
 202 665 l 1,2,-1
 192 531 l 1,3,-1
 48 531 l 1,4,-1
 37 665 l 1,5,-1
 37 732 l 1,0,-1
EndSplineSet
Substitution2: "'smcp' Lowercase to Small Capitals lookup 1 subtable" quotesingle.smcp
EndChar

StartChar: parenleft
Encoding: 40 40 11
Width: 393
GlyphClass: 2
Flags: W
LayerCount: 2
Fore
SplineSet
69.5 126 m 128,-1,1
 50 221 50 221 50 321.5 c 128,-1,2
 50 422 50 422 69 512.5 c 128,-1,3
 88 603 88 603 114 663 c 0,4,5
 169 787 169 787 213 838 c 2,6,-1
 232 860 l 1,7,-1
 380 860 l 1,8,9
 327 781 327 781 280 656 c 1,10,11
 214 485 214 485 214 326 c 0,12,13
 214 159 214 159 280 -16 c 0,14,15
 304 -82 304 -82 333 -133 c 128,-1,16
 362 -184 362 -184 371 -197 c 2,17,-1
 380 -210 l 1,18,-1
 232 -210 l 1,19,20
 207 -188 207 -188 172 -135 c 128,-1,21
 137 -82 137 -82 113 -25.5 c 128,-1,0
 89 31 89 31 69.5 126 c 128,-1,1
EndSplineSet
Substitution2: "'case' Case-Sensitive Forms lookup 18 subtable" parenleft.alt
Substitution2: "'c2sc' Capitals to Small Capitals in Latin lookup 2 subtable" parenleft.smcp
Substitution2: "'smcp' Lowercase to Small Capitals lookup 1 subtable" parenleft.smcp
EndChar

StartChar: parenright
Encoding: 41 41 12
Width: 393
GlyphClass: 2
Flags: W
LayerCount: 2
Fore
SplineSet
161 150.5 m 128,-1,1
 179 239 179 239 179 322.5 c 128,-1,2
 179 406 179 406 162 490.5 c 128,-1,3
 145 575 145 575 121 638 c 0,4,5
 70 769 70 769 30 833 c 2,6,-1
 13 860 l 1,7,-1
 162 860 l 1,8,9
 187 833 187 833 221.5 776 c 128,-1,10
 256 719 256 719 280 662 c 128,-1,11
 304 605 304 605 323.5 513.5 c 128,-1,12
 343 422 343 422 343 335.5 c 128,-1,13
 343 249 343 249 333 178 c 128,-1,14
 323 107 323 107 307 54.5 c 128,-1,15
 291 2 291 2 272 -43 c 128,-1,16
 253 -88 253 -88 233 -118 c 0,17,18
 193 -180 193 -180 172 -200 c 2,19,-1
 162 -210 l 1,20,-1
 13 -210 l 1,21,22
 36 -179 36 -179 68 -117.5 c 128,-1,23
 100 -56 100 -56 121.5 3 c 128,-1,0
 143 62 143 62 161 150.5 c 128,-1,1
EndSplineSet
Substitution2: "'case' Case-Sensitive Forms lookup 18 subtable" parenright.alt
Substitution2: "'c2sc' Capitals to Small Capitals in Latin lookup 2 subtable" parenright.smcp
Substitution2: "'smcp' Lowercase to Small Capitals lookup 1 subtable" parenright.smcp
EndChar

StartChar: asterisk
Encoding: 42 42 13
Width: 423
GlyphClass: 2
Flags: W
LayerCount: 2
Fore
SplineSet
34 566 m 1,0,-1
 34 628 l 1,1,-1
 172 650 l 1,2,-1
 178 561 l 1,3,-1
 34 566 l 1,0,-1
86 417 m 1,4,-1
 111 554 l 1,5,-1
 198 532 l 1,6,-1
 146 398 l 1,7,-1
 86 417 l 1,4,-1
162 721 m 1,8,-1
 222 741 l 1,9,-1
 286 617 l 1,10,-1
 203 584 l 1,11,-1
 162 721 l 1,8,-1
184 463 m 1,12,-1
 232 538 l 1,13,-1
 346 448 l 1,14,-1
 309 398 l 1,15,-1
 184 463 l 1,12,-1
235 571 m 1,16,-1
 354 651 l 1,17,-1
 390 599 l 1,18,-1
 292 502 l 1,19,-1
 235 571 l 1,16,-1
EndSplineSet
Substitution2: "'smcp' Lowercase to Small Capitals lookup 1 subtable" asterisk.smcp
EndChar

StartChar: plus
Encoding: 43 43 14
Width: 471
GlyphClass: 2
Flags: W
LayerCount: 2
Fore
SplineSet
28 289 m 1,0,-1
 28 423 l 1,1,-1
 168 423 l 1,2,-1
 168 564 l 1,3,-1
 302 564 l 1,4,-1
 302 423 l 1,5,-1
 444 423 l 1,6,-1
 444 289 l 1,7,-1
 302 289 l 1,8,-1
 302 148 l 1,9,-1
 168 148 l 1,10,-1
 168 289 l 1,11,-1
 28 289 l 1,0,-1
EndSplineSet
EndChar

StartChar: comma
Encoding: 44 44 15
Width: 258
GlyphClass: 2
Flags: W
LayerCount: 2
Fore
SplineSet
57 25 m 2,0,-1
 57 124 l 2,1,2
 57 151 57 151 82 151 c 2,3,-1
 178 151 l 2,4,5
 202 151 202 151 202 124 c 2,6,-1
 202 -11 l 2,7,8
 202 -44 202 -44 187.5 -64 c 128,-1,9
 173 -84 173 -84 153 -89 c 0,10,11
 130 -94 130 -94 109.5 -94 c 128,-1,12
 89 -94 89 -94 77 -91 c 2,13,-1
 62 -88 l 1,14,-1
 62 -34 l 1,15,16
 76 -34 76 -34 83.5 -30 c 128,-1,17
 91 -26 91 -26 92 -21.5 c 128,-1,18
 93 -17 93 -17 93 -10 c 2,19,-1
 93 0 l 1,20,-1
 82 0 l 2,21,22
 71 0 71 0 64 6.5 c 128,-1,23
 57 13 57 13 57 25 c 2,0,-1
EndSplineSet
EndChar

StartChar: hyphen
Encoding: 45 45 16
Width: 354
GlyphClass: 2
Flags: W
LayerCount: 2
Fore
SplineSet
20 223 m 1,0,-1
 20 357 l 1,1,-1
 334 357 l 1,2,-1
 334 223 l 1,3,-1
 20 223 l 1,0,-1
EndSplineSet
Substitution2: "'case' Case-Sensitive Forms lookup 18 subtable" hyphen.alt
Substitution2: "'c2sc' Capitals to Small Capitals in Latin lookup 2 subtable" hyphen.smcp
Substitution2: "'smcp' Lowercase to Small Capitals lookup 1 subtable" hyphen.smcp
EndChar

StartChar: period
Encoding: 46 46 17
Width: 260
GlyphClass: 2
Flags: W
LayerCount: 2
Fore
SplineSet
57 23 m 2,0,-1
 57 125 l 2,1,2
 57 150 57 150 81 150 c 2,3,-1
 179 150 l 2,4,5
 204 150 204 150 204 125 c 2,6,-1
 204 23 l 2,7,8
 204 0 204 0 179 0 c 2,9,-1
 81 0 l 2,10,11
 71 0 71 0 64 6.5 c 128,-1,12
 57 13 57 13 57 23 c 2,0,-1
EndSplineSet
EndChar

StartChar: slash
Encoding: 47 47 18
Width: 476
GlyphClass: 2
Flags: W
LayerCount: 2
Fore
SplineSet
13 -72 m 1,0,-1
 294 770 l 1,1,-1
 463 770 l 1,2,-1
 182 -72 l 1,3,-1
 13 -72 l 1,0,-1
EndSplineSet
Substitution2: "'numr' Numerators in Latin lookup 13 subtable" fraction
Substitution2: "'frac' Diagonal Fractions lookup 6 subtable" fraction
EndChar

StartChar: zero
Encoding: 48 48 19
Width: 626
GlyphClass: 2
Flags: W
LayerCount: 2
Fore
SplineSet
47 184 m 2,0,-1
 47 540 l 2,1,2
 47 632 47 632 96.5 682 c 128,-1,3
 146 732 146 732 235 732 c 2,4,-1
 399 732 l 2,5,6
 580 732 580 732 580 548 c 2,7,-1
 580 184 l 2,8,9
 580 96 580 96 532.5 48 c 128,-1,10
 485 0 485 0 398 0 c 2,11,-1
 234 0 l 2,12,13
 144 0 144 0 95.5 47.5 c 128,-1,14
 47 95 47 95 47 184 c 2,0,-1
211 215 m 2,15,16
 211 149 211 149 278 149 c 2,17,-1
 350 149 l 2,18,19
 384 149 384 149 400 162.5 c 128,-1,20
 416 176 416 176 416 214 c 2,21,-1
 416 518 l 2,22,23
 416 583 416 583 356 583 c 2,24,-1
 273 583 l 2,25,26
 211 583 211 583 211 518 c 2,27,-1
 211 215 l 2,15,16
EndSplineSet
Substitution2: "'dnom' Denominators in Latin lookup 19 subtable" zero.denominator
Substitution2: "'sups' Superscript lookup 17 subtable" zerosuperior
Substitution2: "'onum' Oldstyle Figures in Latin lookup 15 subtable" zero.oldstyle
Substitution2: "'tnum' Tabular Numbers in Latin lookup 14 subtable" zero.tnum
Substitution2: "'numr' Numerators in Latin lookup 13 subtable" zero.numerator
Substitution2: "'zero' Slashed Zero lookup 12 subtable" uni0338
Substitution2: "'sinf' Scientific Inferiors lookup 11 subtable" zeroinferior
Substitution2: "'frac' Diagonal Fractions lookup 5 subtable" zero.numerator
Substitution2: "'smcp' Lowercase to Small Capitals lookup 1 subtable" zero.smcp
EndChar

StartChar: one
Encoding: 49 49 20
Width: 374
GlyphClass: 2
Flags: W
LayerCount: 2
Fore
SplineSet
321 732 m 1,0,-1
 321 0 l 1,1,-1
 157 0 l 1,2,-1
 157 573 l 1,3,-1
 26 544 l 1,4,-1
 26 650 l 1,5,-1
 158 732 l 1,6,-1
 321 732 l 1,0,-1
EndSplineSet
Substitution2: "'dnom' Denominators in Latin lookup 19 subtable" one.denominator
Substitution2: "'sups' Superscript lookup 17 subtable" onesuperior
Substitution2: "'onum' Oldstyle Figures in Latin lookup 15 subtable" one.oldstyle
Substitution2: "'tnum' Tabular Numbers in Latin lookup 14 subtable" one.tnum
Substitution2: "'numr' Numerators in Latin lookup 13 subtable" one.numerator
Substitution2: "'sinf' Scientific Inferiors lookup 11 subtable" oneinferior
Substitution2: "'frac' Diagonal Fractions lookup 5 subtable" one.numerator
Substitution2: "'smcp' Lowercase to Small Capitals lookup 1 subtable" one.smcp
EndChar

StartChar: two
Encoding: 50 50 21
Width: 585
GlyphClass: 2
Flags: W
LayerCount: 2
Fore
SplineSet
26 592 m 1,0,-1
 26 714 l 1,1,2
 169 742 169 742 330 742 c 0,3,4
 440 742 440 742 496 677.5 c 128,-1,5
 552 613 552 613 552 510 c 0,6,7
 552 466 552 466 531.5 417.5 c 128,-1,8
 511 369 511 369 485 333 c 128,-1,9
 459 297 459 297 419 255 c 0,10,11
 368 202 368 202 306 149 c 1,12,-1
 552 149 l 1,13,-1
 552 0 l 1,14,-1
 34 0 l 1,15,-1
 34 143 l 1,16,17
 122 202 122 202 243 310 c 0,18,19
 304 364 304 364 346 419 c 128,-1,20
 388 474 388 474 388 514.5 c 128,-1,21
 388 555 388 555 361 573.5 c 128,-1,22
 334 592 334 592 270 592 c 2,23,-1
 26 592 l 1,0,-1
EndSplineSet
Substitution2: "'dnom' Denominators in Latin lookup 19 subtable" two.denominator
Substitution2: "'sups' Superscript lookup 17 subtable" twosuperior
Substitution2: "'onum' Oldstyle Figures in Latin lookup 15 subtable" two.oldstyle
Substitution2: "'tnum' Tabular Numbers in Latin lookup 14 subtable" two.tnum
Substitution2: "'numr' Numerators in Latin lookup 13 subtable" two.numerator
Substitution2: "'sinf' Scientific Inferiors lookup 11 subtable" twoinferior
Substitution2: "'frac' Diagonal Fractions lookup 5 subtable" two.numerator
Substitution2: "'smcp' Lowercase to Small Capitals lookup 1 subtable" two.smcp
EndChar

StartChar: three
Encoding: 51 51 22
Width: 579
GlyphClass: 2
Flags: W
LayerCount: 2
Fore
SplineSet
339 -7 m 2,0,-1
 280 -7 l 2,1,2
 267 -7 267 -7 261 -7 c 128,-1,3
 255 -7 255 -7 227.5 -6.5 c 128,-1,4
 200 -6 200 -6 189.5 -5.5 c 128,-1,5
 179 -5 179 -5 156 -3.5 c 128,-1,6
 133 -2 133 -2 120 0 c 128,-1,7
 107 2 107 2 89 5 c 0,8,9
 58 10 58 10 26 21 c 1,10,-1
 27 143 l 1,11,-1
 265 143 l 2,12,13
 321 143 321 143 338.5 150 c 128,-1,14
 356 157 356 157 361 169 c 128,-1,15
 366 181 366 181 366 202 c 2,16,-1
 366 224 l 2,17,18
 366 269 366 269 331 280 c 0,19,20
 310 287 310 287 271 288 c 2,21,-1
 88 296 l 1,22,-1
 88 428 l 1,23,-1
 271 438 l 2,24,25
 326 441 326 441 347 452.5 c 128,-1,26
 368 464 368 464 368 500 c 2,27,-1
 368 524 l 2,28,29
 368 561 368 561 343 573 c 128,-1,30
 318 585 318 585 271 585 c 2,31,-1
 20 585 l 1,32,-1
 20 706 l 1,33,34
 101 735 101 735 237 735 c 0,35,36
 288 735 288 735 346 734 c 0,37,38
 430 732 430 732 480 684.5 c 128,-1,39
 530 637 530 637 530 554 c 2,40,-1
 530 508 l 2,41,42
 530 393 530 393 451 364 c 1,43,44
 530 334 530 334 530 212 c 2,45,-1
 530 176 l 2,46,47
 530 88 530 88 480.5 40.5 c 128,-1,48
 431 -7 431 -7 339 -7 c 2,0,-1
EndSplineSet
Substitution2: "'dnom' Denominators in Latin lookup 19 subtable" three.denominator
Substitution2: "'sups' Superscript lookup 17 subtable" threesuperior
Substitution2: "'onum' Oldstyle Figures in Latin lookup 15 subtable" three.oldstyle
Substitution2: "'tnum' Tabular Numbers in Latin lookup 14 subtable" three.tnum
Substitution2: "'numr' Numerators in Latin lookup 13 subtable" three.numerator
Substitution2: "'sinf' Scientific Inferiors lookup 11 subtable" threeinferior
Substitution2: "'frac' Diagonal Fractions lookup 5 subtable" three.numerator
Substitution2: "'smcp' Lowercase to Small Capitals lookup 1 subtable" three.smcp
EndChar

StartChar: four
Encoding: 52 52 23
Width: 627
GlyphClass: 2
Flags: W
LayerCount: 2
Fore
SplineSet
382 302 m 1,0,-1
 382 455 l 1,1,-1
 412 532 l 1,2,-1
 546 532 l 1,3,-1
 546 302 l 1,4,-1
 614 302 l 1,5,-1
 614 176 l 1,6,-1
 546 150 l 1,7,-1
 546 2 l 1,8,-1
 382 2 l 1,9,-1
 382 150 l 1,10,-1
 47 150 l 1,11,-1
 13 224 l 1,12,-1
 252 732 l 1,13,-1
 430 732 l 1,14,-1
 238 302 l 1,15,-1
 382 302 l 1,0,-1
EndSplineSet
Substitution2: "'dnom' Denominators in Latin lookup 19 subtable" four.denominator
Substitution2: "'sups' Superscript lookup 17 subtable" foursuperior
Substitution2: "'onum' Oldstyle Figures in Latin lookup 15 subtable" four.oldstyle
Substitution2: "'tnum' Tabular Numbers in Latin lookup 14 subtable" four.tnum
Substitution2: "'numr' Numerators in Latin lookup 13 subtable" four.numerator
Substitution2: "'sinf' Scientific Inferiors lookup 11 subtable" fourinferior
Substitution2: "'frac' Diagonal Fractions lookup 5 subtable" four.numerator
Substitution2: "'smcp' Lowercase to Small Capitals lookup 1 subtable" four.smcp
EndChar

StartChar: five
Encoding: 53 53 24
Width: 594
GlyphClass: 2
Flags: W
LayerCount: 2
Fore
SplineSet
227 446 m 1,0,1
 261 470 261 470 332 470 c 0,2,3
 356 470 356 470 389 468 c 0,4,5
 473 463 473 463 514.5 412.5 c 128,-1,6
 556 362 556 362 556 280 c 2,7,-1
 556 181 l 2,8,9
 556 132 556 132 538.5 94.5 c 128,-1,10
 521 57 521 57 492 37 c 0,11,12
 436 -4 436 -4 363 -4 c 0,13,14
 260 -4 260 -4 202.5 0 c 128,-1,15
 145 4 145 4 51 20 c 1,16,-1
 51 150 l 1,17,-1
 325 150 l 2,18,19
 371 150 371 150 383 172 c 0,20,21
 392 189 392 189 392 213 c 2,22,-1
 392 264 l 2,23,24
 392 293 392 293 380 310 c 128,-1,25
 368 327 368 327 334 327 c 2,26,-1
 262 327 l 2,27,28
 208 327 208 327 208 274 c 1,29,-1
 52 274 l 1,30,-1
 74 732 l 1,31,-1
 527 732 l 1,32,-1
 527 583 l 1,33,-1
 233 583 l 1,34,-1
 227 446 l 1,0,1
EndSplineSet
Substitution2: "'dnom' Denominators in Latin lookup 19 subtable" five.denominator
Substitution2: "'sups' Superscript lookup 17 subtable" fivesuperior
Substitution2: "'onum' Oldstyle Figures in Latin lookup 15 subtable" five.oldstyle
Substitution2: "'tnum' Tabular Numbers in Latin lookup 14 subtable" five.tnum
Substitution2: "'numr' Numerators in Latin lookup 13 subtable" five.numerator
Substitution2: "'sinf' Scientific Inferiors lookup 11 subtable" fiveinferior
Substitution2: "'frac' Diagonal Fractions lookup 5 subtable" five.numerator
Substitution2: "'smcp' Lowercase to Small Capitals lookup 1 subtable" five.smcp
EndChar

StartChar: six
Encoding: 54 54 25
Width: 603
GlyphClass: 2
Flags: W
LayerCount: 2
Fore
SplineSet
44 384 m 0,0,1
 44 714 44 714 216 734 c 0,2,3
 258 739 258 739 304 739 c 0,4,5
 410 739 410 739 540 714 c 1,6,-1
 540 589 l 1,7,-1
 304 589 l 2,8,9
 232 589 232 589 216 518 c 0,10,11
 208 484 208 484 208 430 c 1,12,13
 269 450 269 450 388 450 c 0,14,15
 520 450 520 450 551 363 c 0,16,17
 564 324 564 324 564 272 c 2,18,-1
 564 170 l 2,19,20
 564 -1 564 -1 381 -1 c 2,21,-1
 240 -1 l 2,22,23
 202 -1 202 -1 174 8.5 c 128,-1,24
 146 18 146 18 120.5 44 c 128,-1,25
 95 70 95 70 79 112 c 0,26,27
 44 204 44 204 44 384 c 0,0,1
208 309 m 1,28,29
 208 224 208 224 225.5 186 c 128,-1,30
 243 148 243 148 296 148 c 2,31,-1
 346 148 l 2,32,33
 376 148 376 148 388.5 159 c 128,-1,34
 401 170 401 170 401 203 c 2,35,-1
 401 249 l 2,36,37
 401 284 401 284 390.5 296.5 c 128,-1,38
 380 309 380 309 350 309 c 2,39,-1
 208 309 l 1,28,29
EndSplineSet
Substitution2: "'dnom' Denominators in Latin lookup 19 subtable" six.denominator
Substitution2: "'sups' Superscript lookup 17 subtable" sixsuperior
Substitution2: "'onum' Oldstyle Figures in Latin lookup 15 subtable" six.oldstyle
Substitution2: "'tnum' Tabular Numbers in Latin lookup 14 subtable" six.tnum
Substitution2: "'numr' Numerators in Latin lookup 13 subtable" six.numerator
Substitution2: "'sinf' Scientific Inferiors lookup 11 subtable" sixinferior
Substitution2: "'frac' Diagonal Fractions lookup 5 subtable" six.numerator
Substitution2: "'smcp' Lowercase to Small Capitals lookup 1 subtable" six.smcp
EndChar

StartChar: seven
Encoding: 55 55 26
Width: 557
GlyphClass: 2
Flags: W
LayerCount: 2
Fore
SplineSet
20 583 m 1,0,-1
 20 732 l 1,1,-1
 496 732 l 1,2,-1
 538 662 l 1,3,-1
 300 0 l 1,4,-1
 123 0 l 1,5,-1
 336 583 l 1,6,-1
 20 583 l 1,0,-1
EndSplineSet
Substitution2: "'dnom' Denominators in Latin lookup 19 subtable" seven.denominator
Substitution2: "'sups' Superscript lookup 17 subtable" sevensuperior
Substitution2: "'onum' Oldstyle Figures in Latin lookup 15 subtable" seven.oldstyle
Substitution2: "'tnum' Tabular Numbers in Latin lookup 14 subtable" seven.tnum
Substitution2: "'numr' Numerators in Latin lookup 13 subtable" seven.numerator
Substitution2: "'sinf' Scientific Inferiors lookup 11 subtable" seveninferior
Substitution2: "'frac' Diagonal Fractions lookup 5 subtable" seven.numerator
Substitution2: "'smcp' Lowercase to Small Capitals lookup 1 subtable" seven.smcp
EndChar

StartChar: eight
Encoding: 56 56 27
Width: 621
GlyphClass: 2
Flags: W
LayerCount: 2
Fore
SplineSet
50 173 m 2,0,-1
 50 237 l 2,1,2
 50 281 50 281 70 312.5 c 128,-1,3
 90 344 90 344 127 352 c 1,4,5
 76 375 76 375 62 416 c 0,6,7
 50 450 50 450 50 499 c 2,8,-1
 50 564 l 2,9,10
 50 664 50 664 108 703 c 0,11,12
 159 737 159 737 241 737 c 2,13,-1
 395 737 l 2,14,15
 484 737 484 737 528 696.5 c 128,-1,16
 572 656 572 656 572 563 c 2,17,-1
 572 514 l 2,18,19
 572 486 572 486 562 459 c 0,20,21
 544 405 544 405 497 398 c 1,22,23
 520 394 520 394 536 378 c 128,-1,24
 552 362 552 362 559 339 c 0,25,26
 572 299 572 299 572 259 c 2,27,-1
 572 177 l 2,28,29
 572 53 572 53 494 18 c 0,30,31
 455 0 455 0 394 0 c 2,32,-1
 241 0 l 2,33,34
 79 0 79 0 56 113 c 0,35,36
 50 140 50 140 50 173 c 2,0,-1
214 195 m 2,37,38
 214 166 214 166 228 154 c 128,-1,39
 242 142 242 142 275 142 c 2,40,-1
 350 142 l 2,41,42
 382 142 382 142 395 155 c 128,-1,43
 408 168 408 168 408 195 c 2,44,-1
 408 252 l 2,45,46
 408 307 408 307 352 307 c 2,47,-1
 272 307 l 2,48,49
 231 307 231 307 220 282 c 0,50,51
 214 270 214 270 214 252 c 2,52,-1
 214 195 l 2,37,38
214 494 m 2,53,54
 214 462 214 462 228.5 451 c 128,-1,55
 243 440 243 440 272 440 c 2,56,-1
 351 440 l 2,57,58
 386 440 386 440 397 453 c 128,-1,59
 408 466 408 466 408 494 c 2,60,-1
 408 534 l 2,61,62
 408 571 408 571 393.5 583.5 c 128,-1,63
 379 596 379 596 350 596 c 2,64,-1
 275 596 l 2,65,66
 242 596 242 596 228 584.5 c 128,-1,67
 214 573 214 573 214 534 c 2,68,-1
 214 494 l 2,53,54
EndSplineSet
Substitution2: "'dnom' Denominators in Latin lookup 19 subtable" eight.denominator
Substitution2: "'sups' Superscript lookup 17 subtable" eightsuperior
Substitution2: "'onum' Oldstyle Figures in Latin lookup 15 subtable" eight.oldstyle
Substitution2: "'tnum' Tabular Numbers in Latin lookup 14 subtable" eight.tnum
Substitution2: "'numr' Numerators in Latin lookup 13 subtable" eight.numerator
Substitution2: "'sinf' Scientific Inferiors lookup 11 subtable" eightinferior
Substitution2: "'frac' Diagonal Fractions lookup 5 subtable" eight.numerator
Substitution2: "'smcp' Lowercase to Small Capitals lookup 1 subtable" eight.smcp
EndChar

StartChar: nine
Encoding: 57 57 28
Width: 603
GlyphClass: 2
Flags: W
LayerCount: 2
Fore
SplineSet
298 -5 m 0,0,1
 181 -5 181 -5 64 20 c 1,2,-1
 64 144 l 1,3,-1
 301 144 l 2,4,5
 346 144 346 144 366 169 c 0,6,7
 388 196 388 196 391 223 c 1,8,9
 397 262 397 262 397 304 c 1,10,11
 336 283 336 283 216 283 c 0,12,13
 85 283 85 283 54 370 c 0,14,15
 40 409 40 409 40 462 c 2,16,-1
 40 563 l 2,17,18
 40 734 40 734 224 734 c 2,19,-1
 365 734 l 2,20,21
 403 734 403 734 431 724.5 c 128,-1,22
 459 715 459 715 484.5 689.5 c 128,-1,23
 510 664 510 664 526 621 c 0,24,25
 561 529 561 529 561 349 c 0,26,27
 561 20 561 20 389 -1 c 1,28,29
 344 -5 344 -5 298 -5 c 0,0,1
204 484 m 2,30,31
 204 449 204 449 214.5 436.5 c 128,-1,32
 225 424 225 424 255 424 c 2,33,-1
 397 424 l 1,34,35
 397 505 397 505 384.5 535 c 128,-1,36
 372 565 372 565 354.5 575 c 128,-1,37
 337 585 337 585 308 585 c 2,38,-1
 258 585 l 2,39,40
 230 585 230 585 220 577 c 0,41,42
 204 564 204 564 204 530 c 2,43,-1
 204 484 l 2,30,31
EndSplineSet
Substitution2: "'dnom' Denominators in Latin lookup 19 subtable" nine.denominator
Substitution2: "'sups' Superscript lookup 17 subtable" ninesuperior
Substitution2: "'onum' Oldstyle Figures in Latin lookup 15 subtable" nine.oldstyle
Substitution2: "'tnum' Tabular Numbers in Latin lookup 14 subtable" nine.tnum
Substitution2: "'numr' Numerators in Latin lookup 13 subtable" nine.numerator
Substitution2: "'sinf' Scientific Inferiors lookup 11 subtable" nineinferior
Substitution2: "'frac' Diagonal Fractions lookup 5 subtable" nine.numerator
Substitution2: "'smcp' Lowercase to Small Capitals lookup 1 subtable" nine.smcp
EndChar

StartChar: colon
Encoding: 58 58 29
Width: 260
GlyphClass: 2
Flags: W
LayerCount: 2
Fore
SplineSet
57 23 m 2,0,-1
 57 125 l 2,1,2
 57 150 57 150 81 150 c 2,3,-1
 179 150 l 2,4,5
 204 150 204 150 204 125 c 2,6,-1
 204 23 l 2,7,8
 204 0 204 0 179 0 c 2,9,-1
 81 0 l 2,10,11
 71 0 71 0 64 6.5 c 128,-1,12
 57 13 57 13 57 23 c 2,0,-1
57 404 m 2,13,-1
 57 506 l 2,14,15
 57 531 57 531 81 531 c 2,16,-1
 179 531 l 2,17,18
 204 531 204 531 204 506 c 2,19,-1
 204 404 l 2,20,21
 204 381 204 381 179 381 c 2,22,-1
 81 381 l 2,23,24
 65 381 65 381 59 395 c 0,25,26
 57 399 57 399 57 404 c 2,13,-1
EndSplineSet
EndChar

StartChar: semicolon
Encoding: 59 59 30
Width: 261
GlyphClass: 2
Flags: W
LayerCount: 2
Fore
SplineSet
57 25 m 2,0,-1
 57 124 l 2,1,2
 57 151 57 151 82 151 c 2,3,-1
 178 151 l 2,4,5
 202 151 202 151 202 124 c 2,6,-1
 202 -11 l 2,7,8
 202 -44 202 -44 187.5 -64 c 128,-1,9
 173 -84 173 -84 153 -89 c 0,10,11
 130 -94 130 -94 109.5 -94 c 128,-1,12
 89 -94 89 -94 77 -91 c 2,13,-1
 62 -88 l 1,14,-1
 62 -34 l 1,15,16
 76 -34 76 -34 83.5 -30 c 128,-1,17
 91 -26 91 -26 92 -21.5 c 128,-1,18
 93 -17 93 -17 93 -10 c 2,19,-1
 93 0 l 1,20,-1
 82 0 l 2,21,22
 71 0 71 0 64 6.5 c 128,-1,23
 57 13 57 13 57 25 c 2,0,-1
58 404 m 2,24,-1
 58 506 l 2,25,26
 58 532 58 532 82 532 c 2,27,-1
 180 532 l 2,28,29
 205 532 205 532 205 506 c 2,30,-1
 205 404 l 2,31,32
 205 382 205 382 180 382 c 2,33,-1
 82 382 l 2,34,35
 65 382 65 382 60 395 c 0,36,37
 58 399 58 399 58 404 c 2,24,-1
EndSplineSet
EndChar

StartChar: less
Encoding: 60 60 31
Width: 442
GlyphClass: 2
Flags: W
LayerCount: 2
Fore
SplineSet
34 278 m 1,0,-1
 34 426 l 1,1,-1
 408 564 l 1,2,-1
 408 416 l 1,3,-1
 201 353 l 1,4,-1
 408 280 l 1,5,-1
 408 132 l 1,6,-1
 34 278 l 1,0,-1
EndSplineSet
EndChar

StartChar: equal
Encoding: 61 61 32
Width: 467
GlyphClass: 2
Flags: W
LayerCount: 2
Fore
SplineSet
20 174 m 1,0,-1
 20 308 l 1,1,-1
 447 308 l 1,2,-1
 447 174 l 1,3,-1
 20 174 l 1,0,-1
20 391 m 1,4,-1
 20 525 l 1,5,-1
 447 525 l 1,6,-1
 447 391 l 1,7,-1
 20 391 l 1,4,-1
EndSplineSet
EndChar

StartChar: greater
Encoding: 62 62 33
Width: 442
GlyphClass: 2
Flags: W
LayerCount: 2
Fore
SplineSet
34 132 m 1,0,-1
 34 280 l 1,1,-1
 241 353 l 1,2,-1
 34 416 l 1,3,-1
 34 564 l 1,4,-1
 408 426 l 1,5,-1
 408 278 l 1,6,-1
 34 132 l 1,0,-1
EndSplineSet
EndChar

StartChar: question
Encoding: 63 63 34
Width: 543
GlyphClass: 2
Flags: W
LayerCount: 2
Fore
SplineSet
13 712 m 1,0,1
 139 740 139 740 243 740 c 0,2,3
 268 740 268 740 295 739 c 1,4,5
 350 739 350 739 393.5 721.5 c 128,-1,6
 437 704 437 704 463 676 c 0,7,8
 517 617 517 617 517 539 c 2,9,-1
 517 476 l 2,10,11
 517 371 517 371 468 325.5 c 128,-1,12
 419 280 419 280 325 280 c 0,13,14
 311 280 311 280 296 281 c 1,15,-1
 296 195 l 1,16,-1
 169 195 l 1,17,-1
 169 402 l 1,18,-1
 273 402 l 1,19,20
 313 404 313 404 333.5 421 c 128,-1,21
 354 438 354 438 354 478 c 2,22,-1
 354 515 l 2,23,24
 354 554 354 554 329.5 571.5 c 128,-1,25
 305 589 305 589 254 589 c 2,26,-1
 13 589 l 1,27,-1
 13 712 l 1,0,1
159 23 m 2,28,-1
 159 125 l 2,29,30
 159 150 159 150 183 150 c 2,31,-1
 281 150 l 2,32,33
 306 150 306 150 306 125 c 2,34,-1
 306 23 l 2,35,36
 306 0 306 0 281 0 c 2,37,-1
 183 0 l 2,38,39
 172 0 172 0 165.5 6.5 c 128,-1,40
 159 13 159 13 159 23 c 2,28,-1
EndSplineSet
Substitution2: "'smcp' Lowercase to Small Capitals lookup 1 subtable" question.smcp
EndChar

StartChar: at
Encoding: 64 64 35
Width: 877
GlyphClass: 2
Flags: W
LayerCount: 2
Fore
SplineSet
44 15 m 2,0,-1
 44 303 l 2,1,2
 44 387 44 387 88 446 c 1,3,4
 139 512 139 512 264 512 c 2,5,-1
 448 512 l 2,6,7
 582 512 582 512 616 436 c 0,8,9
 631 402 631 402 631 350 c 2,10,-1
 631 0 l 1,11,-1
 528 0 l 1,12,-1
 507 56 l 1,13,14
 507 56 507 56 500 49.5 c 128,-1,15
 493 43 493 43 480.5 33.5 c 128,-1,16
 468 24 468 24 451 14 c 0,17,18
 411 -9 411 -9 360 -9 c 2,19,20
 360 -9 360 -9 359 -9 c 0,21,22
 298 -9 298 -9 265 32.5 c 128,-1,23
 232 74 232 74 232 130 c 2,24,-1
 232 168 l 2,25,26
 232 273 232 273 320 300 c 0,27,28
 348 309 348 309 384 309 c 2,29,-1
 505 309 l 1,30,31
 506 339 506 339 505.5 349 c 128,-1,32
 505 359 505 359 499 369 c 0,33,34
 489 385 489 385 451 386 c 1,35,-1
 264 386 l 2,36,37
 195 386 195 386 178 343 c 0,38,39
 170 324 170 324 170 296 c 2,40,-1
 170 30 l 2,41,42
 170 -31 170 -31 198.5 -55.5 c 128,-1,43
 227 -80 227 -80 264 -80 c 2,44,-1
 591 -80 l 2,45,46
 649 -80 649 -80 671.5 -52.5 c 128,-1,47
 694 -25 694 -25 694 30 c 2,48,-1
 694 467 l 2,49,50
 694 523 694 523 666 554 c 128,-1,51
 638 585 638 585 591 585 c 2,52,-1
 187 585 l 1,53,-1
 187 684 l 1,54,55
 233 694 233 694 320 702.5 c 128,-1,56
 407 711 407 711 449.5 711 c 128,-1,57
 492 711 492 711 498 711 c 2,58,-1
 591 711 l 2,59,60
 682 711 682 711 748 659 c 1,61,62
 781 631 781 631 800.5 582 c 128,-1,63
 820 533 820 533 820 467 c 2,64,-1
 820 30 l 2,65,66
 820 -92 820 -92 764.5 -150 c 128,-1,67
 709 -208 709 -208 598 -208 c 2,68,-1
 264 -208 l 2,69,70
 168 -208 168 -208 106 -154.5 c 128,-1,71
 44 -101 44 -101 44 15 c 2,0,-1
407 117 m 0,72,73
 408 117 408 117 408.5 117 c 128,-1,74
 409 117 409 117 409 117 c 2,75,76
 475 117 475 117 505 156 c 1,77,-1
 505 220 l 1,78,-1
 404 211 l 2,79,80
 384 209 384 209 375 200.5 c 128,-1,81
 366 192 366 192 366 172 c 2,82,83
 366 172 366 172 366 162.5 c 128,-1,84
 366 153 366 153 366 152 c 0,85,86
 366 117 366 117 407 117 c 0,72,73
EndSplineSet
Substitution2: "'case' Case-Sensitive Forms lookup 18 subtable" at.alt
Substitution2: "'smcp' Lowercase to Small Capitals lookup 1 subtable" at.smcp
EndChar

StartChar: A
Encoding: 65 65 36
Width: 700
GlyphClass: 2
Flags: W
LayerCount: 2
Fore
SplineSet
30 0 m 1,0,-1
 269 732 l 1,1,-1
 459 732 l 1,2,-1
 690 0 l 1,3,-1
 519 0 l 1,4,-1
 471 147 l 1,5,-1
 250 147 l 1,6,-1
 202 0 l 1,7,-1
 30 0 l 1,0,-1
290 289 m 1,8,-1
 435 289 l 1,9,-1
 366 522 l 1,10,-1
 290 289 l 1,8,-1
EndSplineSet
Substitution2: "'c2sc' Capitals to Small Capitals in Latin lookup 2 subtable" a.smcp
EndChar

StartChar: B
Encoding: 66 66 37
Width: 607
GlyphClass: 2
Flags: W
LayerCount: 2
Fore
SplineSet
54 0 m 1,0,-1
 54 732 l 1,1,-1
 363 732 l 2,2,3
 472 732 472 732 523.5 678.5 c 128,-1,4
 575 625 575 625 575 534 c 0,5,6
 575 480 575 480 548.5 433.5 c 128,-1,7
 522 387 522 387 472 380 c 1,8,9
 543 368 543 368 574 296 c 0,10,11
 590 261 590 261 590 219 c 0,12,13
 590 107 590 107 536 53.5 c 128,-1,14
 482 0 482 0 366 0 c 2,15,-1
 54 0 l 1,0,-1
218 142 m 1,16,-1
 359 142 l 2,17,18
 426 142 426 142 426 227 c 0,19,20
 426 266 426 266 410 291 c 128,-1,21
 394 316 394 316 359 316 c 2,22,-1
 218 316 l 1,23,-1
 218 142 l 1,16,-1
218 450 m 1,24,-1
 352 450 l 2,25,26
 382 450 382 450 398 468.5 c 128,-1,27
 414 487 414 487 414 522.5 c 128,-1,28
 414 558 414 558 396 574 c 128,-1,29
 378 590 378 590 352 590 c 2,30,-1
 218 590 l 1,31,-1
 218 450 l 1,24,-1
EndSplineSet
Substitution2: "'c2sc' Capitals to Small Capitals in Latin lookup 2 subtable" b.smcp
EndChar

StartChar: C
Encoding: 67 67 38
Width: 569
GlyphClass: 2
Flags: W
LayerCount: 2
Fore
SplineSet
37 368 m 0,0,1
 37 460 37 460 48.5 525.5 c 128,-1,2
 60 591 60 591 88 641 c 0,3,4
 142 740 142 740 288 740 c 0,5,6
 377 740 377 740 430.5 732.5 c 128,-1,7
 484 725 484 725 547 704 c 1,8,-1
 547 576 l 1,9,10
 547 576 547 576 540 576.5 c 128,-1,11
 533 577 533 577 521 578.5 c 128,-1,12
 509 580 509 580 493.5 581.5 c 128,-1,13
 478 583 478 583 458.5 585 c 128,-1,14
 439 587 439 587 419 588 c 0,15,16
 374 591 374 591 342 591 c 128,-1,17
 310 591 310 591 296 589.5 c 128,-1,18
 282 588 282 588 266 583.5 c 128,-1,19
 250 579 250 579 241 569.5 c 128,-1,20
 232 560 232 560 223.5 544 c 128,-1,21
 215 528 215 528 210 504 c 1,22,23
 201 449 201 449 201 344 c 128,-1,24
 201 239 201 239 227.5 191 c 128,-1,25
 254 143 254 143 334 143 c 0,26,27
 427 143 427 143 517 149 c 1,28,-1
 547 152 l 1,29,-1
 547 24 l 1,30,31
 463 -6 463 -6 316 -6 c 0,32,33
 302 -6 302 -6 288 -6 c 0,34,35
 151 -4 151 -4 93 93 c 0,36,37
 37 186 37 186 37 368 c 0,0,1
EndSplineSet
Substitution2: "'c2sc' Capitals to Small Capitals in Latin lookup 2 subtable" c.smcp
EndChar

StartChar: D
Encoding: 68 68 39
Width: 664
GlyphClass: 2
Flags: W
LayerCount: 2
Fore
SplineSet
54 0 m 1,0,-1
 54 732 l 1,1,-1
 379 732 l 2,2,3
 439 732 439 732 484 711.5 c 128,-1,4
 529 691 529 691 556.5 658 c 128,-1,5
 584 625 584 625 601 576 c 0,6,7
 631 491 631 491 631 363 c 0,8,9
 631 0 631 0 379 0 c 2,10,-1
 54 0 l 1,0,-1
218 142 m 1,11,-1
 364 142 l 2,12,13
 419 142 419 142 443 197 c 128,-1,14
 467 252 467 252 467 354 c 128,-1,15
 467 456 467 456 454 507 c 128,-1,16
 441 558 441 558 420 574 c 128,-1,17
 399 590 399 590 364 590 c 2,18,-1
 218 590 l 1,19,-1
 218 142 l 1,11,-1
EndSplineSet
Substitution2: "'c2sc' Capitals to Small Capitals in Latin lookup 2 subtable" d.smcp
EndChar

StartChar: E
Encoding: 69 69 40
Width: 567
GlyphClass: 2
Flags: W
LayerCount: 2
Fore
SplineSet
50 152 m 2,0,-1
 50 572 l 2,1,2
 50 680 50 680 131 716 c 0,3,4
 169 732 169 732 221 732 c 0,5,6
 458 728 458 728 545 716 c 1,7,-1
 545 579 l 1,8,-1
 266 579 l 2,9,10
 229 579 229 579 220 561 c 0,11,12
 214 547 214 547 214 523 c 2,13,-1
 214 440 l 1,14,-1
 498 430 l 1,15,-1
 498 294 l 1,16,-1
 214 285 l 1,17,-1
 214 202 l 2,18,19
 214 164 214 164 235 156 c 0,20,21
 250 150 250 150 276 150 c 2,22,-1
 545 150 l 1,23,-1
 545 14 l 1,24,25
 473 4 473 4 256 -2 c 1,26,-1
 231 -3 l 2,27,28
 223 -3 223 -3 212 -3 c 128,-1,29
 201 -3 201 -3 183.5 -1.5 c 128,-1,30
 166 0 166 0 139.5 9 c 128,-1,31
 113 18 113 18 94.5 34 c 128,-1,32
 76 50 76 50 63 80.5 c 128,-1,33
 50 111 50 111 50 152 c 2,0,-1
EndSplineSet
Substitution2: "'c2sc' Capitals to Small Capitals in Latin lookup 2 subtable" e.smcp
EndChar

StartChar: F
Encoding: 70 70 41
Width: 567
GlyphClass: 2
Flags: W
LayerCount: 2
Fore
SplineSet
50 0 m 1,0,-1
 50 569 l 2,1,2
 50 656 50 656 100 694 c 128,-1,3
 150 732 150 732 217 732 c 0,4,5
 219 732 219 732 221 732 c 0,6,7
 458 728 458 728 545 716 c 1,8,-1
 545 579 l 1,9,-1
 266 579 l 2,10,11
 229 579 229 579 220 561 c 0,12,13
 214 547 214 547 214 523 c 2,14,-1
 214 440 l 1,15,-1
 498 430 l 1,16,-1
 498 294 l 1,17,-1
 214 285 l 1,18,-1
 214 0 l 1,19,-1
 50 0 l 1,0,-1
EndSplineSet
Substitution2: "'c2sc' Capitals to Small Capitals in Latin lookup 2 subtable" f.smcp
EndChar

StartChar: G
Encoding: 71 71 42
Width: 614
GlyphClass: 2
Flags: W
LayerCount: 2
Fore
SplineSet
41.5 249.5 m 128,-1,1
 37 301 37 301 37 370.5 c 128,-1,2
 37 440 37 440 43 492.5 c 128,-1,3
 49 545 49 545 64.5 593.5 c 128,-1,4
 80 642 80 642 107 673 c 0,5,6
 165 740 165 740 272 740 c 128,-1,7
 379 740 379 740 430.5 734 c 128,-1,8
 482 728 482 728 569 706 c 1,9,-1
 569 579 l 1,10,11
 568 579 568 579 560 580 c 128,-1,12
 552 581 552 581 538.5 583 c 128,-1,13
 525 585 525 585 507.5 587 c 128,-1,14
 490 589 490 589 468 591 c 128,-1,15
 446 593 446 593 423 595 c 0,16,17
 372 598 372 598 323 598 c 0,18,19
 248 598 248 598 224.5 550 c 128,-1,20
 201 502 201 502 201 368 c 0,21,22
 201 229 201 229 220 190 c 0,23,24
 236 158 236 158 271 151 c 0,25,26
 288 147 288 147 315 147 c 128,-1,27
 342 147 342 147 367.5 158.5 c 128,-1,28
 393 170 393 170 404 181 c 1,29,-1
 414 193 l 1,30,-1
 414 299 l 1,31,-1
 336 299 l 1,32,-1
 336 402 l 1,33,34
 388 426 388 426 510 426 c 0,35,36
 542 426 542 426 578 424 c 1,37,-1
 578 0 l 1,38,-1
 462 0 l 1,39,-1
 416 49 l 1,40,41
 400 31 400 31 384 21 c 0,42,43
 344 -5 344 -5 259 -5 c 0,44,45
 155 -5 155 -5 102 62 c 0,46,47
 76 94 76 94 61 146 c 128,-1,0
 46 198 46 198 41.5 249.5 c 128,-1,1
EndSplineSet
Substitution2: "'c2sc' Capitals to Small Capitals in Latin lookup 2 subtable" g.smcp
EndChar

StartChar: H
Encoding: 72 72 43
Width: 636
GlyphClass: 2
Flags: W
LayerCount: 2
Fore
SplineSet
54 0 m 1,0,-1
 54 732 l 1,1,-1
 218 732 l 1,2,-1
 218 428 l 1,3,-1
 433 428 l 1,4,-1
 433 732 l 1,5,-1
 597 732 l 1,6,-1
 597 0 l 1,7,-1
 433 0 l 1,8,-1
 433 280 l 1,9,-1
 218 280 l 1,10,-1
 218 0 l 1,11,-1
 54 0 l 1,0,-1
EndSplineSet
Substitution2: "'c2sc' Capitals to Small Capitals in Latin lookup 2 subtable" h.smcp
EndChar

StartChar: I
Encoding: 73 73 44
Width: 257
GlyphClass: 2
Flags: W
LayerCount: 2
Fore
SplineSet
54 0 m 1,0,-1
 54 732 l 1,1,-1
 218 732 l 1,2,-1
 218 0 l 1,3,-1
 54 0 l 1,0,-1
EndSplineSet
Substitution2: "'c2sc' Capitals to Small Capitals in Latin lookup 2 subtable" i.smcp
EndChar

StartChar: J
Encoding: 74 74 45
Width: 356
GlyphClass: 2
Flags: W
LayerCount: 2
Fore
SplineSet
263 18 m 0,0,1
 226 -5 226 -5 147 -5 c 128,-1,2
 68 -5 68 -5 24 24 c 1,3,-1
 25 153 l 1,4,5
 43 152 43 152 58.5 152 c 128,-1,6
 74 152 74 152 92 153 c 128,-1,7
 110 154 110 154 125 164 c 0,8,9
 152 183 152 183 152 248 c 2,10,-1
 152 732 l 1,11,-1
 316 732 l 1,12,-1
 316 165 l 2,13,14
 316 52 316 52 263 18 c 0,0,1
EndSplineSet
Substitution2: "'c2sc' Capitals to Small Capitals in Latin lookup 2 subtable" j.smcp
EndChar

StartChar: K
Encoding: 75 75 46
Width: 642
GlyphClass: 2
Flags: W
LayerCount: 2
Fore
SplineSet
54 0 m 1,0,-1
 54 732 l 1,1,-1
 210 732 l 1,2,-1
 210 434 l 1,3,-1
 261 434 l 1,4,-1
 430 732 l 1,5,-1
 620 732 l 1,6,-1
 406 365 l 1,7,-1
 620 0 l 1,8,-1
 430 0 l 1,9,-1
 261 292 l 1,10,-1
 211 292 l 1,11,-1
 211 0 l 1,12,-1
 54 0 l 1,0,-1
EndSplineSet
Substitution2: "'c2sc' Capitals to Small Capitals in Latin lookup 2 subtable" k.smcp
EndChar

StartChar: L
Encoding: 76 76 47
Width: 533
GlyphClass: 2
Flags: W
LayerCount: 2
Fore
SplineSet
54 148 m 2,0,-1
 54 732 l 1,1,-1
 218 732 l 1,2,-1
 218 201 l 2,3,4
 218 163 218 163 239 155 c 0,5,6
 254 149 254 149 280 149 c 2,7,-1
 511 149 l 1,8,-1
 511 0 l 1,9,-1
 212 0 l 2,10,11
 141 0 141 0 97.5 34.5 c 128,-1,12
 54 69 54 69 54 148 c 2,0,-1
EndSplineSet
Substitution2: "'c2sc' Capitals to Small Capitals in Latin lookup 2 subtable" l.smcp
EndChar

StartChar: M
Encoding: 77 77 48
Width: 864
GlyphClass: 2
Flags: W
LayerCount: 2
Fore
SplineSet
37 0 m 1,0,-1
 108 732 l 1,1,-1
 336 732 l 1,2,-1
 431 272 l 1,3,-1
 528 732 l 1,4,-1
 755 732 l 1,5,-1
 828 0 l 1,6,-1
 667 0 l 1,7,-1
 618 449 l 1,8,-1
 525 0 l 1,9,-1
 340 0 l 1,10,-1
 243 449 l 1,11,-1
 199 0 l 1,12,-1
 37 0 l 1,0,-1
EndSplineSet
AlternateSubs2: "'salt' Stylistic Alternatives in Latin lookup 16 subtable" M.salt
Substitution2: "'c2sc' Capitals to Small Capitals in Latin lookup 2 subtable" m.smcp
EndChar

StartChar: N
Encoding: 78 78 49
Width: 677
GlyphClass: 2
Flags: W
LayerCount: 2
Fore
SplineSet
54 0 m 1,0,-1
 54 732 l 1,1,-1
 220 732 l 1,2,-1
 474 303 l 1,3,-1
 474 732 l 1,4,-1
 638 732 l 1,5,-1
 638 0 l 1,6,-1
 474 0 l 1,7,-1
 219 422 l 1,8,-1
 219 0 l 1,9,-1
 54 0 l 1,0,-1
EndSplineSet
AlternateSubs2: "'salt' Stylistic Alternatives in Latin lookup 16 subtable" N.salt
Substitution2: "'c2sc' Capitals to Small Capitals in Latin lookup 2 subtable" n.smcp
EndChar

StartChar: O
Encoding: 79 79 50
Width: 669
GlyphClass: 2
Flags: W
LayerCount: 2
Fore
SplineSet
44 366 m 128,-1,1
 44 433 44 433 52 489.5 c 128,-1,2
 60 546 60 546 73.5 585.5 c 128,-1,3
 87 625 87 625 109 653 c 128,-1,4
 131 681 131 681 154 697 c 128,-1,5
 177 713 177 713 210 722 c 0,6,7
 263 737 263 737 323.5 737 c 128,-1,8
 384 737 384 737 413.5 734 c 128,-1,9
 443 731 443 731 476.5 722 c 128,-1,10
 510 713 510 713 532.5 697 c 128,-1,11
 555 681 555 681 577 653 c 128,-1,12
 599 625 599 625 612 586 c 0,13,14
 640 499 640 499 640 361 c 0,15,16
 640 194 640 194 593 104 c 0,17,18
 569 56 569 56 516 26 c 0,19,20
 462 -4 462 -4 342 -4 c 0,21,22
 220 -4 220 -4 169 24 c 0,23,24
 114 53 114 53 91 99 c 0,25,26
 58 163 58 163 51 231 c 128,-1,0
 44 299 44 299 44 366 c 128,-1,1
213 465 m 128,-1,28
 208 424 208 424 208 372.5 c 128,-1,29
 208 321 208 321 209.5 292.5 c 128,-1,30
 211 264 211 264 214.5 240 c 128,-1,31
 218 216 218 216 225 200.5 c 128,-1,32
 232 185 232 185 241.5 173.5 c 128,-1,33
 251 162 251 162 266 156 c 0,34,35
 295 145 295 145 339 145 c 128,-1,36
 383 145 383 145 407 153.5 c 128,-1,37
 431 162 431 162 447.5 186.5 c 128,-1,38
 464 211 464 211 470 252 c 128,-1,39
 476 293 476 293 476 358 c 128,-1,40
 476 423 476 423 471.5 462.5 c 128,-1,41
 467 502 467 502 458.5 528 c 128,-1,42
 450 554 450 554 433 566.5 c 128,-1,43
 416 579 416 579 396 583.5 c 128,-1,44
 376 588 376 588 342.5 588 c 128,-1,45
 309 588 309 588 290 584.5 c 128,-1,46
 271 581 271 581 253 568.5 c 128,-1,47
 235 556 235 556 226.5 531 c 128,-1,27
 218 506 218 506 213 465 c 128,-1,28
EndSplineSet
Substitution2: "'c2sc' Capitals to Small Capitals in Latin lookup 2 subtable" o.smcp
EndChar

StartChar: P
Encoding: 80 80 51
Width: 610
GlyphClass: 2
Flags: W
LayerCount: 2
Fore
SplineSet
48 0 m 1,0,-1
 48 732 l 1,1,-1
 368 732 l 2,2,3
 483 732 483 732 534 671 c 0,4,5
 581 615 581 615 581 501 c 0,6,7
 581 436 581 436 566.5 388.5 c 128,-1,8
 552 341 552 341 531.5 316 c 128,-1,9
 511 291 511 291 480 277 c 0,10,11
 440 260 440 260 392 260 c 0,12,13
 357 260 357 260 286.5 269 c 128,-1,14
 216 278 216 278 212 280 c 1,15,-1
 212 0 l 1,16,-1
 48 0 l 1,0,-1
212 402 m 1,17,-1
 353 402 l 2,18,19
 385 402 385 402 400.5 424.5 c 128,-1,20
 416 447 416 447 416 499 c 0,21,22
 415 590 415 590 353 590 c 2,23,-1
 212 590 l 1,24,-1
 212 402 l 1,17,-1
EndSplineSet
Substitution2: "'c2sc' Capitals to Small Capitals in Latin lookup 2 subtable" p.smcp
EndChar

StartChar: Q
Encoding: 81 81 52
Width: 669
GlyphClass: 2
Flags: W
LayerCount: 2
Fore
SplineSet
49 249.5 m 128,-1,1
 44 299 44 299 44 366 c 128,-1,2
 44 433 44 433 52 489.5 c 128,-1,3
 60 546 60 546 73 585.5 c 128,-1,4
 86 625 86 625 108 653 c 128,-1,5
 130 681 130 681 153 697 c 128,-1,6
 176 713 176 713 209 722 c 0,7,8
 262 737 262 737 322.5 737 c 128,-1,9
 383 737 383 737 413 734 c 128,-1,10
 443 731 443 731 476 722 c 128,-1,11
 509 713 509 713 532 697 c 128,-1,12
 555 681 555 681 577 653 c 128,-1,13
 599 625 599 625 611 586 c 0,14,15
 640 499 640 499 640 361 c 0,16,17
 640 161 640 161 579 82 c 0,18,19
 539 30 539 30 479 13 c 0,20,21
 398 -11 398 -11 277 -2 c 0,22,23
 205 4 205 4 176 19.5 c 128,-1,24
 147 35 147 35 125.5 53.5 c 128,-1,25
 104 72 104 72 90.5 99.5 c 128,-1,26
 77 127 77 127 65.5 163.5 c 128,-1,0
 54 200 54 200 49 249.5 c 128,-1,1
213 465 m 128,-1,28
 208 424 208 424 208 364 c 128,-1,29
 208 304 208 304 211.5 269 c 128,-1,30
 215 234 215 234 222.5 208 c 128,-1,31
 230 182 230 182 246 169 c 0,32,33
 276 145 276 145 336 145 c 128,-1,34
 396 145 396 145 423.5 162 c 128,-1,35
 451 179 451 179 463.5 225 c 128,-1,36
 476 271 476 271 476 341.5 c 128,-1,37
 476 412 476 412 473.5 448 c 128,-1,38
 471 484 471 484 464 509.5 c 128,-1,39
 457 535 457 535 447.5 550 c 128,-1,40
 438 565 438 565 422 574 c 0,41,42
 395 588 395 588 351.5 588 c 128,-1,43
 308 588 308 588 289 584.5 c 128,-1,44
 270 581 270 581 252 568.5 c 128,-1,45
 234 556 234 556 226 531 c 128,-1,27
 218 506 218 506 213 465 c 128,-1,28
463 -75 m 0,46,47
 497 -75 497 -75 544 -64 c 1,48,-1
 544 -189 l 1,49,50
 510 -194 510 -194 475.5 -194 c 128,-1,51
 441 -194 441 -194 409 -183 c 128,-1,52
 377 -172 377 -172 352 -154 c 0,53,54
 297 -114 297 -114 294 -33 c 1,55,-1
 383 -33 l 1,56,57
 398 -75 398 -75 463 -75 c 0,46,47
EndSplineSet
Substitution2: "'c2sc' Capitals to Small Capitals in Latin lookup 2 subtable" q.smcp
EndChar

StartChar: R
Encoding: 82 82 53
Width: 612
GlyphClass: 2
Flags: W
LayerCount: 2
Fore
SplineSet
48 0 m 1,0,-1
 48 732 l 1,1,-1
 371 732 l 2,2,3
 470 732 470 732 526 679 c 128,-1,4
 582 626 582 626 582 501 c 0,5,6
 582 394 582 394 551 345 c 0,7,8
 532 315 532 315 514 304 c 0,9,10
 493 292 493 292 469 283 c 1,11,-1
 602 0 l 1,12,-1
 416 0 l 1,13,-1
 307 269 l 1,14,-1
 212 283 l 1,15,-1
 212 0 l 1,16,-1
 48 0 l 1,0,-1
213 409 m 1,17,-1
 352 409 l 2,18,19
 390 409 390 409 403 428 c 128,-1,20
 416 447 416 447 416 498 c 128,-1,21
 416 549 416 549 401 569.5 c 128,-1,22
 386 590 386 590 352 590 c 2,23,-1
 213 590 l 1,24,-1
 213 409 l 1,17,-1
EndSplineSet
Substitution2: "'c2sc' Capitals to Small Capitals in Latin lookup 2 subtable" r.smcp
EndChar

StartChar: S
Encoding: 83 83 54
Width: 593
GlyphClass: 2
Flags: W
LayerCount: 2
Fore
SplineSet
44 483 m 2,0,-1
 44 545 l 2,1,2
 44 734 44 734 242 738 c 0,3,4
 263 739 263 739 284 739 c 0,5,6
 442 739 442 739 537 707 c 1,7,-1
 537 579 l 1,8,9
 435 589 435 589 363.5 589 c 128,-1,10
 292 589 292 589 289 589 c 0,11,12
 244 589 244 589 226 579 c 128,-1,13
 208 569 208 569 208 530 c 2,14,-1
 208 505 l 2,15,16
 208 471 208 471 219 461 c 0,17,18
 237 445 237 445 278 445 c 2,19,-1
 384 445 l 2,20,21
 456 445 456 445 497 410 c 0,22,23
 564 353 564 353 564 243 c 2,24,-1
 564 201 l 2,25,26
 564 60 564 60 475 15 c 0,27,28
 428 -8 428 -8 361 -8 c 0,29,30
 243 -8 243 -8 186.5 -2 c 128,-1,31
 130 4 130 4 67 24 c 1,32,-1
 67 152 l 1,33,34
 177 141 177 141 324 141 c 0,35,36
 360 141 360 141 380 152 c 128,-1,37
 400 163 400 163 400 194 c 2,38,-1
 400 223 l 2,39,40
 400 253 400 253 387 267 c 128,-1,41
 374 281 374 281 340 281 c 2,42,-1
 237 281 l 2,43,44
 169 281 169 281 130 305 c 0,45,46
 88 330 88 330 72 361 c 0,47,48
 53 399 53 399 49 422 c 0,49,50
 44 458 44 458 44 483 c 2,0,-1
EndSplineSet
Substitution2: "'c2sc' Capitals to Small Capitals in Latin lookup 2 subtable" s.smcp
EndChar

StartChar: T
Encoding: 84 84 55
Width: 599
GlyphClass: 2
Flags: W
LayerCount: 2
Fore
SplineSet
26 583 m 1,0,-1
 26 732 l 1,1,-1
 579 732 l 1,2,-1
 579 583 l 1,3,-1
 382 583 l 1,4,-1
 382 0 l 1,5,-1
 218 0 l 1,6,-1
 218 583 l 1,7,-1
 26 583 l 1,0,-1
EndSplineSet
Substitution2: "'c2sc' Capitals to Small Capitals in Latin lookup 2 subtable" t.smcp
EndChar

StartChar: U
Encoding: 85 85 56
Width: 660
GlyphClass: 2
Flags: W
LayerCount: 2
Fore
SplineSet
340 -5 m 2,0,-1
 325 -5 l 2,1,2
 232 -5 232 -5 208 3.5 c 128,-1,3
 184 12 184 12 161 23 c 128,-1,4
 138 34 138 34 125 50 c 128,-1,5
 112 66 112 66 96.5 91 c 128,-1,6
 81 116 81 116 73 148 c 0,7,8
 54 224 54 224 54 320 c 2,9,-1
 54 732 l 1,10,-1
 218 732 l 1,11,-1
 218 320 l 2,12,13
 218 267 218 267 222.5 235 c 128,-1,14
 227 203 227 203 241 181.5 c 128,-1,15
 255 160 255 160 278 152 c 128,-1,16
 301 144 301 144 340 144 c 0,17,18
 407 144 407 144 431.5 182.5 c 128,-1,19
 456 221 456 221 456 320 c 2,20,-1
 456 732 l 1,21,-1
 621 732 l 1,22,-1
 621 320 l 2,23,24
 621 125 621 125 548 57 c 0,25,26
 522 33 522 33 501.5 21 c 128,-1,27
 481 9 481 9 448 3 c 0,28,29
 404 -5 404 -5 340 -5 c 2,0,-1
EndSplineSet
Substitution2: "'c2sc' Capitals to Small Capitals in Latin lookup 2 subtable" u.smcp
EndChar

StartChar: V
Encoding: 86 86 57
Width: 691
GlyphClass: 2
Flags: W
LayerCount: 2
Fore
SplineSet
30 732 m 1,0,-1
 203 732 l 1,1,-1
 348 208 l 1,2,-1
 502 732 l 1,3,-1
 675 732 l 1,4,-1
 444 0 l 1,5,-1
 250 0 l 1,6,-1
 30 732 l 1,0,-1
EndSplineSet
Substitution2: "'c2sc' Capitals to Small Capitals in Latin lookup 2 subtable" v.smcp
EndChar

StartChar: W
Encoding: 87 87 58
Width: 1004
GlyphClass: 2
Flags: W
LayerCount: 2
Fore
SplineSet
30 732 m 1,0,-1
 203 732 l 1,1,-1
 347 211 l 1,2,-1
 461 732 l 1,3,-1
 635 732 l 1,4,-1
 590 560 l 1,5,-1
 700 209 l 1,6,-1
 815 732 l 1,7,-1
 988 732 l 1,8,-1
 796 0 l 1,9,-1
 602 0 l 1,10,-1
 518 273 l 1,11,-1
 444 0 l 1,12,-1
 250 0 l 1,13,-1
 30 732 l 1,0,-1
EndSplineSet
Substitution2: "'c2sc' Capitals to Small Capitals in Latin lookup 2 subtable" w.smcp
EndChar

StartChar: X
Encoding: 88 88 59
Width: 658
GlyphClass: 2
Flags: W
LayerCount: 2
Fore
SplineSet
30 732 m 1,0,-1
 212 732 l 1,1,-1
 335 503 l 1,2,-1
 460 732 l 1,3,-1
 642 732 l 1,4,-1
 420 365 l 1,5,-1
 636 0 l 1,6,-1
 455 0 l 1,7,-1
 335 224 l 1,8,-1
 214 0 l 1,9,-1
 33 0 l 1,10,-1
 250 365 l 1,11,-1
 30 732 l 1,0,-1
EndSplineSet
AlternateSubs2: "'salt' Stylistic Alternatives in Latin lookup 16 subtable" X.salt
Substitution2: "'c2sc' Capitals to Small Capitals in Latin lookup 2 subtable" x.smcp
EndChar

StartChar: Y
Encoding: 89 89 60
Width: 666
GlyphClass: 2
Flags: W
LayerCount: 2
Fore
SplineSet
414 0 m 1,0,-1
 250 0 l 1,1,-1
 250 215 l 1,2,-1
 30 732 l 1,3,-1
 208 732 l 1,4,-1
 334 393 l 1,5,-1
 472 732 l 1,6,-1
 650 732 l 1,7,-1
 414 215 l 1,8,-1
 414 0 l 1,0,-1
EndSplineSet
Substitution2: "'c2sc' Capitals to Small Capitals in Latin lookup 2 subtable" y.smcp
EndChar

StartChar: Z
Encoding: 90 90 61
Width: 554
GlyphClass: 2
Flags: W
LayerCount: 2
Fore
SplineSet
24 0 m 1,0,-1
 24 149 l 1,1,-1
 337 583 l 1,2,-1
 24 583 l 1,3,-1
 24 732 l 1,4,-1
 532 732 l 1,5,-1
 532 583 l 1,6,-1
 241 149 l 1,7,-1
 532 149 l 1,8,-1
 532 0 l 1,9,-1
 24 0 l 1,0,-1
EndSplineSet
Substitution2: "'c2sc' Capitals to Small Capitals in Latin lookup 2 subtable" z.smcp
EndChar

StartChar: bracketleft
Encoding: 91 91 62
Width: 338
GlyphClass: 2
Flags: W
LayerCount: 2
Fore
SplineSet
57 0 m 2,0,-1
 57 648 l 2,1,2
 57 842 57 842 238 842 c 2,3,-1
 326 842 l 1,4,-1
 326 708 l 1,5,-1
 283 708 l 2,6,7
 221 708 221 708 221 625 c 2,8,-1
 221 7 l 2,9,10
 221 -76 221 -76 283 -76 c 2,11,-1
 326 -76 l 1,12,-1
 326 -210 l 1,13,-1
 238 -210 l 2,14,15
 57 -210 57 -210 57 0 c 2,0,-1
EndSplineSet
EndChar

StartChar: backslash
Encoding: 92 92 63
Width: 476
GlyphClass: 2
Flags: W
LayerCount: 2
Fore
SplineSet
13 770 m 1,0,-1
 182 770 l 1,1,-1
 463 -72 l 1,2,-1
 294 -72 l 1,3,-1
 13 770 l 1,0,-1
EndSplineSet
EndChar

StartChar: bracketright
Encoding: 93 93 64
Width: 338
GlyphClass: 2
Flags: W
LayerCount: 2
Fore
SplineSet
13 -76 m 1,0,-1
 56 -76 l 2,1,2
 118 -76 118 -76 118 7 c 2,3,-1
 118 625 l 2,4,5
 118 708 118 708 56 708 c 2,6,-1
 13 708 l 1,7,-1
 13 842 l 1,8,-1
 101 842 l 2,9,10
 282 842 282 842 282 648 c 2,11,-1
 282 0 l 2,12,13
 282 -210 282 -210 101 -210 c 2,14,-1
 13 -210 l 1,15,-1
 13 -76 l 1,0,-1
EndSplineSet
EndChar

StartChar: asciicircum
Encoding: 94 94 65
Width: 381
GlyphClass: 2
Flags: W
LayerCount: 2
Fore
SplineSet
34 531 m 1,0,-1
 138 668 l 1,1,-1
 254 668 l 1,2,-1
 348 531 l 1,3,-1
 247 531 l 1,4,-1
 193 587 l 1,5,-1
 136 531 l 1,6,-1
 34 531 l 1,0,-1
EndSplineSet
EndChar

StartChar: underscore
Encoding: 95 95 66
Width: 674
GlyphClass: 2
Flags: W
LayerCount: 2
Fore
SplineSet
20 -1 m 1,0,-1
 20 133 l 1,1,-1
 654 133 l 1,2,-1
 654 -1 l 1,3,-1
 20 -1 l 1,0,-1
EndSplineSet
EndChar

StartChar: grave
Encoding: 96 96 67
Width: 243
GlyphClass: 2
Flags: W
LayerCount: 2
Fore
SplineSet
13 672 m 1,0,-1
 146 672 l 1,1,-1
 230 531 l 1,2,-1
 131 531 l 1,3,-1
 13 672 l 1,0,-1
EndSplineSet
Substitution2: "'smcp' Lowercase to Small Capitals lookup 1 subtable" grave.smcp
EndChar

StartChar: a
Encoding: 97 97 68
Width: 519
GlyphClass: 2
Flags: W
LayerCount: 2
Fore
SplineSet
26 139 m 2,0,-1
 26 185 l 2,1,2
 26 250 26 250 65 292.5 c 128,-1,3
 104 335 104 335 180 335 c 128,-1,4
 256 335 256 335 289 335 c 128,-1,5
 322 335 322 335 322 335 c 1,6,7
 323 356 323 356 322 357 c 1,8,9
 322 395 322 395 307 405.5 c 128,-1,10
 292 416 292 416 246 416 c 128,-1,11
 200 416 200 416 44 405 c 1,12,-1
 44 504 l 1,13,14
 94 525 94 525 148 533 c 0,15,16
 203 541 203 541 292.5 541 c 128,-1,17
 382 541 382 541 434 502 c 128,-1,18
 486 463 486 463 486 364 c 2,19,-1
 486 0 l 1,20,-1
 356 0 l 1,21,-1
 322 56 l 1,22,23
 314 39 314 39 275 16.5 c 128,-1,24
 236 -6 236 -6 189 -6 c 0,25,26
 107 -6 107 -6 66.5 39 c 128,-1,27
 26 84 26 84 26 139 c 2,0,-1
237 120 m 0,28,29
 285 120 285 120 322 158 c 1,30,-1
 322 239 l 1,31,-1
 228 231 l 2,32,33
 190 228 190 228 190 181 c 2,34,-1
 190 164 l 2,35,36
 190 133 190 133 206 126 c 1,37,38
 217 120 217 120 237 120 c 0,28,29
EndSplineSet
AlternateSubs2: "'salt' Stylistic Alternatives in Latin lookup 16 subtable" a.salt
Substitution2: "'smcp' Lowercase to Small Capitals lookup 1 subtable" a.smcp
EndChar

StartChar: b
Encoding: 98 98 69
Width: 557
GlyphClass: 2
Flags: W
LayerCount: 2
Fore
SplineSet
40 0 m 1,0,-1
 40 785 l 1,1,-1
 204 785 l 1,2,-1
 204 506 l 1,3,4
 271 539 271 539 352 539 c 0,5,6
 425 539 425 539 462 506 c 0,7,8
 500 472 500 472 513 412 c 0,9,10
 525 354 525 354 525 263 c 0,11,12
 525 128 525 128 484.5 61 c 128,-1,13
 444 -6 444 -6 359.5 -6 c 128,-1,14
 275 -6 275 -6 205 52 c 1,15,-1
 178 0 l 1,16,-1
 40 0 l 1,0,-1
303 130 m 0,17,18
 348 130 348 130 357 200 c 0,19,20
 361 228 361 228 361 279.5 c 128,-1,21
 361 331 361 331 353.5 364 c 128,-1,22
 346 397 346 397 334.5 406.5 c 128,-1,23
 323 416 323 416 303 416 c 0,24,25
 239 416 239 416 205 398 c 1,26,-1
 205 158 l 1,27,28
 237 130 237 130 303 130 c 0,17,18
EndSplineSet
AlternateSubs2: "'salt' Stylistic Alternatives in Latin lookup 16 subtable" b.salt
Substitution2: "'smcp' Lowercase to Small Capitals lookup 1 subtable" b.smcp
EndChar

StartChar: c
Encoding: 99 99 70
Width: 492
GlyphClass: 2
Flags: W
LayerCount: 2
Fore
SplineSet
284 -6 m 2,0,-1
 216 -5 l 2,1,2
 212 -5 212 -5 208 -5 c 0,3,4
 80 -5 80 -5 47 134 c 0,5,6
 34 188 34 188 34 266 c 128,-1,7
 34 344 34 344 46.5 398 c 128,-1,8
 59 452 59 452 83 482 c 0,9,10
 128 536 128 536 208 536 c 0,11,12
 366 536 366 536 459 502 c 1,13,-1
 459 404 l 1,14,15
 379 410 379 410 326 410 c 128,-1,16
 273 410 273 410 264 409 c 128,-1,17
 255 408 255 408 243 405.5 c 128,-1,18
 231 403 231 403 225.5 397.5 c 128,-1,19
 220 392 220 392 213.5 382 c 128,-1,20
 207 372 207 372 204 356 c 0,21,22
 198 316 198 316 198 265 c 128,-1,23
 198 214 198 214 201.5 186.5 c 128,-1,24
 205 159 205 159 217 144 c 128,-1,25
 229 129 229 129 244.5 125.5 c 128,-1,26
 260 122 260 122 296 122 c 0,27,28
 372 122 372 122 443 128 c 2,29,-1
 466 130 l 1,30,-1
 466 31 l 1,31,32
 422 4 422 4 378 0 c 0,33,34
 321 -6 321 -6 284 -6 c 2,0,-1
EndSplineSet
Substitution2: "'smcp' Lowercase to Small Capitals lookup 1 subtable" c.smcp
EndChar

StartChar: d
Encoding: 100 100 71
Width: 557
GlyphClass: 2
Flags: W
LayerCount: 2
Fore
SplineSet
48.5 425.5 m 128,-1,1
 63 474 63 474 82 495 c 0,2,3
 123 539 123 539 205 539 c 128,-1,4
 287 539 287 539 354 506 c 1,5,-1
 354 785 l 1,6,-1
 518 785 l 1,7,-1
 518 0 l 1,8,-1
 380 0 l 1,9,-1
 354 52 l 1,10,11
 284 -6 284 -6 206 -6 c 0,12,13
 114 -6 114 -6 74 59 c 128,-1,14
 34 124 34 124 34 250.5 c 128,-1,0
 34 377 34 377 48.5 425.5 c 128,-1,1
205 364 m 128,-1,16
 198 331 198 331 198 260 c 128,-1,17
 198 189 198 189 211.5 159.5 c 128,-1,18
 225 130 225 130 256 130 c 0,19,20
 321 130 321 130 354 158 c 1,21,-1
 354 398 l 1,22,23
 319 416 319 416 256 416 c 0,24,25
 235 416 235 416 223.5 406.5 c 128,-1,15
 212 397 212 397 205 364 c 128,-1,16
EndSplineSet
AlternateSubs2: "'salt' Stylistic Alternatives in Latin lookup 16 subtable" d.salt
Substitution2: "'smcp' Lowercase to Small Capitals lookup 1 subtable" d.smcp
EndChar

StartChar: e
Encoding: 101 101 72
Width: 525
GlyphClass: 2
Flags: W
LayerCount: 2
Fore
SplineSet
314 121 m 0,0,1
 415 121 415 121 488 132 c 1,2,-1
 488 23 l 1,3,4
 455 9 455 9 396.5 2.5 c 128,-1,5
 338 -4 338 -4 307 -4.5 c 128,-1,6
 276 -5 276 -5 208 -5 c 0,7,8
 110 -5 110 -5 72 58 c 128,-1,9
 34 121 34 121 34 268 c 0,10,11
 34 353 34 353 45.5 405 c 128,-1,12
 57 457 57 457 86.5 486 c 128,-1,13
 116 515 116 515 157 525 c 128,-1,14
 198 535 198 535 254.5 535 c 128,-1,15
 311 535 311 535 340.5 532.5 c 128,-1,16
 370 530 370 530 398.5 523 c 128,-1,17
 427 516 427 516 444 503 c 128,-1,18
 461 490 461 490 474 468 c 0,19,20
 498 429 498 429 498 340 c 0,21,22
 498 233 498 233 411 210 c 0,23,24
 383 202 383 202 346 202 c 2,25,-1
 198 202 l 1,26,27
 198 150 198 150 218.5 136 c 128,-1,28
 239 122 239 122 277 121 c 0,29,30
 286 121 286 121 298.5 121 c 128,-1,31
 311 121 311 121 314 121 c 0,0,1
297 313 m 2,32,33
 321 313 321 313 330 330 c 0,34,35
 334 338 334 338 334 354.5 c 128,-1,36
 334 371 334 371 332.5 382.5 c 128,-1,37
 331 394 331 394 325 402 c 0,38,39
 315 416 315 416 283 416 c 128,-1,40
 251 416 251 416 238 413.5 c 128,-1,41
 225 411 225 411 214 401 c 0,42,43
 197 385 197 385 197 323 c 0,44,45
 197 318 197 318 198 313 c 1,46,-1
 297 313 l 2,32,33
EndSplineSet
Substitution2: "'smcp' Lowercase to Small Capitals lookup 1 subtable" e.smcp
EndChar

StartChar: f
Encoding: 102 102 73
Width: 405
GlyphClass: 2
Flags: W
LayerCount: 2
Fore
SplineSet
13 412 m 1,0,-1
 13 514 l 1,1,-1
 92 531 l 1,2,-1
 92 630 l 2,3,4
 92 735 92 735 163 769 c 1,5,6
 201 786 201 786 270 786 c 128,-1,7
 339 786 339 786 392 762 c 1,8,-1
 392 666 l 1,9,-1
 306 668 l 2,10,11
 305 668 305 668 304 668 c 0,12,13
 271 668 271 668 263 653 c 128,-1,14
 255 638 255 638 255 594 c 1,15,-1
 256 585 l 1,16,-1
 256 531 l 1,17,-1
 366 531 l 1,18,-1
 366 412 l 1,19,-1
 256 412 l 1,20,-1
 256 0 l 1,21,-1
 92 0 l 1,22,-1
 92 412 l 1,23,-1
 13 412 l 1,0,-1
EndSplineSet
AlternateSubs2: "'salt' Stylistic Alternatives in Latin lookup 16 subtable" f.salt
Substitution2: "'smcp' Lowercase to Small Capitals lookup 1 subtable" f.smcp
EndChar

StartChar: g
Encoding: 103 103 74
Width: 563
GlyphClass: 2
Flags: W
LayerCount: 2
Fore
SplineSet
31 98 m 0,0,1
 31 174 31 174 94 196 c 1,2,3
 73 210 73 210 59 236 c 0,4,5
 35 281 35 281 35 344 c 0,6,7
 35 533 35 533 223 533 c 2,8,-1
 550 533 l 1,9,-1
 550 440 l 1,10,-1
 499 422 l 1,11,12
 512 388 512 388 513.5 365.5 c 128,-1,13
 515 343 515 343 515 315.5 c 128,-1,14
 515 288 515 288 506.5 259.5 c 128,-1,15
 498 231 498 231 479 205 c 0,16,17
 437 149 437 149 327 149 c 2,18,-1
 216 149 l 2,19,20
 185 149 185 149 180.5 142.5 c 128,-1,21
 176 136 176 136 176 124 c 0,22,23
 176 104 176 104 216 104 c 2,24,-1
 361 104 l 2,25,26
 440 104 440 104 484 63.5 c 128,-1,27
 528 23 528 23 528 -60 c 2,28,-1
 528 -116 l 2,29,30
 528 -185 528 -185 487.5 -227.5 c 128,-1,31
 447 -270 447 -270 356 -270 c 2,32,-1
 206 -270 l 2,33,34
 131 -270 131 -270 84.5 -231 c 128,-1,35
 38 -192 38 -192 38 -116 c 2,36,-1
 38 -55 l 1,37,-1
 87 -12 l 1,38,39
 64 -1 64 -1 47.5 27.5 c 128,-1,40
 31 56 31 56 31 98 c 0,0,1
203 -93 m 2,41,42
 203 -133 203 -133 227 -140 c 0,43,44
 238 -144 238 -144 258 -144 c 2,45,-1
 316 -144 l 2,46,47
 350 -144 350 -144 358 -129 c 0,48,49
 365 -118 365 -118 365 -96 c 2,50,-1
 365 -65 l 2,51,52
 365 -24 365 -24 319 -24 c 2,53,-1
 244 -24 l 1,54,-1
 203 -22 l 1,55,-1
 203 -93 l 2,41,42
202 376 m 128,-1,57
 199 364 199 364 199 341.5 c 128,-1,58
 199 319 199 319 204 304 c 0,59,60
 215 276 215 276 253 276 c 2,61,-1
 294 276 l 2,62,63
 326 276 326 276 338.5 291 c 128,-1,64
 351 306 351 306 351 342.5 c 128,-1,65
 351 379 351 379 337 392.5 c 128,-1,66
 323 406 323 406 293 406 c 2,67,-1
 253 406 l 2,68,69
 230 406 230 406 217.5 397 c 128,-1,56
 205 388 205 388 202 376 c 128,-1,57
EndSplineSet
AlternateSubs2: "'salt' Stylistic Alternatives in Latin lookup 16 subtable" g.salt
Substitution2: "'smcp' Lowercase to Small Capitals lookup 1 subtable" g.smcp
EndChar

StartChar: h
Encoding: 104 104 75
Width: 552
GlyphClass: 2
Flags: W
LayerCount: 2
Fore
SplineSet
40 0 m 1,0,-1
 40 782 l 1,1,-1
 204 782 l 1,2,-1
 204 476 l 1,3,4
 264 525 264 525 310 535 c 0,5,6
 334 540 334 540 372 540 c 128,-1,7
 410 540 410 540 442 525.5 c 128,-1,8
 474 511 474 511 490 483 c 0,9,10
 520 433 520 433 520 348 c 2,11,-1
 520 0 l 1,12,-1
 356 0 l 1,13,-1
 356 350 l 2,14,15
 356 385 356 385 344 399.5 c 128,-1,16
 332 414 332 414 302 414 c 0,17,18
 245 414 245 414 204 372 c 1,19,-1
 204 0 l 1,20,-1
 40 0 l 1,0,-1
EndSplineSet
Substitution2: "'smcp' Lowercase to Small Capitals lookup 1 subtable" h.smcp
EndChar

StartChar: i
Encoding: 105 105 76
Width: 238
GlyphClass: 2
Flags: W
LayerCount: 2
Fore
SplineSet
34 607 m 2,0,-1
 34 708 l 2,1,2
 34 734 34 734 58 734 c 2,3,-1
 182 734 l 2,4,5
 205 734 205 734 205 708 c 2,6,-1
 205 607 l 2,7,8
 205 584 205 584 182 584 c 2,9,-1
 58 584 l 2,10,11
 47 584 47 584 40.5 590.5 c 128,-1,12
 34 597 34 597 34 607 c 2,0,-1
37 0 m 1,13,-1
 37 531 l 1,14,-1
 201 531 l 1,15,-1
 201 0 l 1,16,-1
 37 0 l 1,13,-1
EndSplineSet
Substitution2: "'smcp' Lowercase to Small Capitals lookup 1 subtable" i.smcp
EndChar

StartChar: j
Encoding: 106 106 77
Width: 252
GlyphClass: 2
Flags: W
LayerCount: 2
Fore
SplineSet
40 607 m 2,0,-1
 40 708 l 2,1,2
 40 734 40 734 64 734 c 2,3,-1
 190 734 l 2,4,5
 200 734 200 734 206 726.5 c 128,-1,6
 212 719 212 719 212 708 c 2,7,-1
 212 607 l 2,8,9
 212 584 212 584 190 584 c 2,10,-1
 64 584 l 2,11,12
 54 584 54 584 47 590.5 c 128,-1,13
 40 597 40 597 40 607 c 2,0,-1
45 -270 m 1,14,-1
 45 531 l 1,15,-1
 209 531 l 1,16,-1
 209 -4 l 2,17,18
 209 -14 209 -14 209 -54 c 0,19,20
 209 -189 209 -189 168 -270 c 1,21,-1
 45 -270 l 1,14,-1
EndSplineSet
Substitution2: "'smcp' Lowercase to Small Capitals lookup 1 subtable" j.smcp
EndChar

StartChar: k
Encoding: 107 107 78
Width: 578
GlyphClass: 2
Flags: W
LayerCount: 2
Fore
SplineSet
40 0 m 1,0,-1
 40 782 l 1,1,-1
 204 782 l 1,2,-1
 204 357 l 1,3,-1
 230 357 l 1,4,-1
 361 531 l 1,5,-1
 566 531 l 1,6,-1
 380 298 l 1,7,-1
 566 0 l 1,8,-1
 372 0 l 1,9,-1
 230 238 l 1,10,-1
 204 238 l 1,11,-1
 204 0 l 1,12,-1
 40 0 l 1,0,-1
EndSplineSet
Substitution2: "'smcp' Lowercase to Small Capitals lookup 1 subtable" k.smcp
EndChar

StartChar: l
Encoding: 108 108 79
Width: 318
GlyphClass: 2
Flags: W
LayerCount: 2
Fore
SplineSet
40 189 m 2,0,-1
 40 783 l 1,1,-1
 204 783 l 1,2,-1
 204 219 l 2,3,4
 204 168 204 168 214.5 148.5 c 128,-1,5
 225 129 225 129 246 119 c 1,6,7
 299 98 299 98 306 98 c 1,8,-1
 306 0 l 1,9,-1
 180 0 l 2,10,11
 109 0 109 0 74.5 43.5 c 128,-1,12
 40 87 40 87 40 189 c 2,0,-1
EndSplineSet
Substitution2: "'smcp' Lowercase to Small Capitals lookup 1 subtable" l.smcp
EndChar

StartChar: m
Encoding: 109 109 80
Width: 867
GlyphClass: 2
Flags: W
LayerCount: 2
Fore
SplineSet
517 376 m 1,0,-1
 518 347 l 1,1,-1
 518 0 l 1,2,-1
 354 0 l 1,3,-1
 354 350 l 2,4,5
 354 413 354 413 306 413 c 0,6,7
 272 413 272 413 249 403.5 c 128,-1,8
 226 394 226 394 204 371 c 1,9,-1
 204 0 l 1,10,-1
 40 0 l 1,11,-1
 40 531 l 1,12,-1
 175 531 l 1,13,-1
 204 476 l 1,14,15
 269 527 269 527 310 535 c 0,16,17
 332 539 332 539 361 539 c 0,18,19
 461 539 461 539 496 474 c 1,20,21
 539 504 539 504 581.5 521.5 c 128,-1,22
 624 539 624 539 666.5 539 c 128,-1,23
 709 539 709 539 733.5 532.5 c 128,-1,24
 758 526 758 526 775 513.5 c 128,-1,25
 792 501 792 501 803.5 484 c 128,-1,26
 815 467 815 467 822 445 c 0,27,28
 834 403 834 403 834 346 c 2,29,-1
 834 0 l 1,30,-1
 670 0 l 1,31,-1
 670 350 l 2,32,33
 670 413 670 413 623 413 c 0,34,35
 553 413 553 413 517 376 c 1,0,-1
EndSplineSet
AlternateSubs2: "'salt' Stylistic Alternatives in Latin lookup 16 subtable" m.salt
Substitution2: "'smcp' Lowercase to Small Capitals lookup 1 subtable" m.smcp
EndChar

StartChar: n
Encoding: 110 110 81
Width: 552
GlyphClass: 2
Flags: W
LayerCount: 2
Fore
SplineSet
40 0 m 1,0,-1
 40 531 l 1,1,-1
 175 531 l 1,2,-1
 204 476 l 1,3,4
 232 498 232 498 247 508.5 c 128,-1,5
 262 519 262 519 293.5 529.5 c 128,-1,6
 325 540 325 540 367.5 540 c 128,-1,7
 410 540 410 540 442 525.5 c 128,-1,8
 474 511 474 511 490 483 c 0,9,10
 520 433 520 433 520 348 c 2,11,-1
 520 0 l 1,12,-1
 356 0 l 1,13,-1
 356 350 l 2,14,15
 356 396 356 396 334 408 c 0,16,17
 324 414 324 414 298 414 c 0,18,19
 245 414 245 414 204 372 c 1,20,-1
 204 0 l 1,21,-1
 40 0 l 1,0,-1
EndSplineSet
AlternateSubs2: "'salt' Stylistic Alternatives in Latin lookup 16 subtable" n.salt
Substitution2: "'smcp' Lowercase to Small Capitals lookup 1 subtable" n.smcp
EndChar

StartChar: o
Encoding: 111 111 82
Width: 557
GlyphClass: 2
Flags: W
LayerCount: 2
Fore
SplineSet
34 258 m 0,0,1
 34 367 34 367 58 427 c 128,-1,2
 82 487 82 487 133.5 511.5 c 128,-1,3
 185 536 185 536 279 536 c 0,4,5
 417 536 417 536 470.5 476 c 128,-1,6
 524 416 524 416 524 262.5 c 128,-1,7
 524 109 524 109 471.5 52 c 128,-1,8
 419 -5 419 -5 280.5 -5 c 128,-1,9
 142 -5 142 -5 88 54.5 c 128,-1,10
 34 114 34 114 34 258 c 0,0,1
198 245 m 128,-1,12
 198 196 198 196 205.5 167.5 c 128,-1,13
 213 139 213 139 228.5 130.5 c 128,-1,14
 244 122 244 122 273 122 c 128,-1,15
 302 122 302 122 314 124 c 128,-1,16
 326 126 326 126 336.5 132.5 c 128,-1,17
 347 139 347 139 351 155 c 0,18,19
 360 188 360 188 360 244.5 c 128,-1,20
 360 301 360 301 358 325.5 c 128,-1,21
 356 350 356 350 352 368.5 c 128,-1,22
 348 387 348 387 338 395 c 0,23,24
 310 417 310 417 248 408 c 0,25,26
 222 404 222 404 211 384 c 256,27,28
 200 364 200 364 199 329 c 128,-1,11
 198 294 198 294 198 245 c 128,-1,12
EndSplineSet
Substitution2: "'smcp' Lowercase to Small Capitals lookup 1 subtable" o.smcp
EndChar

StartChar: p
Encoding: 112 112 83
Width: 557
GlyphClass: 2
Flags: W
LayerCount: 2
Fore
SplineSet
40 -270 m 1,0,-1
 40 531 l 1,1,-1
 178 531 l 1,2,-1
 205 480 l 1,3,4
 274 537 274 537 359 537 c 128,-1,5
 444 537 444 537 484.5 469.5 c 128,-1,6
 525 402 525 402 525 268 c 0,7,8
 525 102 525 102 476 43 c 1,9,10
 435 -8 435 -8 353 -8 c 128,-1,11
 271 -8 271 -8 204 24 c 1,12,-1
 204 -270 l 1,13,-1
 40 -270 l 1,0,-1
303 115 m 0,14,15
 323 115 323 115 335 125 c 0,16,17
 361 147 361 147 361 244.5 c 128,-1,18
 361 342 361 342 347 371.5 c 128,-1,19
 333 401 333 401 303 401 c 0,20,21
 237 401 237 401 205 373 c 1,22,-1
 205 132 l 1,23,24
 239 115 239 115 303 115 c 0,14,15
EndSplineSet
AlternateSubs2: "'salt' Stylistic Alternatives in Latin lookup 16 subtable" p.salt
Substitution2: "'smcp' Lowercase to Small Capitals lookup 1 subtable" p.smcp
EndChar

StartChar: q
Encoding: 113 113 84
Width: 555
GlyphClass: 2
Flags: W
LayerCount: 2
Fore
SplineSet
77.5 57 m 128,-1,1
 34 124 34 124 34 266 c 128,-1,2
 34 408 34 408 84.5 472.5 c 128,-1,3
 135 537 135 537 232 537 c 0,4,5
 310 537 310 537 392.5 527.5 c 128,-1,6
 475 518 475 518 515 504 c 1,7,-1
 515 -270 l 1,8,-1
 351 -270 l 1,9,-1
 351 29 l 1,10,11
 306 -10 306 -10 232 -10 c 0,12,0
 121 -10 121 -10 77.5 57 c 128,-1,1
198 261 m 0,13,14
 198 236 198 236 198.5 215.5 c 128,-1,15
 199 195 199 195 202.5 172 c 128,-1,16
 206 149 206 149 214 139 c 1,17,18
 231 113 231 113 272.5 113.5 c 128,-1,19
 314 114 314 114 351 134 c 1,20,-1
 351 418 l 1,21,-1
 269 418 l 2,22,23
 229 418 229 418 210 378 c 1,24,25
 198 350 198 350 198 261 c 0,13,14
EndSplineSet
Substitution2: "'smcp' Lowercase to Small Capitals lookup 1 subtable" q.smcp
EndChar

StartChar: r
Encoding: 114 114 85
Width: 414
GlyphClass: 2
Flags: W
LayerCount: 2
Fore
SplineSet
40 0 m 1,0,-1
 40 531 l 1,1,-1
 182 531 l 1,2,-1
 204 464 l 1,3,4
 229 495 229 495 250.5 507.5 c 128,-1,5
 272 520 272 520 284 525 c 0,6,7
 311 536 311 536 344.5 536 c 128,-1,8
 378 536 378 536 394 530 c 1,9,-1
 394 373 l 1,10,11
 364 374 364 374 317.5 374 c 128,-1,12
 271 374 271 374 244.5 363 c 128,-1,13
 218 352 218 352 204 315 c 1,14,-1
 204 0 l 1,15,-1
 40 0 l 1,0,-1
EndSplineSet
AlternateSubs2: "'salt' Stylistic Alternatives in Latin lookup 16 subtable" r.salt
Substitution2: "'smcp' Lowercase to Small Capitals lookup 1 subtable" r.smcp
EndChar

StartChar: s
Encoding: 115 115 86
Width: 509
GlyphClass: 2
Flags: W
LayerCount: 2
Fore
SplineSet
26 343 m 2,0,-1
 26 389 l 2,1,2
 26 432 26 432 39 463.5 c 128,-1,3
 52 495 52 495 83.5 515.5 c 128,-1,4
 115 536 115 536 179.5 536 c 128,-1,5
 244 536 244 536 289.5 535 c 128,-1,6
 335 534 335 534 387 526.5 c 128,-1,7
 439 519 439 519 456 505 c 1,8,-1
 456 405 l 1,9,-1
 223 405 l 2,10,11
 204 405 204 405 197 399.5 c 128,-1,12
 190 394 190 394 190 377 c 2,13,-1
 190 361 l 2,14,15
 190 344 190 344 198 339.5 c 128,-1,16
 206 335 206 335 223 335 c 2,17,-1
 338 335 l 2,18,19
 389 335 389 335 422 315 c 0,20,21
 482 280 482 280 482 194 c 2,22,-1
 482 138 l 2,23,24
 482 63 482 63 445 29 c 128,-1,25
 408 -5 408 -5 352 -5 c 0,26,27
 272 -5 272 -5 224.5 -4 c 128,-1,28
 177 -3 177 -3 121 5 c 128,-1,29
 65 13 65 13 48 28 c 1,30,-1
 48 127 l 1,31,-1
 291 127 l 2,32,33
 318 127 318 127 318 153 c 2,34,-1
 318 169 l 2,35,36
 318 183 318 183 312.5 189.5 c 128,-1,37
 307 196 307 196 291 196 c 2,38,-1
 180 196 l 2,39,40
 26 196 26 196 26 343 c 2,0,-1
EndSplineSet
Substitution2: "'smcp' Lowercase to Small Capitals lookup 1 subtable" s.smcp
EndChar

StartChar: t
Encoding: 116 116 87
Width: 383
GlyphClass: 2
Flags: W
LayerCount: 2
Fore
SplineSet
13 413 m 1,0,-1
 13 499 l 1,1,-1
 94 532 l 1,2,-1
 120 680 l 1,3,-1
 258 680 l 1,4,-1
 258 532 l 1,5,-1
 364 532 l 1,6,-1
 364 413 l 1,7,-1
 258 413 l 1,8,-1
 258 220 l 2,9,10
 258 168 258 168 268 148 c 128,-1,11
 278 128 278 128 300 118 c 1,12,13
 352 98 352 98 358 98 c 1,14,-1
 358 0 l 1,15,-1
 224 0 l 2,16,17
 183 0 183 0 155 17 c 0,18,19
 94 56 94 56 94 190 c 2,20,-1
 94 413 l 1,21,-1
 13 413 l 1,0,-1
EndSplineSet
AlternateSubs2: "'salt' Stylistic Alternatives in Latin lookup 16 subtable" t.salt
Substitution2: "'smcp' Lowercase to Small Capitals lookup 1 subtable" t.smcp
EndChar

StartChar: u
Encoding: 117 117 88
Width: 552
GlyphClass: 2
Flags: W
LayerCount: 2
Fore
SplineSet
34 184 m 2,0,-1
 34 531 l 1,1,-1
 198 531 l 1,2,-1
 198 180 l 2,3,4
 198 135 198 135 219 123 c 0,5,6
 229 118 229 118 255 118 c 0,7,8
 308 118 308 118 348 160 c 1,9,-1
 348 531 l 1,10,-1
 512 531 l 1,11,-1
 512 0 l 1,12,-1
 378 0 l 1,13,-1
 348 54 l 1,14,15
 338 48 338 48 321 36.5 c 128,-1,16
 304 25 304 25 293.5 18.5 c 128,-1,17
 283 12 283 12 267 5 c 0,18,19
 237 -9 237 -9 190 -9 c 128,-1,20
 143 -9 143 -9 111 5.5 c 128,-1,21
 79 20 79 20 63 48 c 0,22,23
 34 98 34 98 34 184 c 2,0,-1
EndSplineSet
AlternateSubs2: "'salt' Stylistic Alternatives in Latin lookup 16 subtable" u.salt
Substitution2: "'smcp' Lowercase to Small Capitals lookup 1 subtable" u.smcp
EndChar

StartChar: v
Encoding: 118 118 89
Width: 575
GlyphClass: 2
Flags: W
LayerCount: 2
Fore
SplineSet
13 531 m 1,0,-1
 188 531 l 1,1,-1
 286 184 l 1,2,-1
 388 531 l 1,3,-1
 562 531 l 1,4,-1
 376 0 l 1,5,-1
 190 0 l 1,6,-1
 13 531 l 1,0,-1
EndSplineSet
Substitution2: "'smcp' Lowercase to Small Capitals lookup 1 subtable" v.smcp
EndChar

StartChar: w
Encoding: 119 119 90
Width: 835
GlyphClass: 2
Flags: W
LayerCount: 2
Fore
SplineSet
13 531 m 1,0,-1
 188 531 l 1,1,-1
 276 184 l 1,2,-1
 356 531 l 1,3,-1
 516 531 l 1,4,-1
 486 398 l 1,5,-1
 564 184 l 1,6,-1
 648 531 l 1,7,-1
 823 531 l 1,8,-1
 663 0 l 1,9,-1
 476 0 l 1,10,-1
 411 168 l 1,11,-1
 360 0 l 1,12,-1
 172 0 l 1,13,-1
 13 531 l 1,0,-1
EndSplineSet
Substitution2: "'smcp' Lowercase to Small Capitals lookup 1 subtable" w.smcp
EndChar

StartChar: x
Encoding: 120 120 91
Width: 590
GlyphClass: 2
Flags: W
LayerCount: 2
Fore
SplineSet
16 0 m 1,0,-1
 196 266 l 1,1,-1
 16 531 l 1,2,-1
 214 531 l 1,3,-1
 294 388 l 1,4,-1
 376 531 l 1,5,-1
 574 531 l 1,6,-1
 391 263 l 1,7,-1
 566 0 l 1,8,-1
 376 0 l 1,9,-1
 295 141 l 1,10,-1
 214 0 l 1,11,-1
 16 0 l 1,0,-1
EndSplineSet
AlternateSubs2: "'salt' Stylistic Alternatives in Latin lookup 16 subtable" x.salt
Substitution2: "'smcp' Lowercase to Small Capitals lookup 1 subtable" x.smcp
EndChar

StartChar: y
Encoding: 121 121 92
Width: 587
GlyphClass: 2
Flags: W
LayerCount: 2
Fore
SplineSet
14 531 m 1,0,-1
 185 531 l 1,1,-1
 263 175 l 1,2,3
 272 139 272 139 312 136 c 1,4,-1
 402 531 l 1,5,-1
 570 531 l 1,6,-1
 404 -168 l 1,7,-1
 332 -270 l 1,8,-1
 213 -270 l 1,9,-1
 281 0 l 1,10,11
 145 0 145 0 109 144 c 2,12,-1
 14 531 l 1,0,-1
EndSplineSet
Substitution2: "'smcp' Lowercase to Small Capitals lookup 1 subtable" y.smcp
EndChar

StartChar: z
Encoding: 122 122 93
Width: 480
GlyphClass: 2
Flags: W
LayerCount: 2
Fore
SplineSet
20 397 m 1,0,-1
 20 531 l 1,1,-1
 461 531 l 1,2,-1
 461 397 l 1,3,-1
 254 135 l 1,4,-1
 461 135 l 1,5,-1
 461 1 l 1,6,-1
 35 1 l 1,7,-1
 35 134 l 1,8,-1
 255 397 l 1,9,-1
 20 397 l 1,0,-1
EndSplineSet
Substitution2: "'smcp' Lowercase to Small Capitals lookup 1 subtable" z.smcp
EndChar

StartChar: braceleft
Encoding: 123 123 94
Width: 321
GlyphClass: 2
Flags: W
LayerCount: 2
Fore
SplineSet
81 446 m 2,0,-1
 81 656 l 2,1,2
 81 744 81 744 137.5 793 c 128,-1,3
 194 842 194 842 308 842 c 1,4,-1
 308 708 l 1,5,6
 272 708 272 708 258.5 685.5 c 128,-1,7
 245 663 245 663 245 596 c 2,8,-1
 245 435 l 2,9,10
 245 344 245 344 145 334 c 1,11,12
 191 325 191 325 217.5 300 c 128,-1,13
 244 275 244 275 244 236 c 2,14,-1
 244 14 l 2,15,16
 244 -37 244 -37 257.5 -60.5 c 128,-1,17
 271 -84 271 -84 306 -84 c 0,18,19
 307 -84 307 -84 308 -84 c 1,20,-1
 308 -210 l 1,21,22
 185 -210 185 -210 132.5 -167.5 c 128,-1,23
 80 -125 80 -125 80 -38 c 2,24,-1
 80 221 l 2,25,26
 80 248 80 248 63 261 c 128,-1,27
 46 274 46 274 21 274 c 0,28,29
 17 274 17 274 13 274 c 1,30,-1
 13 393 l 1,31,32
 44 396 44 396 62.5 407 c 128,-1,33
 81 418 81 418 81 446 c 2,0,-1
EndSplineSet
EndChar

StartChar: bar
Encoding: 124 124 95
Width: 248
GlyphClass: 2
Flags: W
LayerCount: 2
Fore
SplineSet
58 -72 m 1,0,-1
 58 770 l 1,1,-1
 192 770 l 1,2,-1
 192 -72 l 1,3,-1
 58 -72 l 1,0,-1
EndSplineSet
EndChar

StartChar: braceright
Encoding: 125 125 96
Width: 321
GlyphClass: 2
Flags: W
LayerCount: 2
Fore
SplineSet
15 -84 m 0,0,1
 51 -84 51 -84 64.5 -60.5 c 128,-1,2
 78 -37 78 -37 78 14 c 2,3,-1
 78 236 l 2,4,5
 78 275 78 275 104 300 c 128,-1,6
 130 325 130 325 177 334 c 1,7,8
 77 344 77 344 77 435 c 2,9,-1
 77 596 l 2,10,11
 77 681 77 681 51 699 c 0,12,13
 38 708 38 708 13 708 c 1,14,-1
 13 842 l 1,15,16
 127 842 127 842 184 793 c 128,-1,17
 241 744 241 744 241 656 c 2,18,-1
 241 446 l 2,19,20
 241 427 241 427 251.5 415 c 128,-1,21
 262 403 262 403 275.5 399 c 128,-1,22
 289 395 289 395 308 393 c 1,23,-1
 308 274 l 1,24,25
 304 274 304 274 300 274 c 0,26,27
 276 274 276 274 259 261 c 128,-1,28
 242 248 242 248 242 221 c 2,29,-1
 242 -38 l 2,30,31
 242 -125 242 -125 189.5 -167.5 c 128,-1,32
 137 -210 137 -210 13 -210 c 1,33,-1
 13 -84 l 1,34,35
 14 -84 14 -84 15 -84 c 0,0,1
EndSplineSet
EndChar

StartChar: asciitilde
Encoding: 126 126 97
Width: 412
GlyphClass: 2
Flags: W
LayerCount: 2
Fore
SplineSet
155 664 m 0,0,1
 178 664 178 664 210 646.5 c 128,-1,2
 242 629 242 629 261 629 c 0,3,4
 263 629 263 629 265 629 c 0,5,6
 311 629 311 629 354 669 c 1,7,-1
 379 603 l 1,8,9
 325 531 325 531 266 531 c 0,10,11
 244 531 244 531 207.5 548.5 c 128,-1,12
 171 566 171 566 148 566 c 128,-1,13
 125 566 125 566 106.5 558 c 128,-1,14
 88 550 88 550 59 531 c 1,15,-1
 34 592 l 1,16,17
 93 664 93 664 155 664 c 0,0,1
EndSplineSet
EndChar

StartChar: exclamdown
Encoding: 161 161 98
Width: 278
GlyphClass: 2
Flags: W
LayerCount: 2
Fore
SplineSet
65 338 m 2,0,-1
 65 438 l 2,1,2
 65 459 65 459 89 461 c 1,3,-1
 187 461 l 1,4,5
 196 460 196 460 203.5 452.5 c 128,-1,6
 211 445 211 445 211 435 c 2,7,-1
 211 339 l 1,8,9
 210 312 210 312 188 312 c 2,10,-1
 89 312 l 2,11,12
 65 312 65 312 65 338 c 2,0,-1
57 -270 m 1,13,-1
 74 264 l 1,14,-1
 203 264 l 1,15,-1
 219 -270 l 1,16,-1
 57 -270 l 1,13,-1
EndSplineSet
Substitution2: "'case' Case-Sensitive Forms lookup 18 subtable" exclamdown.alt
Substitution2: "'smcp' Lowercase to Small Capitals lookup 1 subtable" exclamdown.smcp
EndChar

StartChar: cent
Encoding: 162 162 99
Width: 486
GlyphClass: 2
Flags: W
LayerCount: 2
Fore
SplineSet
39 134 m 0,0,1
 26 188 26 188 26 266.5 c 128,-1,2
 26 345 26 345 39 399 c 0,3,4
 72 537 72 537 203 537 c 0,5,6
 205 537 205 537 206 536 c 1,7,-1
 206 634 l 1,8,-1
 302 634 l 1,9,-1
 302 534 l 1,10,11
 388 526 388 526 453 502 c 1,12,-1
 453 404 l 1,13,14
 372 410 372 410 317.5 410 c 128,-1,15
 263 410 263 410 253 409 c 128,-1,16
 243 408 243 408 230 404 c 128,-1,17
 217 400 217 400 211.5 391 c 128,-1,18
 206 382 206 382 200 366 c 0,19,20
 190 339 190 339 190 281.5 c 128,-1,21
 190 224 190 224 193.5 199 c 128,-1,22
 197 174 197 174 202.5 157.5 c 128,-1,23
 208 141 208 141 220 134 c 0,24,25
 240 121 240 121 282 121 c 0,26,27
 365 121 365 121 436 128 c 2,28,-1
 459 130 l 1,29,-1
 459 30 l 1,30,31
 400 -4 400 -4 299 -6 c 1,32,-1
 299 -95 l 1,33,-1
 203 -95 l 1,34,-1
 203 -6 l 1,35,36
 72 -4 72 -4 39 134 c 0,0,1
EndSplineSet
EndChar

StartChar: sterling
Encoding: 163 163 100
Width: 578
GlyphClass: 2
Flags: W
LayerCount: 2
Fore
SplineSet
34 0 m 1,0,-1
 34 126 l 1,1,-1
 98 149 l 1,2,-1
 98 308 l 1,3,-1
 34 308 l 1,4,-1
 34 390 l 1,5,-1
 98 414 l 1,6,-1
 98 475 l 2,7,8
 98 602 98 602 143 662 c 0,9,10
 183 715 183 715 272 727 c 0,11,12
 309 732 309 732 349 732 c 0,13,14
 414 732 414 732 512 720 c 2,15,-1
 544 716 l 1,16,-1
 544 584 l 1,17,-1
 358 584 l 2,18,19
 299 584 299 584 280.5 568.5 c 128,-1,20
 262 553 262 553 262 492 c 2,21,-1
 262 414 l 1,22,-1
 466 398 l 1,23,-1
 466 308 l 1,24,-1
 262 308 l 1,25,-1
 262 149 l 1,26,-1
 544 149 l 1,27,-1
 544 0 l 1,28,-1
 34 0 l 1,0,-1
EndSplineSet
Substitution2: "'smcp' Lowercase to Small Capitals lookup 1 subtable" sterling.smcp
EndChar

StartChar: currency
Encoding: 164 164 101
Width: 442
GlyphClass: 2
Flags: W
LayerCount: 2
Fore
SplineSet
133 442 m 1,0,1
 173 469 173 469 220.5 469 c 128,-1,2
 268 469 268 469 308 443 c 1,3,-1
 354 490 l 1,4,-1
 408 441 l 1,5,-1
 359 390 l 1,6,7
 380 354 380 354 380 306 c 128,-1,8
 380 258 380 258 350 217 c 1,9,-1
 398 172 l 1,10,-1
 348 116 l 1,11,-1
 294 168 l 1,12,13
 260 150 260 150 218 150 c 128,-1,14
 176 150 176 150 138 175 c 1,15,-1
 91 127 l 1,16,-1
 38 179 l 1,17,-1
 86 228 l 1,18,19
 64 268 64 268 64 310.5 c 128,-1,20
 64 353 64 353 84 387 c 1,21,-1
 34 434 l 1,22,-1
 86 487 l 1,23,-1
 133 442 l 1,0,1
170.5 362 m 128,-1,25
 149 340 149 340 149 317.5 c 128,-1,26
 149 295 149 295 154.5 281.5 c 128,-1,27
 160 268 160 268 170 258 c 0,28,29
 191 236 191 236 221.5 236 c 128,-1,30
 252 236 252 236 273.5 257.5 c 128,-1,31
 295 279 295 279 295 309.5 c 128,-1,32
 295 340 295 340 273.5 362 c 128,-1,33
 252 384 252 384 222 384 c 128,-1,24
 192 384 192 384 170.5 362 c 128,-1,25
EndSplineSet
EndChar

StartChar: yen
Encoding: 165 165 102
Width: 646
GlyphClass: 2
Flags: W
LayerCount: 2
Fore
SplineSet
531 344 m 1,0,-1
 531 254 l 1,1,-1
 397 254 l 1,2,-1
 397 223 l 1,3,-1
 531 223 l 1,4,-1
 531 134 l 1,5,-1
 397 134 l 1,6,-1
 397 0 l 1,7,-1
 233 0 l 1,8,-1
 233 134 l 1,9,-1
 104 134 l 1,10,-1
 104 223 l 1,11,-1
 233 223 l 1,12,-1
 233 254 l 1,13,-1
 104 254 l 1,14,-1
 104 344 l 1,15,-1
 187 344 l 1,16,-1
 13 732 l 1,17,-1
 192 732 l 1,18,-1
 318 404 l 1,19,-1
 454 732 l 1,20,-1
 633 732 l 1,21,-1
 446 344 l 1,22,-1
 531 344 l 1,0,-1
EndSplineSet
Substitution2: "'smcp' Lowercase to Small Capitals lookup 1 subtable" yen.smcp
EndChar

StartChar: brokenbar
Encoding: 166 166 103
Width: 249
GlyphClass: 2
Flags: W
LayerCount: 2
Fore
SplineSet
58 -72 m 1,0,-1
 58 256 l 1,1,-1
 192 256 l 1,2,-1
 192 -72 l 1,3,-1
 58 -72 l 1,0,-1
58 429 m 1,4,-1
 58 770 l 1,5,-1
 192 770 l 1,6,-1
 192 429 l 1,7,-1
 58 429 l 1,4,-1
EndSplineSet
EndChar

StartChar: section
Encoding: 167 167 104
Width: 537
GlyphClass: 2
Flags: W
LayerCount: 2
Fore
SplineSet
38 330 m 2,0,-1
 38 355 l 1,1,2
 38 355 38 355 38 361 c 0,3,4
 38 431 38 431 66 457 c 0,5,6
 81 471 81 471 104 478 c 1,7,8
 37 509 37 509 37 590 c 2,9,-1
 37 630 l 2,10,11
 37 704 37 704 74.5 744 c 128,-1,12
 112 784 112 784 182 784 c 0,13,14
 382 784 382 784 464 765 c 1,15,-1
 464 650 l 1,16,-1
 234 650 l 2,17,18
 201 650 201 650 201 620 c 2,19,-1
 201 598 l 2,20,21
 201 567 201 567 236 567 c 2,22,-1
 338 567 l 2,23,24
 423 567 423 567 462.5 537 c 128,-1,25
 502 507 502 507 502 442 c 2,26,-1
 502 417 l 2,27,28
 502 322 502 322 437 302 c 1,29,30
 477 296 477 296 490 259 c 0,31,32
 500 229 500 229 500 198 c 2,33,-1
 500 148 l 2,34,35
 500 57 500 57 455 22 c 0,36,37
 416 -8 416 -8 362 -8 c 0,38,39
 144 -8 144 -8 74 11 c 1,40,-1
 74 126 l 1,41,-1
 301 126 l 2,42,43
 326 126 326 126 331.5 134 c 128,-1,44
 337 142 337 142 337 153 c 2,45,-1
 337 180 l 2,46,47
 337 196 337 196 329 202 c 128,-1,48
 321 208 321 208 302 208 c 2,49,-1
 197 208 l 2,50,51
 119 208 119 208 78.5 235 c 128,-1,52
 38 262 38 262 38 330 c 2,0,-1
201 371 m 2,53,54
 201 348 201 348 210.5 341 c 128,-1,55
 220 334 220 334 242 334 c 2,56,-1
 294 334 l 2,57,58
 322 334 322 334 329.5 342 c 128,-1,59
 337 350 337 350 337 372 c 2,60,-1
 337 401 l 2,61,62
 337 432 337 432 318 438 c 0,63,64
 309 440 309 440 294 440 c 2,65,-1
 242 440 l 2,66,67
 216 440 216 440 208.5 431 c 128,-1,68
 201 422 201 422 201 399 c 2,69,-1
 201 371 l 2,53,54
EndSplineSet
EndChar

StartChar: dieresis
Encoding: 168 168 105
Width: 445
GlyphClass: 2
Flags: W
LayerCount: 2
Fore
SplineSet
34 581.5 m 128,-1,1
 34 607 34 607 52 625 c 128,-1,2
 70 643 70 643 95.5 643 c 128,-1,3
 121 643 121 643 139 625.5 c 128,-1,4
 157 608 157 608 157 582 c 128,-1,5
 157 556 157 556 139 538 c 128,-1,6
 121 520 121 520 95.5 520 c 128,-1,7
 70 520 70 520 52 538 c 128,-1,0
 34 556 34 556 34 581.5 c 128,-1,1
288 581.5 m 128,-1,9
 288 607 288 607 306.5 625 c 128,-1,10
 325 643 325 643 350.5 643 c 128,-1,11
 376 643 376 643 394 625.5 c 128,-1,12
 412 608 412 608 412 582 c 128,-1,13
 412 556 412 556 394 538 c 128,-1,14
 376 520 376 520 350.5 520 c 128,-1,15
 325 520 325 520 306.5 538 c 128,-1,8
 288 556 288 556 288 581.5 c 128,-1,9
EndSplineSet
Substitution2: "'smcp' Lowercase to Small Capitals lookup 1 subtable" dieresis.smcp
EndChar

StartChar: copyright
Encoding: 169 169 106
Width: 796
GlyphClass: 2
Flags: W
LayerCount: 2
Fore
SplineSet
86 619 m 0,0,1
 144 732 144 732 302 732 c 2,2,-1
 519 732 l 2,3,4
 578 732 578 732 621.5 712 c 128,-1,5
 665 692 665 692 691 659.5 c 128,-1,6
 717 627 717 627 733 579 c 0,7,8
 760 496 760 496 760 372 c 128,-1,9
 760 248 760 248 731 165 c 0,10,11
 674 0 674 0 519 0 c 2,12,-1
 302 0 l 2,13,14
 167 0 167 0 102 103 c 128,-1,15
 37 206 37 206 37 364 c 128,-1,16
 37 522 37 522 86 619 c 0,0,1
138 368 m 0,17,18
 138 245 138 245 179 169.5 c 128,-1,19
 220 94 220 94 302 94 c 2,20,-1
 512 94 l 2,21,22
 659 94 659 94 659 368 c 0,23,24
 659 519 659 519 625 578 c 0,25,26
 611 603 611 603 584 620.5 c 128,-1,27
 557 638 557 638 519 638 c 2,28,-1
 302 638 l 2,29,30
 230 638 230 638 187 587 c 0,31,32
 138 528 138 528 138 368 c 0,17,18
364 583 m 0,33,34
 477 583 477 583 550 559 c 1,35,-1
 550 477 l 1,36,37
 466 489 466 489 394 489 c 0,38,39
 354 489 354 489 338 462 c 128,-1,40
 322 435 322 435 322 377 c 128,-1,41
 322 319 322 319 330 293 c 0,42,43
 345 241 345 241 400 241 c 0,44,45
 470 241 470 241 556 257 c 1,46,-1
 556 175 l 1,47,48
 496 147 496 147 371 147 c 0,49,50
 288 147 288 147 251 212 c 1,51,52
 220 264 220 264 220 373 c 0,53,54
 220 583 220 583 364 583 c 0,33,34
EndSplineSet
EndChar

StartChar: ordfeminine
Encoding: 170 170 107
Width: 367
GlyphClass: 3
Flags: W
LayerCount: 2
Fore
SplineSet
20 260 m 1,0,-1
 20 334 l 1,1,-1
 348 334 l 1,2,-1
 348 260 l 1,3,-1
 20 260 l 1,0,-1
32 710 m 1,4,5
 99 738 99 738 184.5 738 c 128,-1,6
 270 738 270 738 308.5 712.5 c 128,-1,7
 347 687 347 687 347 621 c 2,8,-1
 347 378 l 1,9,-1
 250 378 l 1,10,-1
 222 421 l 1,11,12
 217 407 217 407 191 390.5 c 128,-1,13
 165 374 165 374 134 374 c 0,14,15
 77 374 77 374 48.5 403 c 128,-1,16
 20 432 20 432 20 468 c 2,17,-1
 20 498 l 2,18,19
 20 540 20 540 47 567.5 c 128,-1,20
 74 595 74 595 126.5 595 c 128,-1,21
 179 595 179 595 200.5 595 c 128,-1,22
 222 595 222 595 222 595 c 1,23,24
 224 620 224 620 217 630 c 128,-1,25
 210 640 210 640 201 642 c 128,-1,26
 192 644 192 644 167 644 c 128,-1,27
 142 644 142 644 111 642 c 128,-1,28
 80 640 80 640 58.5 637.5 c 128,-1,29
 37 635 37 635 32 635 c 1,30,-1
 32 710 l 1,4,5
168 462 m 0,31,32
 204 462 204 462 222 484 c 1,33,-1
 222 533 l 1,34,-1
 162 528 l 2,35,36
 145 527 145 527 140.5 519 c 128,-1,37
 136 511 136 511 136 498 c 2,38,-1
 136 488 l 2,39,40
 136 471 136 471 144.5 466.5 c 128,-1,41
 153 462 153 462 168 462 c 0,31,32
EndSplineSet
Substitution2: "'smcp' Lowercase to Small Capitals lookup 1 subtable" ordfeminine.smcp
Ligature2: "'ordn' Ordinals lookup 0 subtable" a
EndChar

StartChar: guillemotleft
Encoding: 171 171 108
Width: 592
GlyphClass: 2
Flags: W
LayerCount: 2
Fore
SplineSet
34 354 m 1,0,-1
 240 557 l 1,1,-1
 325 473 l 1,2,-1
 204 354 l 1,3,-1
 327 232 l 1,4,-1
 244 146 l 1,5,-1
 34 354 l 1,0,-1
265 354 m 1,6,-1
 471 557 l 1,7,-1
 557 473 l 1,8,-1
 436 354 l 1,9,-1
 559 232 l 1,10,-1
 476 146 l 1,11,-1
 265 354 l 1,6,-1
EndSplineSet
EndChar

StartChar: logicalnot
Encoding: 172 172 109
Width: 482
GlyphClass: 2
Flags: W
LayerCount: 2
Fore
SplineSet
28 234 m 1,0,-1
 28 360 l 1,1,-1
 454 360 l 1,2,-1
 454 159 l 1,3,-1
 328 159 l 1,4,-1
 328 234 l 1,5,-1
 28 234 l 1,0,-1
EndSplineSet
EndChar

StartChar: uni00AD
Encoding: 173 173 110
Width: 354
GlyphClass: 2
Flags: W
LayerCount: 2
Fore
SplineSet
20 223 m 1,0,-1
 20 357 l 1,1,-1
 334 357 l 1,2,-1
 334 223 l 1,3,-1
 20 223 l 1,0,-1
EndSplineSet
Substitution2: "'case' Case-Sensitive Forms lookup 18 subtable" uni00AD.alt
Substitution2: "'c2sc' Capitals to Small Capitals in Latin lookup 2 subtable" uni00AD.smcp
Substitution2: "'smcp' Lowercase to Small Capitals lookup 1 subtable" uni00AD.smcp
EndChar

StartChar: registered
Encoding: 174 174 111
Width: 796
GlyphClass: 2
Flags: W
LayerCount: 2
Fore
SplineSet
86 619 m 0,0,1
 144 732 144 732 302 732 c 2,2,-1
 519 732 l 2,3,4
 578 732 578 732 621.5 712 c 128,-1,5
 665 692 665 692 691 659.5 c 128,-1,6
 717 627 717 627 733 579 c 0,7,8
 760 496 760 496 760 372 c 128,-1,9
 760 248 760 248 731 165 c 0,10,11
 674 0 674 0 519 0 c 2,12,-1
 302 0 l 2,13,14
 167 0 167 0 102 103 c 128,-1,15
 37 206 37 206 37 364 c 128,-1,16
 37 522 37 522 86 619 c 0,0,1
138 368 m 0,17,18
 138 245 138 245 179 169.5 c 128,-1,19
 220 94 220 94 302 94 c 2,20,-1
 512 94 l 2,21,22
 659 94 659 94 659 368 c 0,23,24
 659 519 659 519 625 578 c 0,25,26
 611 603 611 603 584 620.5 c 128,-1,27
 557 638 557 638 519 638 c 2,28,-1
 302 638 l 2,29,30
 230 638 230 638 187 587 c 0,31,32
 138 528 138 528 138 368 c 0,17,18
243 153 m 1,33,-1
 243 580 l 1,34,-1
 428 580 l 2,35,36
 562 580 562 580 562 444 c 0,37,38
 562 384 562 384 543.5 354.5 c 128,-1,39
 525 325 525 325 490 314 c 1,40,-1
 575 153 l 1,41,-1
 466 153 l 1,42,-1
 386 308 l 1,43,-1
 344 320 l 1,44,-1
 344 153 l 1,45,-1
 243 153 l 1,33,-1
344 394 m 1,46,-1
 404 394 l 2,47,48
 442 394 442 394 451 402.5 c 128,-1,49
 460 411 460 411 460 441 c 128,-1,50
 460 471 460 471 448.5 478.5 c 128,-1,51
 437 486 437 486 404 486 c 2,52,-1
 344 486 l 1,53,-1
 344 394 l 1,46,-1
EndSplineSet
EndChar

StartChar: macron
Encoding: 175 175 112
Width: 359
GlyphClass: 2
Flags: W
LayerCount: 2
Fore
SplineSet
34 531 m 1,0,-1
 34 616 l 1,1,-1
 326 616 l 1,2,-1
 326 531 l 1,3,-1
 34 531 l 1,0,-1
EndSplineSet
Substitution2: "'smcp' Lowercase to Small Capitals lookup 1 subtable" macron.smcp
EndChar

StartChar: degree
Encoding: 176 176 113
Width: 270
GlyphClass: 2
Flags: W
LayerCount: 2
Fore
SplineSet
34 632 m 128,-1,1
 34 660 34 660 47.5 683.5 c 128,-1,2
 61 707 61 707 84.5 721 c 128,-1,3
 108 735 108 735 135.5 735 c 128,-1,4
 163 735 163 735 186.5 721 c 128,-1,5
 210 707 210 707 223 683.5 c 128,-1,6
 236 660 236 660 236 632 c 128,-1,7
 236 604 236 604 223 580.5 c 128,-1,8
 210 557 210 557 186.5 543.5 c 128,-1,9
 163 530 163 530 135.5 530 c 128,-1,10
 108 530 108 530 84.5 543.5 c 128,-1,11
 61 557 61 557 47.5 580.5 c 128,-1,0
 34 604 34 604 34 632 c 128,-1,1
95 632 m 128,-1,13
 95 615 95 615 107 603.5 c 128,-1,14
 119 592 119 592 135.5 592 c 128,-1,15
 152 592 152 592 163.5 603.5 c 128,-1,16
 175 615 175 615 175 632 c 128,-1,17
 175 649 175 649 163.5 661 c 128,-1,18
 152 673 152 673 135.5 673 c 128,-1,19
 119 673 119 673 107 661 c 128,-1,12
 95 649 95 649 95 632 c 128,-1,13
EndSplineSet
Substitution2: "'smcp' Lowercase to Small Capitals lookup 1 subtable" degree.smcp
EndChar

StartChar: plusminus
Encoding: 177 177 114
Width: 491
GlyphClass: 2
Flags: W
LayerCount: 2
Fore
SplineSet
38 64 m 1,0,-1
 38 198 l 1,1,-1
 454 198 l 1,2,-1
 454 64 l 1,3,-1
 38 64 l 1,0,-1
38 380 m 1,4,-1
 38 514 l 1,5,-1
 178 514 l 1,6,-1
 178 654 l 1,7,-1
 312 654 l 1,8,-1
 312 514 l 1,9,-1
 454 514 l 1,10,-1
 454 380 l 1,11,-1
 312 380 l 1,12,-1
 312 238 l 1,13,-1
 178 238 l 1,14,-1
 178 380 l 1,15,-1
 38 380 l 1,4,-1
EndSplineSet
EndChar

StartChar: twosuperior
Encoding: 178 178 115
Width: 405
GlyphClass: 2
Flags: W
LayerCount: 2
Fore
SplineSet
21 745 m 2,0,1
 20 745 20 745 20 772 c 128,-1,2
 20 799 20 799 21 815 c 1,3,-1
 21 838 l 1,4,5
 123 859 123 859 226 859 c 0,6,7
 302 859 302 859 339.5 818.5 c 128,-1,8
 377 778 377 778 377 710 c 0,9,10
 377 611 377 611 214 482 c 1,11,-1
 377 482 l 1,12,-1
 377 368 l 1,13,-1
 24 368 l 1,14,-1
 24 477 l 1,15,16
 86 517 86 517 142 563 c 0,17,18
 252 653 252 653 252 696 c 0,19,20
 252 725 252 725 235 735 c 128,-1,21
 218 745 218 745 175 745 c 2,22,-1
 21 745 l 2,0,1
EndSplineSet
EndChar

StartChar: threesuperior
Encoding: 179 179 116
Width: 409
GlyphClass: 2
Flags: W
LayerCount: 2
Fore
SplineSet
197 363 m 2,0,1
 79 363 79 363 24 383 c 1,2,-1
 25 476 l 1,3,-1
 178 477 l 2,4,5
 219 477 219 477 232 482.5 c 128,-1,6
 245 488 245 488 245 508 c 2,7,-1
 245 517 l 2,8,9
 245 537 245 537 230.5 544.5 c 128,-1,10
 216 552 216 552 182 552 c 1,11,-1
 66 558 l 1,12,-1
 66 658 l 1,13,-1
 182 666 l 1,14,15
 218 666 218 666 232.5 673 c 128,-1,16
 247 680 247 680 247 699 c 2,17,-1
 247 707 l 2,18,19
 247 733 247 733 216 738 c 0,20,21
 203 740 203 740 182 740 c 2,22,-1
 20 740 l 1,23,-1
 20 833 l 1,24,25
 78 854 78 854 208 854 c 0,26,27
 224 854 224 854 247 853.5 c 128,-1,28
 270 853 270 853 294.5 844.5 c 128,-1,29
 319 836 319 836 335 820 c 0,30,31
 370 787 370 787 370 732 c 2,32,-1
 370 703 l 2,33,34
 370 628 370 628 310 608 c 1,35,36
 370 589 370 589 370 508 c 2,37,-1
 370 486 l 2,38,39
 370 427 370 427 336 395 c 128,-1,40
 302 363 302 363 236 363 c 2,41,-1
 197 363 l 2,0,1
EndSplineSet
EndChar

StartChar: acute
Encoding: 180 180 117
Width: 243
GlyphClass: 2
Flags: W
LayerCount: 2
Fore
SplineSet
13 531 m 1,0,-1
 98 672 l 1,1,-1
 230 672 l 1,2,-1
 112 531 l 1,3,-1
 13 531 l 1,0,-1
EndSplineSet
Substitution2: "'smcp' Lowercase to Small Capitals lookup 1 subtable" acute.smcp
EndChar

StartChar: uni00B5
Encoding: 181 181 118
Width: 586
GlyphClass: 2
Flags: W
LayerCount: 2
Fore
SplineSet
225 180 m 2,0,1
 225 118 225 118 272 118 c 0,2,3
 307 118 307 118 330.5 127.5 c 128,-1,4
 354 137 354 137 376 160 c 1,5,-1
 376 531 l 1,6,-1
 540 531 l 1,7,-1
 540 0 l 1,8,-1
 405 0 l 1,9,-1
 376 54 l 1,10,11
 371 51 371 51 352 39 c 128,-1,12
 333 27 333 27 325 23 c 0,13,14
 283 -1 283 -1 241 -1 c 0,15,16
 233 -1 233 -1 225 0 c 1,17,-1
 225 -270 l 1,18,-1
 61 -270 l 1,19,-1
 61 531 l 1,20,-1
 225 531 l 1,21,-1
 225 180 l 2,0,1
EndSplineSet
EndChar

StartChar: paragraph
Encoding: 182 182 119
Width: 575
GlyphClass: 2
Flags: W
LayerCount: 2
Fore
SplineSet
26 499 m 2,0,-1
 26 592 l 2,1,2
 26 661 26 661 69 696.5 c 128,-1,3
 112 732 112 732 182 732 c 2,4,-1
 563 732 l 1,5,-1
 563 618 l 1,6,-1
 516 618 l 1,7,-1
 516 0 l 1,8,-1
 404 0 l 1,9,-1
 404 620 l 1,10,-1
 348 620 l 1,11,-1
 348 -270 l 1,12,-1
 236 -270 l 1,13,-1
 236 372 l 1,14,15
 236 372 236 372 228 367 c 0,16,17
 210 355 210 355 182 355 c 0,18,19
 104 355 104 355 65 395.5 c 128,-1,20
 26 436 26 436 26 499 c 2,0,-1
138 514 m 2,21,22
 138 482 138 482 154 474 c 1,23,24
 167 466 167 466 190 466 c 2,25,-1
 236 466 l 1,26,-1
 236 620 l 1,27,-1
 190 620 l 2,28,29
 157 620 157 620 147.5 608.5 c 128,-1,30
 138 597 138 597 138 566 c 2,31,-1
 138 514 l 2,21,22
EndSplineSet
EndChar

StartChar: periodcentered
Encoding: 183 183 120
Width: 260
GlyphClass: 2
Flags: W
LayerCount: 2
Fore
SplineSet
57 334 m 2,0,-1
 57 436 l 2,1,2
 57 462 57 462 81 462 c 2,3,-1
 179 462 l 2,4,5
 204 462 204 462 204 436 c 2,6,-1
 204 334 l 2,7,8
 204 312 204 312 179 312 c 2,9,-1
 81 312 l 2,10,11
 65 312 65 312 59 325 c 0,12,13
 57 329 57 329 57 334 c 2,0,-1
EndSplineSet
Substitution2: "'smcp' Lowercase to Small Capitals lookup 1 subtable" periodcentered.smcp
EndChar

StartChar: cedilla
Encoding: 184 184 121
Width: 241
GlyphClass: 2
Flags: W
LayerCount: 2
Fore
SplineSet
104 -37 m 1,0,-1
 208 -37 l 1,1,2
 208 -115 208 -115 182.5 -147.5 c 128,-1,3
 157 -180 157 -180 92 -180 c 2,4,-1
 34 -180 l 1,5,-1
 34 -112 l 1,6,-1
 74 -97 l 1,7,8
 94 -88 94 -88 99 -77.5 c 128,-1,9
 104 -67 104 -67 104 -37 c 1,0,-1
EndSplineSet
EndChar

StartChar: onesuperior
Encoding: 185 185 122
Width: 270
GlyphClass: 2
Flags: W
LayerCount: 2
Fore
SplineSet
227 852 m 1,0,-1
 227 368 l 1,1,-1
 102 368 l 1,2,-1
 102 743 l 1,3,-1
 11 725 l 1,4,-1
 11 797 l 1,5,-1
 104 852 l 1,6,-1
 227 852 l 1,0,-1
EndSplineSet
EndChar

StartChar: ordmasculine
Encoding: 186 186 123
Width: 396
GlyphClass: 3
Flags: W
LayerCount: 2
Fore
SplineSet
59.5 414 m 128,-1,1
 20 454 20 454 20 555.5 c 128,-1,2
 20 657 20 657 59 696.5 c 128,-1,3
 98 736 98 736 198 736 c 0,4,5
 266 736 266 736 304 718.5 c 128,-1,6
 342 701 342 701 359 661 c 128,-1,7
 376 621 376 621 376 550 c 0,8,9
 376 451 376 451 338 412.5 c 128,-1,10
 300 374 300 374 199.5 374 c 128,-1,0
 99 374 99 374 59.5 414 c 128,-1,1
34 261 m 1,11,-1
 34 334 l 1,12,-1
 362 334 l 1,13,-1
 362 261 l 1,14,-1
 34 261 l 1,11,-1
154.5 623.5 m 128,-1,16
 145 608 145 608 145 553.5 c 128,-1,17
 145 499 145 499 155.5 485 c 128,-1,18
 166 471 166 471 194 471 c 128,-1,19
 222 471 222 471 231 475 c 0,20,21
 252 484 252 484 252 547 c 128,-1,22
 252 610 252 610 242.5 624.5 c 128,-1,23
 233 639 233 639 198.5 639 c 128,-1,15
 164 639 164 639 154.5 623.5 c 128,-1,16
EndSplineSet
Substitution2: "'smcp' Lowercase to Small Capitals lookup 1 subtable" ordmasculine.smcp
Ligature2: "'ordn' Ordinals lookup 0 subtable" o
EndChar

StartChar: guillemotright
Encoding: 187 187 124
Width: 592
GlyphClass: 2
Flags: W
LayerCount: 2
Fore
SplineSet
34 232 m 1,0,-1
 157 354 l 1,1,-1
 36 473 l 1,2,-1
 121 557 l 1,3,-1
 327 354 l 1,4,-1
 116 146 l 1,5,-1
 34 232 l 1,0,-1
265 232 m 1,6,-1
 388 354 l 1,7,-1
 267 473 l 1,8,-1
 353 557 l 1,9,-1
 559 354 l 1,10,-1
 348 146 l 1,11,-1
 265 232 l 1,6,-1
EndSplineSet
EndChar

StartChar: onequarter
Encoding: 188 188 125
Width: 941
GlyphClass: 3
Flags: W
LayerCount: 2
Fore
SplineSet
227 740 m 1,0,-1
 227 255 l 1,1,-1
 102 255 l 1,2,-1
 102 631 l 1,3,-1
 11 612 l 1,4,-1
 11 684 l 1,5,-1
 104 740 l 1,6,-1
 227 740 l 1,0,-1
159 0 m 1,7,-1
 596 760 l 1,8,-1
 710 760 l 1,9,-1
 274 0 l 1,10,-1
 159 0 l 1,7,-1
758 206 m 1,11,-1
 758 302 l 1,12,-1
 781 352 l 1,13,-1
 883 352 l 1,14,-1
 883 206 l 1,15,-1
 928 206 l 1,16,-1
 928 110 l 1,17,-1
 883 90 l 1,18,-1
 883 1 l 1,19,-1
 758 1 l 1,20,-1
 758 90 l 1,21,-1
 531 90 l 1,22,-1
 508 145 l 1,23,-1
 666 484 l 1,24,-1
 796 484 l 1,25,-1
 672 206 l 1,26,-1
 758 206 l 1,11,-1
EndSplineSet
Ligature2: "'frac' Diagonal Fractions lookup 7 subtable" one fraction four
Ligature2: "'frac' Diagonal Fractions lookup 7 subtable" one slash four
EndChar

StartChar: onehalf
Encoding: 189 189 126
Width: 997
GlyphClass: 3
Flags: W
LayerCount: 2
Fore
SplineSet
227 740 m 1,0,-1
 227 255 l 1,1,-1
 102 255 l 1,2,-1
 102 631 l 1,3,-1
 11 612 l 1,4,-1
 11 684 l 1,5,-1
 104 740 l 1,6,-1
 227 740 l 1,0,-1
150 0 m 1,7,-1
 587 760 l 1,8,-1
 702 760 l 1,9,-1
 265 0 l 1,10,-1
 150 0 l 1,7,-1
610 377 m 2,11,12
 609 377 609 377 609 404.5 c 128,-1,13
 609 432 609 432 609 447 c 2,14,-1
 610 471 l 1,15,16
 713 491 713 491 816 491 c 0,17,18
 894 491 894 491 932 450.5 c 128,-1,19
 970 410 970 410 970 342 c 0,20,21
 970 244 970 244 804 114 c 1,22,-1
 970 114 l 1,23,-1
 970 0 l 1,24,-1
 613 0 l 1,25,-1
 613 110 l 1,26,27
 676 152 676 152 734 200 c 0,28,29
 845 292 845 292 845 337 c 0,30,31
 845 360 845 360 827.5 368.5 c 128,-1,32
 810 377 810 377 766 377 c 2,33,-1
 610 377 l 2,11,12
EndSplineSet
Ligature2: "'frac' Diagonal Fractions lookup 7 subtable" one fraction two
Ligature2: "'frac' Diagonal Fractions lookup 7 subtable" one slash two
EndChar

StartChar: threequarters
Encoding: 190 190 127
Width: 1054
GlyphClass: 3
Flags: W
LayerCount: 2
Fore
SplineSet
20 721 m 1,0,1
 77 742 77 742 175 742 c 0,2,3
 208 742 208 742 244 741 c 1,4,5
 304 741 304 741 339 708 c 128,-1,6
 374 675 374 675 374 619 c 2,7,-1
 374 591 l 2,8,9
 374 516 374 516 315 496 c 1,10,11
 374 476 374 476 374 395 c 2,12,-1
 374 374 l 2,13,14
 374 294 374 294 314 265 c 0,15,16
 283 250 283 250 239 250 c 0,17,18
 234 250 234 250 215.5 250 c 128,-1,19
 197 250 197 250 191.5 250 c 128,-1,20
 186 250 186 250 169.5 250.5 c 128,-1,21
 153 251 153 251 146.5 251.5 c 128,-1,22
 140 252 140 252 125.5 252.5 c 128,-1,23
 111 253 111 253 103.5 254 c 128,-1,24
 96 255 96 255 83.5 256.5 c 128,-1,25
 71 258 71 258 62 260 c 0,26,27
 38 266 38 266 24 271 c 1,28,-1
 25 364 l 1,29,-1
 181 364 l 2,30,31
 222 364 222 364 236 370 c 128,-1,32
 250 376 250 376 250 396 c 2,33,-1
 250 405 l 2,34,35
 250 425 250 425 234.5 432 c 128,-1,36
 219 439 219 439 185 440 c 2,37,-1
 66 445 l 1,38,-1
 66 545 l 1,39,-1
 185 553 l 1,40,41
 222 554 222 554 236.5 560.5 c 128,-1,42
 251 567 251 567 251 586 c 2,43,-1
 251 596 l 2,44,45
 251 615 251 615 234.5 621.5 c 128,-1,46
 218 628 218 628 185 628 c 2,47,-1
 20 628 l 1,48,-1
 20 721 l 1,0,1
263 0 m 1,49,-1
 699 760 l 1,50,-1
 814 760 l 1,51,-1
 377 0 l 1,52,-1
 263 0 l 1,49,-1
852 206 m 1,53,-1
 852 302 l 1,54,-1
 873 352 l 1,55,-1
 976 352 l 1,56,-1
 976 206 l 1,57,-1
 1020 206 l 1,58,-1
 1020 110 l 1,59,-1
 976 90 l 1,60,-1
 976 2 l 1,61,-1
 852 2 l 1,62,-1
 852 90 l 1,63,-1
 623 90 l 1,64,-1
 600 146 l 1,65,-1
 758 484 l 1,66,-1
 887 484 l 1,67,-1
 763 206 l 1,68,-1
 852 206 l 1,53,-1
EndSplineSet
Ligature2: "'frac' Diagonal Fractions lookup 7 subtable" three fraction four
Ligature2: "'frac' Diagonal Fractions lookup 7 subtable" three slash four
EndChar

StartChar: questiondown
Encoding: 191 191 128
Width: 543
GlyphClass: 2
Flags: W
LayerCount: 2
Fore
SplineSet
530 -117 m 1,0,1
 530 -117 530 -117 530 -166 c 128,-1,2
 530 -215 530 -215 530 -227 c 2,3,-1
 530 -240 l 1,4,5
 433 -262 433 -262 379.5 -265 c 128,-1,6
 326 -268 326 -268 299.5 -268 c 128,-1,7
 273 -268 273 -268 260.5 -267.5 c 128,-1,8
 248 -267 248 -267 247 -267 c 0,9,10
 192 -267 192 -267 148 -249.5 c 128,-1,11
 104 -232 104 -232 78 -202 c 0,12,13
 26 -143 26 -143 26 -66 c 2,14,-1
 26 -3 l 2,15,16
 26 99 26 99 75.5 145.5 c 128,-1,17
 125 192 125 192 219 192 c 0,18,19
 232 192 232 192 246 191 c 1,20,-1
 246 277 l 1,21,-1
 374 277 l 1,22,-1
 375 70 l 1,23,24
 358 70 358 70 319.5 70 c 128,-1,25
 281 70 281 70 270 70 c 0,26,27
 194 67 194 67 193 -8 c 0,28,29
 193 -39 193 -39 193 -44 c 0,30,31
 193 -79 193 -79 216.5 -98.5 c 128,-1,32
 240 -118 240 -118 286 -118 c 0,33,34
 288 -118 288 -118 289 -118 c 2,35,-1
 530 -117 l 1,0,1
238 448 m 2,36,37
 238 471 238 471 262 472 c 1,38,-1
 360 472 l 2,39,40
 370 472 370 472 377 465.5 c 128,-1,41
 384 459 384 459 384 449 c 2,42,-1
 384 348 l 1,43,44
 383 323 383 323 360 322 c 1,45,-1
 262 322 l 1,46,47
 238 324 238 324 238 348 c 2,48,-1
 238 448 l 2,36,37
EndSplineSet
Substitution2: "'case' Case-Sensitive Forms lookup 18 subtable" questiondown.alt
Substitution2: "'smcp' Lowercase to Small Capitals lookup 1 subtable" questiondown.smcp
EndChar

StartChar: Agrave
Encoding: 192 192 129
Width: 700
GlyphClass: 2
Flags: W
LayerCount: 2
Fore
SplineSet
197 938 m 1,0,-1
 329 938 l 1,1,-1
 414 797 l 1,2,-1
 315 797 l 1,3,-1
 197 938 l 1,0,-1
30 0 m 1,4,-1
 269 732 l 1,5,-1
 459 732 l 1,6,-1
 690 0 l 1,7,-1
 519 0 l 1,8,-1
 471 147 l 1,9,-1
 250 147 l 1,10,-1
 202 0 l 1,11,-1
 30 0 l 1,4,-1
290 289 m 1,12,-1
 435 289 l 1,13,-1
 366 522 l 1,14,-1
 290 289 l 1,12,-1
EndSplineSet
Substitution2: "'c2sc' Capitals to Small Capitals in Latin lookup 2 subtable" agrave.smcp
EndChar

StartChar: Aacute
Encoding: 193 193 130
Width: 700
GlyphClass: 2
Flags: W
LayerCount: 2
Fore
SplineSet
315 797 m 1,0,-1
 399 938 l 1,1,-1
 532 938 l 1,2,-1
 414 797 l 1,3,-1
 315 797 l 1,0,-1
30 0 m 1,4,-1
 269 732 l 1,5,-1
 459 732 l 1,6,-1
 690 0 l 1,7,-1
 519 0 l 1,8,-1
 471 147 l 1,9,-1
 250 147 l 1,10,-1
 202 0 l 1,11,-1
 30 0 l 1,4,-1
290 289 m 1,12,-1
 435 289 l 1,13,-1
 366 522 l 1,14,-1
 290 289 l 1,12,-1
EndSplineSet
Substitution2: "'c2sc' Capitals to Small Capitals in Latin lookup 2 subtable" aacute.smcp
EndChar

StartChar: Acircumflex
Encoding: 194 194 131
Width: 700
GlyphClass: 2
Flags: W
LayerCount: 2
Fore
SplineSet
207 797 m 1,0,-1
 311 934 l 1,1,-1
 427 934 l 1,2,-1
 521 797 l 1,3,-1
 420 797 l 1,4,-1
 366 853 l 1,5,-1
 309 797 l 1,6,-1
 207 797 l 1,0,-1
30 0 m 1,7,-1
 269 732 l 1,8,-1
 459 732 l 1,9,-1
 690 0 l 1,10,-1
 519 0 l 1,11,-1
 471 147 l 1,12,-1
 250 147 l 1,13,-1
 202 0 l 1,14,-1
 30 0 l 1,7,-1
290 289 m 1,15,-1
 435 289 l 1,16,-1
 366 522 l 1,17,-1
 290 289 l 1,15,-1
EndSplineSet
Substitution2: "'c2sc' Capitals to Small Capitals in Latin lookup 2 subtable" acircumflex.smcp
EndChar

StartChar: Atilde
Encoding: 195 195 132
Width: 700
GlyphClass: 2
Flags: W
LayerCount: 2
Fore
SplineSet
424 894 m 0,0,1
 467 894 467 894 512 933 c 1,2,-1
 537 867 l 1,3,4
 481 797 481 797 425 797 c 0,5,6
 401 797 401 797 365 814.5 c 128,-1,7
 329 832 329 832 306 832 c 128,-1,8
 283 832 283 832 264.5 824 c 128,-1,9
 246 816 246 816 217 797 c 1,10,-1
 191 858 l 1,11,12
 250 929 250 929 313 929 c 0,13,14
 337 929 337 929 369 911 c 1,15,16
 402 894 402 894 424 894 c 0,0,1
30 0 m 1,17,-1
 269 732 l 1,18,-1
 459 732 l 1,19,-1
 690 0 l 1,20,-1
 519 0 l 1,21,-1
 471 147 l 1,22,-1
 250 147 l 1,23,-1
 202 0 l 1,24,-1
 30 0 l 1,17,-1
290 289 m 1,25,-1
 435 289 l 1,26,-1
 366 522 l 1,27,-1
 290 289 l 1,25,-1
EndSplineSet
Substitution2: "'c2sc' Capitals to Small Capitals in Latin lookup 2 subtable" atilde.smcp
EndChar

StartChar: Adieresis
Encoding: 196 196 133
Width: 700
GlyphClass: 2
Flags: W
LayerCount: 2
Fore
SplineSet
175 859.5 m 128,-1,1
 175 885 175 885 193.5 902.5 c 128,-1,2
 212 920 212 920 237.5 920 c 128,-1,3
 263 920 263 920 280.5 902.5 c 128,-1,4
 298 885 298 885 298 859.5 c 128,-1,5
 298 834 298 834 280.5 815.5 c 128,-1,6
 263 797 263 797 237.5 797 c 128,-1,7
 212 797 212 797 193.5 815.5 c 128,-1,0
 175 834 175 834 175 859.5 c 128,-1,1
430 859.5 m 128,-1,9
 430 885 430 885 448.5 902.5 c 128,-1,10
 467 920 467 920 492.5 920 c 128,-1,11
 518 920 518 920 535.5 902.5 c 128,-1,12
 553 885 553 885 553 859.5 c 128,-1,13
 553 834 553 834 535.5 815.5 c 128,-1,14
 518 797 518 797 492.5 797 c 128,-1,15
 467 797 467 797 448.5 815.5 c 128,-1,8
 430 834 430 834 430 859.5 c 128,-1,9
30 0 m 1,16,-1
 269 732 l 1,17,-1
 459 732 l 1,18,-1
 690 0 l 1,19,-1
 519 0 l 1,20,-1
 471 147 l 1,21,-1
 250 147 l 1,22,-1
 202 0 l 1,23,-1
 30 0 l 1,16,-1
290 289 m 1,24,-1
 435 289 l 1,25,-1
 366 522 l 1,26,-1
 290 289 l 1,24,-1
EndSplineSet
Substitution2: "'c2sc' Capitals to Small Capitals in Latin lookup 2 subtable" adieresis.smcp
EndChar

StartChar: Aring
Encoding: 197 197 134
Width: 700
GlyphClass: 2
Flags: W
LayerCount: 2
Fore
SplineSet
276.5 780.5 m 128,-1,1
 290 757 290 757 313.5 743.5 c 128,-1,2
 337 730 337 730 364.5 730 c 128,-1,3
 392 730 392 730 415.5 743.5 c 128,-1,4
 439 757 439 757 452.5 780.5 c 128,-1,5
 466 804 466 804 466 839.5 c 128,-1,6
 466 875 466 875 436.5 905 c 128,-1,7
 407 935 407 935 365 935 c 128,-1,8
 323 935 323 935 293 905 c 128,-1,9
 263 875 263 875 263 839.5 c 128,-1,0
 263 804 263 804 276.5 780.5 c 128,-1,1
336.5 859.5 m 128,-1,11
 348 871 348 871 364.5 871 c 128,-1,12
 381 871 381 871 392 860 c 128,-1,13
 403 849 403 849 403 832.5 c 128,-1,14
 403 816 403 816 392 805 c 128,-1,15
 381 794 381 794 364.5 794 c 128,-1,16
 348 794 348 794 337 805 c 0,17,18
 332 810 332 810 328.5 817 c 128,-1,19
 325 824 325 824 325 836 c 128,-1,10
 325 848 325 848 336.5 859.5 c 128,-1,11
30 0 m 1,20,-1
 269 732 l 1,21,-1
 459 732 l 1,22,-1
 690 0 l 1,23,-1
 519 0 l 1,24,-1
 471 147 l 1,25,-1
 250 147 l 1,26,-1
 202 0 l 1,27,-1
 30 0 l 1,20,-1
290 289 m 1,28,-1
 435 289 l 1,29,-1
 366 522 l 1,30,-1
 290 289 l 1,28,-1
EndSplineSet
Substitution2: "'c2sc' Capitals to Small Capitals in Latin lookup 2 subtable" aring.smcp
EndChar

StartChar: AE
Encoding: 198 198 135
Width: 966
GlyphClass: 2
Flags: W
LayerCount: 2
Fore
SplineSet
480 721 m 0,0,1
 518 730 518 730 542 731.5 c 128,-1,2
 566 733 566 733 584.5 733 c 128,-1,3
 603 733 603 733 626 732 c 0,4,5
 848 728 848 728 936 716 c 1,6,-1
 936 579 l 1,7,-1
 671 579 l 2,8,9
 630 579 630 579 623 554 c 0,10,11
 620 543 620 543 619 524 c 1,12,-1
 619 439 l 1,13,-1
 888 428 l 1,14,-1
 888 293 l 1,15,-1
 619 284 l 1,16,-1
 619 201 l 2,17,18
 619 159 619 159 647 153 c 0,19,20
 660 150 660 150 681 150 c 2,21,-1
 936 150 l 1,22,-1
 936 14 l 1,23,24
 867 4 867 4 694 -2 c 2,25,-1
 636 -4 l 2,26,27
 627 -4 627 -4 612.5 -4 c 128,-1,28
 598 -4 598 -4 574 -0.5 c 128,-1,29
 550 3 550 3 520.5 14.5 c 128,-1,30
 491 26 491 26 473 53.5 c 128,-1,31
 455 81 455 81 455 121 c 2,32,-1
 455 182 l 1,33,-1
 292 182 l 1,34,-1
 202 0 l 1,35,-1
 20 0 l 1,36,-1
 298 565 l 2,37,38
 361 693 361 693 480 721 c 0,0,1
455 324 m 1,39,-1
 455 524 l 1,40,-1
 360 324 l 1,41,-1
 455 324 l 1,39,-1
EndSplineSet
EndChar

StartChar: Ccedilla
Encoding: 199 199 136
Width: 569
GlyphClass: 2
Flags: W
LayerCount: 2
Fore
SplineSet
146 -37 m 1,0,-1
 250 -37 l 1,1,2
 250 -115 250 -115 224.5 -147.5 c 128,-1,3
 199 -180 199 -180 134 -180 c 2,4,-1
 76 -180 l 1,5,-1
 76 -112 l 1,6,-1
 116 -97 l 1,7,8
 141 -86 141 -86 144 -67 c 0,9,10
 146 -58 146 -58 146 -37 c 1,0,-1
37 368 m 0,11,12
 37 460 37 460 48.5 525.5 c 128,-1,13
 60 591 60 591 88 641 c 0,14,15
 142 740 142 740 288 740 c 0,16,17
 377 740 377 740 430.5 732.5 c 128,-1,18
 484 725 484 725 547 704 c 1,19,-1
 547 576 l 1,20,21
 547 576 547 576 540 576.5 c 128,-1,22
 533 577 533 577 521 578.5 c 128,-1,23
 509 580 509 580 493.5 581.5 c 128,-1,24
 478 583 478 583 458.5 585 c 128,-1,25
 439 587 439 587 419 588 c 0,26,27
 374 591 374 591 342 591 c 128,-1,28
 310 591 310 591 296 589.5 c 128,-1,29
 282 588 282 588 266 583.5 c 128,-1,30
 250 579 250 579 241 569.5 c 128,-1,31
 232 560 232 560 223.5 544 c 128,-1,32
 215 528 215 528 210 504 c 1,33,34
 201 449 201 449 201 344 c 128,-1,35
 201 239 201 239 227.5 191 c 128,-1,36
 254 143 254 143 334 143 c 0,37,38
 427 143 427 143 517 149 c 1,39,-1
 547 152 l 1,40,-1
 547 24 l 1,41,42
 463 -6 463 -6 316 -6 c 0,43,44
 302 -6 302 -6 288 -6 c 0,45,46
 151 -4 151 -4 93 93 c 0,47,48
 37 186 37 186 37 368 c 0,11,12
EndSplineSet
Substitution2: "'c2sc' Capitals to Small Capitals in Latin lookup 2 subtable" ccedilla.smcp
EndChar

StartChar: Egrave
Encoding: 200 200 137
Width: 567
GlyphClass: 2
Flags: W
LayerCount: 2
Fore
SplineSet
160 937 m 1,0,-1
 293 937 l 1,1,-1
 377 796 l 1,2,-1
 278 796 l 1,3,-1
 160 937 l 1,0,-1
50 152 m 2,4,-1
 50 572 l 2,5,6
 50 680 50 680 131 716 c 0,7,8
 169 732 169 732 221 732 c 0,9,10
 458 728 458 728 545 716 c 1,11,-1
 545 579 l 1,12,-1
 266 579 l 2,13,14
 229 579 229 579 220 561 c 0,15,16
 214 547 214 547 214 523 c 2,17,-1
 214 440 l 1,18,-1
 498 430 l 1,19,-1
 498 294 l 1,20,-1
 214 285 l 1,21,-1
 214 202 l 2,22,23
 214 164 214 164 235 156 c 0,24,25
 250 150 250 150 276 150 c 2,26,-1
 545 150 l 1,27,-1
 545 14 l 1,28,29
 473 4 473 4 256 -2 c 1,30,-1
 231 -3 l 2,31,32
 223 -3 223 -3 212 -3 c 128,-1,33
 201 -3 201 -3 183.5 -1.5 c 128,-1,34
 166 0 166 0 139.5 9 c 128,-1,35
 113 18 113 18 94.5 34 c 128,-1,36
 76 50 76 50 63 80.5 c 128,-1,37
 50 111 50 111 50 152 c 2,4,-1
EndSplineSet
Substitution2: "'c2sc' Capitals to Small Capitals in Latin lookup 2 subtable" egrave.smcp
EndChar

StartChar: Eacute
Encoding: 201 201 138
Width: 567
GlyphClass: 2
Flags: W
LayerCount: 2
Fore
SplineSet
271 796 m 1,0,-1
 356 936 l 1,1,-1
 488 936 l 1,2,-1
 370 796 l 1,3,-1
 271 796 l 1,0,-1
50 152 m 2,4,-1
 50 572 l 2,5,6
 50 680 50 680 131 716 c 0,7,8
 169 732 169 732 221 732 c 0,9,10
 458 728 458 728 545 716 c 1,11,-1
 545 579 l 1,12,-1
 266 579 l 2,13,14
 229 579 229 579 220 561 c 0,15,16
 214 547 214 547 214 523 c 2,17,-1
 214 440 l 1,18,-1
 498 430 l 1,19,-1
 498 294 l 1,20,-1
 214 285 l 1,21,-1
 214 202 l 2,22,23
 214 164 214 164 235 156 c 0,24,25
 250 150 250 150 276 150 c 2,26,-1
 545 150 l 1,27,-1
 545 14 l 1,28,29
 473 4 473 4 256 -2 c 1,30,-1
 231 -3 l 2,31,32
 223 -3 223 -3 212 -3 c 128,-1,33
 201 -3 201 -3 183.5 -1.5 c 128,-1,34
 166 0 166 0 139.5 9 c 128,-1,35
 113 18 113 18 94.5 34 c 128,-1,36
 76 50 76 50 63 80.5 c 128,-1,37
 50 111 50 111 50 152 c 2,4,-1
EndSplineSet
Substitution2: "'c2sc' Capitals to Small Capitals in Latin lookup 2 subtable" eacute.smcp
EndChar

StartChar: Ecircumflex
Encoding: 202 202 139
Width: 567
GlyphClass: 2
Flags: W
LayerCount: 2
Fore
SplineSet
161 797 m 1,0,-1
 265 934 l 1,1,-1
 381 934 l 1,2,-1
 476 797 l 1,3,-1
 374 797 l 1,4,-1
 320 853 l 1,5,-1
 263 797 l 1,6,-1
 161 797 l 1,0,-1
50 152 m 2,7,-1
 50 572 l 2,8,9
 50 680 50 680 131 716 c 0,10,11
 169 732 169 732 221 732 c 0,12,13
 458 728 458 728 545 716 c 1,14,-1
 545 579 l 1,15,-1
 266 579 l 2,16,17
 229 579 229 579 220 561 c 0,18,19
 214 547 214 547 214 523 c 2,20,-1
 214 440 l 1,21,-1
 498 430 l 1,22,-1
 498 294 l 1,23,-1
 214 285 l 1,24,-1
 214 202 l 2,25,26
 214 164 214 164 235 156 c 0,27,28
 250 150 250 150 276 150 c 2,29,-1
 545 150 l 1,30,-1
 545 14 l 1,31,32
 473 4 473 4 256 -2 c 1,33,-1
 231 -3 l 2,34,35
 223 -3 223 -3 212 -3 c 128,-1,36
 201 -3 201 -3 183.5 -1.5 c 128,-1,37
 166 0 166 0 139.5 9 c 128,-1,38
 113 18 113 18 94.5 34 c 128,-1,39
 76 50 76 50 63 80.5 c 128,-1,40
 50 111 50 111 50 152 c 2,7,-1
EndSplineSet
Substitution2: "'c2sc' Capitals to Small Capitals in Latin lookup 2 subtable" ecircumflex.smcp
EndChar

StartChar: Edieresis
Encoding: 203 203 140
Width: 567
GlyphClass: 2
Flags: W
LayerCount: 2
Fore
SplineSet
140 814 m 128,-1,1
 122 832 122 832 122 853.5 c 128,-1,2
 122 875 122 875 130 889 c 0,3,4
 148 919 148 919 179 919 c 128,-1,5
 210 919 210 919 227.5 901.5 c 128,-1,6
 245 884 245 884 245 858 c 128,-1,7
 245 832 245 832 227 814 c 128,-1,8
 209 796 209 796 183.5 796 c 128,-1,0
 158 796 158 796 140 814 c 128,-1,1
377 857.5 m 128,-1,10
 377 883 377 883 395 901 c 128,-1,11
 413 919 413 919 438.5 919 c 128,-1,12
 464 919 464 919 482 901.5 c 128,-1,13
 500 884 500 884 500 858 c 128,-1,14
 500 832 500 832 482 814 c 128,-1,15
 464 796 464 796 439 796 c 128,-1,16
 414 796 414 796 395.5 814 c 128,-1,9
 377 832 377 832 377 857.5 c 128,-1,10
50 152 m 2,17,-1
 50 572 l 2,18,19
 50 680 50 680 131 716 c 0,20,21
 169 732 169 732 221 732 c 0,22,23
 458 728 458 728 545 716 c 1,24,-1
 545 579 l 1,25,-1
 266 579 l 2,26,27
 229 579 229 579 220 561 c 0,28,29
 214 547 214 547 214 523 c 2,30,-1
 214 440 l 1,31,-1
 498 430 l 1,32,-1
 498 294 l 1,33,-1
 214 285 l 1,34,-1
 214 202 l 2,35,36
 214 164 214 164 235 156 c 0,37,38
 250 150 250 150 276 150 c 2,39,-1
 545 150 l 1,40,-1
 545 14 l 1,41,42
 473 4 473 4 256 -2 c 1,43,-1
 231 -3 l 2,44,45
 223 -3 223 -3 212 -3 c 128,-1,46
 201 -3 201 -3 183.5 -1.5 c 128,-1,47
 166 0 166 0 139.5 9 c 128,-1,48
 113 18 113 18 94.5 34 c 128,-1,49
 76 50 76 50 63 80.5 c 128,-1,50
 50 111 50 111 50 152 c 2,17,-1
EndSplineSet
Substitution2: "'c2sc' Capitals to Small Capitals in Latin lookup 2 subtable" edieresis.smcp
EndChar

StartChar: Igrave
Encoding: 204 204 141
Width: 257
GlyphClass: 2
Flags: W
LayerCount: 2
Fore
SplineSet
-32 938 m 1,0,-1
 101 938 l 1,1,-1
 185 797 l 1,2,-1
 86 797 l 1,3,-1
 -32 938 l 1,0,-1
54 0 m 1,4,-1
 54 732 l 1,5,-1
 218 732 l 1,6,-1
 218 0 l 1,7,-1
 54 0 l 1,4,-1
EndSplineSet
Substitution2: "'c2sc' Capitals to Small Capitals in Latin lookup 2 subtable" igrave.smcp
EndChar

StartChar: Iacute
Encoding: 205 205 142
Width: 257
GlyphClass: 2
Flags: W
LayerCount: 2
Fore
SplineSet
86 797 m 1,0,-1
 171 938 l 1,1,-1
 303 938 l 1,2,-1
 185 797 l 1,3,-1
 86 797 l 1,0,-1
54 0 m 1,4,-1
 54 732 l 1,5,-1
 218 732 l 1,6,-1
 218 0 l 1,7,-1
 54 0 l 1,4,-1
EndSplineSet
Substitution2: "'c2sc' Capitals to Small Capitals in Latin lookup 2 subtable" iacute.smcp
EndChar

StartChar: Icircumflex
Encoding: 206 206 143
Width: 257
GlyphClass: 2
Flags: W
LayerCount: 2
Fore
SplineSet
-22 797 m 1,0,-1
 83 934 l 1,1,-1
 199 934 l 1,2,-1
 293 797 l 1,3,-1
 192 797 l 1,4,-1
 138 853 l 1,5,-1
 80 797 l 1,6,-1
 -22 797 l 1,0,-1
54 0 m 1,7,-1
 54 732 l 1,8,-1
 218 732 l 1,9,-1
 218 0 l 1,10,-1
 54 0 l 1,7,-1
EndSplineSet
Substitution2: "'c2sc' Capitals to Small Capitals in Latin lookup 2 subtable" icircumflex.smcp
EndChar

StartChar: Idieresis
Encoding: 207 207 144
Width: 257
GlyphClass: 2
Flags: W
LayerCount: 2
Fore
SplineSet
-54 859.5 m 128,-1,1
 -54 885 -54 885 -35.5 902.5 c 128,-1,2
 -17 920 -17 920 8.5 920 c 128,-1,3
 34 920 34 920 52 902.5 c 128,-1,4
 70 885 70 885 70 859.5 c 128,-1,5
 70 834 70 834 52 815.5 c 128,-1,6
 34 797 34 797 8.5 797 c 128,-1,7
 -17 797 -17 797 -35.5 815.5 c 128,-1,0
 -54 834 -54 834 -54 859.5 c 128,-1,1
202 859.5 m 128,-1,9
 202 885 202 885 220 902.5 c 128,-1,10
 238 920 238 920 263.5 920 c 128,-1,11
 289 920 289 920 307 902.5 c 128,-1,12
 325 885 325 885 325 859.5 c 128,-1,13
 325 834 325 834 307 815.5 c 128,-1,14
 289 797 289 797 263.5 797 c 128,-1,15
 238 797 238 797 220 815.5 c 128,-1,8
 202 834 202 834 202 859.5 c 128,-1,9
54 0 m 1,16,-1
 54 732 l 1,17,-1
 218 732 l 1,18,-1
 218 0 l 1,19,-1
 54 0 l 1,16,-1
EndSplineSet
Substitution2: "'c2sc' Capitals to Small Capitals in Latin lookup 2 subtable" idieresis.smcp
EndChar

StartChar: Eth
Encoding: 208 208 145
Width: 664
GlyphClass: 2
Flags: W
LayerCount: 2
Fore
SplineSet
-11 338 m 1,0,-1
 -11 408 l 1,1,-1
 54 408 l 1,2,-1
 54 732 l 1,3,4
 54 732 54 732 379 732 c 0,5,6
 439 732 439 732 484 711.5 c 128,-1,7
 529 691 529 691 556.5 658 c 128,-1,8
 584 625 584 625 601 576 c 0,9,10
 631 491 631 491 631 363 c 0,11,12
 631 0 631 0 379 0 c 2,13,-1
 54 0 l 1,14,-1
 54 338 l 1,15,-1
 -11 338 l 1,0,-1
218 142 m 1,16,-1
 364 142 l 2,17,18
 419 142 419 142 442.5 197 c 128,-1,19
 466 252 466 252 466 342.5 c 128,-1,20
 466 433 466 433 459 478.5 c 128,-1,21
 452 524 452 524 438 547.5 c 128,-1,22
 424 571 424 571 406.5 580 c 128,-1,23
 389 589 389 589 364 589 c 2,24,-1
 218 589 l 1,25,-1
 218 408 l 1,26,-1
 319 408 l 1,27,-1
 319 338 l 1,28,-1
 218 338 l 1,29,-1
 218 142 l 1,16,-1
EndSplineSet
Substitution2: "'c2sc' Capitals to Small Capitals in Latin lookup 2 subtable" eth.smcp
EndChar

StartChar: Ntilde
Encoding: 209 209 146
Width: 677
GlyphClass: 2
Flags: W
LayerCount: 2
Fore
SplineSet
406 894 m 0,0,1
 449 894 449 894 494 933 c 1,2,-1
 519 867 l 1,3,4
 463 797 463 797 407 797 c 0,5,6
 387 797 387 797 366 806 c 128,-1,7
 345 815 345 815 326.5 823.5 c 128,-1,8
 308 832 308 832 286.5 832 c 128,-1,9
 265 832 265 832 246.5 824 c 128,-1,10
 228 816 228 816 199 797 c 1,11,-1
 173 858 l 1,12,13
 231 929 231 929 295 929 c 0,14,15
 319 929 319 929 351 911 c 1,16,17
 384 894 384 894 406 894 c 0,0,1
54 0 m 1,18,-1
 54 732 l 1,19,-1
 220 732 l 1,20,-1
 474 303 l 1,21,-1
 474 732 l 1,22,-1
 638 732 l 1,23,-1
 638 0 l 1,24,-1
 474 0 l 1,25,-1
 219 422 l 1,26,-1
 219 0 l 1,27,-1
 54 0 l 1,18,-1
EndSplineSet
AlternateSubs2: "'salt' Stylistic Alternatives in Latin lookup 16 subtable" Ntilde.salt
Substitution2: "'c2sc' Capitals to Small Capitals in Latin lookup 2 subtable" ntilde.smcp
EndChar

StartChar: Ograve
Encoding: 210 210 147
Width: 669
GlyphClass: 2
Flags: W
LayerCount: 2
Fore
SplineSet
175 938 m 1,0,-1
 307 938 l 1,1,-1
 392 797 l 1,2,-1
 293 797 l 1,3,-1
 175 938 l 1,0,-1
44 366 m 128,-1,5
 44 433 44 433 52 489.5 c 128,-1,6
 60 546 60 546 73.5 585.5 c 128,-1,7
 87 625 87 625 109 653 c 128,-1,8
 131 681 131 681 154 697 c 128,-1,9
 177 713 177 713 210 722 c 0,10,11
 263 737 263 737 323.5 737 c 128,-1,12
 384 737 384 737 413.5 734 c 128,-1,13
 443 731 443 731 476.5 722 c 128,-1,14
 510 713 510 713 532.5 697 c 128,-1,15
 555 681 555 681 577 653 c 128,-1,16
 599 625 599 625 612 586 c 0,17,18
 640 499 640 499 640 361 c 0,19,20
 640 194 640 194 593 104 c 0,21,22
 569 56 569 56 516 26 c 0,23,24
 462 -4 462 -4 342 -4 c 0,25,26
 220 -4 220 -4 169 24 c 0,27,28
 114 53 114 53 91 99 c 0,29,30
 58 163 58 163 51 231 c 128,-1,4
 44 299 44 299 44 366 c 128,-1,5
213 465 m 128,-1,32
 208 424 208 424 208 372.5 c 128,-1,33
 208 321 208 321 209.5 292.5 c 128,-1,34
 211 264 211 264 214.5 240 c 128,-1,35
 218 216 218 216 225 200.5 c 128,-1,36
 232 185 232 185 241.5 173.5 c 128,-1,37
 251 162 251 162 266 156 c 0,38,39
 295 145 295 145 339 145 c 128,-1,40
 383 145 383 145 407 153.5 c 128,-1,41
 431 162 431 162 447.5 186.5 c 128,-1,42
 464 211 464 211 470 252 c 128,-1,43
 476 293 476 293 476 358 c 128,-1,44
 476 423 476 423 471.5 462.5 c 128,-1,45
 467 502 467 502 458.5 528 c 128,-1,46
 450 554 450 554 433 566.5 c 128,-1,47
 416 579 416 579 396 583.5 c 128,-1,48
 376 588 376 588 342.5 588 c 128,-1,49
 309 588 309 588 290 584.5 c 128,-1,50
 271 581 271 581 253 568.5 c 128,-1,51
 235 556 235 556 226.5 531 c 128,-1,31
 218 506 218 506 213 465 c 128,-1,32
EndSplineSet
Substitution2: "'c2sc' Capitals to Small Capitals in Latin lookup 2 subtable" ograve.smcp
EndChar

StartChar: Oacute
Encoding: 211 211 148
Width: 669
GlyphClass: 2
Flags: W
LayerCount: 2
Fore
SplineSet
293 797 m 1,0,-1
 377 938 l 1,1,-1
 510 938 l 1,2,-1
 392 797 l 1,3,-1
 293 797 l 1,0,-1
44 366 m 128,-1,5
 44 433 44 433 52 489.5 c 128,-1,6
 60 546 60 546 73.5 585.5 c 128,-1,7
 87 625 87 625 109 653 c 128,-1,8
 131 681 131 681 154 697 c 128,-1,9
 177 713 177 713 210 722 c 0,10,11
 263 737 263 737 323.5 737 c 128,-1,12
 384 737 384 737 413.5 734 c 128,-1,13
 443 731 443 731 476.5 722 c 128,-1,14
 510 713 510 713 532.5 697 c 128,-1,15
 555 681 555 681 577 653 c 128,-1,16
 599 625 599 625 612 586 c 0,17,18
 640 499 640 499 640 361 c 0,19,20
 640 194 640 194 593 104 c 0,21,22
 569 56 569 56 516 26 c 0,23,24
 462 -4 462 -4 342 -4 c 0,25,26
 220 -4 220 -4 169 24 c 0,27,28
 114 53 114 53 91 99 c 0,29,30
 58 163 58 163 51 231 c 128,-1,4
 44 299 44 299 44 366 c 128,-1,5
213 465 m 128,-1,32
 208 424 208 424 208 372.5 c 128,-1,33
 208 321 208 321 209.5 292.5 c 128,-1,34
 211 264 211 264 214.5 240 c 128,-1,35
 218 216 218 216 225 200.5 c 128,-1,36
 232 185 232 185 241.5 173.5 c 128,-1,37
 251 162 251 162 266 156 c 0,38,39
 295 145 295 145 339 145 c 128,-1,40
 383 145 383 145 407 153.5 c 128,-1,41
 431 162 431 162 447.5 186.5 c 128,-1,42
 464 211 464 211 470 252 c 128,-1,43
 476 293 476 293 476 358 c 128,-1,44
 476 423 476 423 471.5 462.5 c 128,-1,45
 467 502 467 502 458.5 528 c 128,-1,46
 450 554 450 554 433 566.5 c 128,-1,47
 416 579 416 579 396 583.5 c 128,-1,48
 376 588 376 588 342.5 588 c 128,-1,49
 309 588 309 588 290 584.5 c 128,-1,50
 271 581 271 581 253 568.5 c 128,-1,51
 235 556 235 556 226.5 531 c 128,-1,31
 218 506 218 506 213 465 c 128,-1,32
EndSplineSet
Substitution2: "'c2sc' Capitals to Small Capitals in Latin lookup 2 subtable" oacute.smcp
EndChar

StartChar: Ocircumflex
Encoding: 212 212 149
Width: 669
GlyphClass: 2
Flags: W
LayerCount: 2
Fore
SplineSet
185 797 m 1,0,-1
 289 934 l 1,1,-1
 405 934 l 1,2,-1
 500 797 l 1,3,-1
 398 797 l 1,4,-1
 344 853 l 1,5,-1
 287 797 l 1,6,-1
 185 797 l 1,0,-1
44 366 m 128,-1,8
 44 433 44 433 52 489.5 c 128,-1,9
 60 546 60 546 73.5 585.5 c 128,-1,10
 87 625 87 625 109 653 c 128,-1,11
 131 681 131 681 154 697 c 128,-1,12
 177 713 177 713 210 722 c 0,13,14
 263 737 263 737 323.5 737 c 128,-1,15
 384 737 384 737 413.5 734 c 128,-1,16
 443 731 443 731 476.5 722 c 128,-1,17
 510 713 510 713 532.5 697 c 128,-1,18
 555 681 555 681 577 653 c 128,-1,19
 599 625 599 625 612 586 c 0,20,21
 640 499 640 499 640 361 c 0,22,23
 640 194 640 194 593 104 c 0,24,25
 569 56 569 56 516 26 c 0,26,27
 462 -4 462 -4 342 -4 c 0,28,29
 220 -4 220 -4 169 24 c 0,30,31
 114 53 114 53 91 99 c 0,32,33
 58 163 58 163 51 231 c 128,-1,7
 44 299 44 299 44 366 c 128,-1,8
213 465 m 128,-1,35
 208 424 208 424 208 372.5 c 128,-1,36
 208 321 208 321 209.5 292.5 c 128,-1,37
 211 264 211 264 214.5 240 c 128,-1,38
 218 216 218 216 225 200.5 c 128,-1,39
 232 185 232 185 241.5 173.5 c 128,-1,40
 251 162 251 162 266 156 c 0,41,42
 295 145 295 145 339 145 c 128,-1,43
 383 145 383 145 407 153.5 c 128,-1,44
 431 162 431 162 447.5 186.5 c 128,-1,45
 464 211 464 211 470 252 c 128,-1,46
 476 293 476 293 476 358 c 128,-1,47
 476 423 476 423 471.5 462.5 c 128,-1,48
 467 502 467 502 458.5 528 c 128,-1,49
 450 554 450 554 433 566.5 c 128,-1,50
 416 579 416 579 396 583.5 c 128,-1,51
 376 588 376 588 342.5 588 c 128,-1,52
 309 588 309 588 290 584.5 c 128,-1,53
 271 581 271 581 253 568.5 c 128,-1,54
 235 556 235 556 226.5 531 c 128,-1,34
 218 506 218 506 213 465 c 128,-1,35
EndSplineSet
Substitution2: "'c2sc' Capitals to Small Capitals in Latin lookup 2 subtable" ocircumflex.smcp
EndChar

StartChar: Otilde
Encoding: 213 213 150
Width: 669
GlyphClass: 2
Flags: W
LayerCount: 2
Fore
SplineSet
402 894 m 0,0,1
 445 894 445 894 490 933 c 1,2,-1
 515 867 l 1,3,4
 459 797 459 797 403 797 c 0,5,6
 379 797 379 797 343 814.5 c 128,-1,7
 307 832 307 832 284 832 c 128,-1,8
 261 832 261 832 242.5 824 c 128,-1,9
 224 816 224 816 195 797 c 1,10,-1
 170 858 l 1,11,12
 228 929 228 929 291 929 c 0,13,14
 315 929 315 929 347 911 c 1,15,16
 380 894 380 894 402 894 c 0,0,1
44 366 m 128,-1,18
 44 433 44 433 52 489.5 c 128,-1,19
 60 546 60 546 73.5 585.5 c 128,-1,20
 87 625 87 625 109 653 c 128,-1,21
 131 681 131 681 154 697 c 128,-1,22
 177 713 177 713 210 722 c 0,23,24
 263 737 263 737 323.5 737 c 128,-1,25
 384 737 384 737 413.5 734 c 128,-1,26
 443 731 443 731 476.5 722 c 128,-1,27
 510 713 510 713 532.5 697 c 128,-1,28
 555 681 555 681 577 653 c 128,-1,29
 599 625 599 625 612 586 c 0,30,31
 640 499 640 499 640 361 c 0,32,33
 640 194 640 194 593 104 c 0,34,35
 569 56 569 56 516 26 c 0,36,37
 462 -4 462 -4 342 -4 c 0,38,39
 220 -4 220 -4 169 24 c 0,40,41
 114 53 114 53 91 99 c 0,42,43
 58 163 58 163 51 231 c 128,-1,17
 44 299 44 299 44 366 c 128,-1,18
213 465 m 128,-1,45
 208 424 208 424 208 372.5 c 128,-1,46
 208 321 208 321 209.5 292.5 c 128,-1,47
 211 264 211 264 214.5 240 c 128,-1,48
 218 216 218 216 225 200.5 c 128,-1,49
 232 185 232 185 241.5 173.5 c 128,-1,50
 251 162 251 162 266 156 c 0,51,52
 295 145 295 145 339 145 c 128,-1,53
 383 145 383 145 407 153.5 c 128,-1,54
 431 162 431 162 447.5 186.5 c 128,-1,55
 464 211 464 211 470 252 c 128,-1,56
 476 293 476 293 476 358 c 128,-1,57
 476 423 476 423 471.5 462.5 c 128,-1,58
 467 502 467 502 458.5 528 c 128,-1,59
 450 554 450 554 433 566.5 c 128,-1,60
 416 579 416 579 396 583.5 c 128,-1,61
 376 588 376 588 342.5 588 c 128,-1,62
 309 588 309 588 290 584.5 c 128,-1,63
 271 581 271 581 253 568.5 c 128,-1,64
 235 556 235 556 226.5 531 c 128,-1,44
 218 506 218 506 213 465 c 128,-1,45
EndSplineSet
Substitution2: "'c2sc' Capitals to Small Capitals in Latin lookup 2 subtable" otilde.smcp
EndChar

StartChar: Odieresis
Encoding: 214 214 151
Width: 669
GlyphClass: 2
Flags: W
LayerCount: 2
Fore
SplineSet
171.5 815.5 m 128,-1,1
 153 834 153 834 153 855 c 128,-1,2
 153 876 153 876 161 890 c 0,3,4
 180 920 180 920 210.5 920 c 128,-1,5
 241 920 241 920 258.5 902.5 c 128,-1,6
 276 885 276 885 276 859.5 c 128,-1,7
 276 834 276 834 258.5 815.5 c 128,-1,8
 241 797 241 797 215.5 797 c 128,-1,0
 190 797 190 797 171.5 815.5 c 128,-1,1
408 859.5 m 128,-1,10
 408 885 408 885 426.5 902.5 c 128,-1,11
 445 920 445 920 470.5 920 c 128,-1,12
 496 920 496 920 514 902.5 c 128,-1,13
 532 885 532 885 532 859.5 c 128,-1,14
 532 834 532 834 514 815.5 c 128,-1,15
 496 797 496 797 470.5 797 c 128,-1,16
 445 797 445 797 426.5 815.5 c 128,-1,9
 408 834 408 834 408 859.5 c 128,-1,10
44 366 m 128,-1,18
 44 433 44 433 52 489.5 c 128,-1,19
 60 546 60 546 73.5 585.5 c 128,-1,20
 87 625 87 625 109 653 c 128,-1,21
 131 681 131 681 154 697 c 128,-1,22
 177 713 177 713 210 722 c 0,23,24
 263 737 263 737 323.5 737 c 128,-1,25
 384 737 384 737 413.5 734 c 128,-1,26
 443 731 443 731 476.5 722 c 128,-1,27
 510 713 510 713 532.5 697 c 128,-1,28
 555 681 555 681 577 653 c 128,-1,29
 599 625 599 625 612 586 c 0,30,31
 640 499 640 499 640 361 c 0,32,33
 640 194 640 194 593 104 c 0,34,35
 569 56 569 56 516 26 c 0,36,37
 462 -4 462 -4 342 -4 c 0,38,39
 220 -4 220 -4 169 24 c 0,40,41
 114 53 114 53 91 99 c 0,42,43
 58 163 58 163 51 231 c 128,-1,17
 44 299 44 299 44 366 c 128,-1,18
213 465 m 128,-1,45
 208 424 208 424 208 372.5 c 128,-1,46
 208 321 208 321 209.5 292.5 c 128,-1,47
 211 264 211 264 214.5 240 c 128,-1,48
 218 216 218 216 225 200.5 c 128,-1,49
 232 185 232 185 241.5 173.5 c 128,-1,50
 251 162 251 162 266 156 c 0,51,52
 295 145 295 145 339 145 c 128,-1,53
 383 145 383 145 407 153.5 c 128,-1,54
 431 162 431 162 447.5 186.5 c 128,-1,55
 464 211 464 211 470 252 c 128,-1,56
 476 293 476 293 476 358 c 128,-1,57
 476 423 476 423 471.5 462.5 c 128,-1,58
 467 502 467 502 458.5 528 c 128,-1,59
 450 554 450 554 433 566.5 c 128,-1,60
 416 579 416 579 396 583.5 c 128,-1,61
 376 588 376 588 342.5 588 c 128,-1,62
 309 588 309 588 290 584.5 c 128,-1,63
 271 581 271 581 253 568.5 c 128,-1,64
 235 556 235 556 226.5 531 c 128,-1,44
 218 506 218 506 213 465 c 128,-1,45
EndSplineSet
Substitution2: "'c2sc' Capitals to Small Capitals in Latin lookup 2 subtable" odieresis.smcp
EndChar

StartChar: multiply
Encoding: 215 215 152
Width: 463
GlyphClass: 2
Flags: W
LayerCount: 2
Fore
SplineSet
38 256 m 1,0,-1
 137 355 l 1,1,-1
 38 455 l 1,2,-1
 132 550 l 1,3,-1
 232 450 l 1,4,-1
 332 551 l 1,5,-1
 427 456 l 1,6,-1
 327 355 l 1,7,-1
 427 256 l 1,8,-1
 332 161 l 1,9,-1
 232 260 l 1,10,-1
 133 161 l 1,11,-1
 38 256 l 1,0,-1
EndSplineSet
EndChar

StartChar: Oslash
Encoding: 216 216 153
Width: 680
GlyphClass: 2
Flags: W
LayerCount: 2
Fore
SplineSet
115 653 m 0,0,1
 137 681 137 681 160 697 c 128,-1,2
 183 713 183 713 216 722 c 0,3,4
 269 737 269 737 349 737 c 0,5,6
 474 737 474 737 532 701 c 1,7,-1
 554 732 l 1,8,-1
 634 732 l 1,9,-1
 581 656 l 1,10,11
 647 569 647 569 647 361 c 0,12,13
 647 161 647 161 586 82 c 0,14,15
 546 29 546 29 486 12 c 0,16,17
 432 -4 432 -4 356 -4 c 128,-1,18
 280 -4 280 -4 232.5 4.5 c 128,-1,19
 185 13 185 13 150 38 c 1,20,-1
 123 0 l 1,21,-1
 43 0 l 1,22,-1
 104 88 l 1,23,24
 51 171 51 171 51 371 c 128,-1,25
 51 571 51 571 115 653 c 0,0,1
217.5 439.5 m 128,-1,27
 215 406 215 406 215 348 c 128,-1,28
 215 290 215 290 223 255 c 1,29,-1
 438 568 l 1,30,31
 414 588 414 588 349 588 c 0,32,33
 276 588 276 588 254 564 c 0,34,35
 231 539 231 539 225.5 506 c 128,-1,26
 220 473 220 473 217.5 439.5 c 128,-1,27
248 176 m 1,36,37
 274 145 274 145 338.5 145 c 128,-1,38
 403 145 403 145 430.5 162 c 128,-1,39
 458 179 458 179 470.5 225 c 128,-1,40
 483 271 483 271 483 363.5 c 128,-1,41
 483 456 483 456 470 501 c 1,42,-1
 248 176 l 1,36,37
EndSplineSet
Substitution2: "'c2sc' Capitals to Small Capitals in Latin lookup 2 subtable" oslash.smcp
EndChar

StartChar: Ugrave
Encoding: 217 217 154
Width: 660
GlyphClass: 2
Flags: W
LayerCount: 2
Fore
SplineSet
170 938 m 1,0,-1
 302 938 l 1,1,-1
 387 797 l 1,2,-1
 288 797 l 1,3,-1
 170 938 l 1,0,-1
340 -5 m 2,4,-1
 325 -5 l 2,5,6
 232 -5 232 -5 208 3.5 c 128,-1,7
 184 12 184 12 161 23 c 128,-1,8
 138 34 138 34 125 50 c 128,-1,9
 112 66 112 66 96.5 91 c 128,-1,10
 81 116 81 116 73 148 c 0,11,12
 54 224 54 224 54 320 c 2,13,-1
 54 732 l 1,14,-1
 218 732 l 1,15,-1
 218 320 l 2,16,17
 218 267 218 267 222.5 235 c 128,-1,18
 227 203 227 203 241 181.5 c 128,-1,19
 255 160 255 160 278 152 c 128,-1,20
 301 144 301 144 340 144 c 0,21,22
 407 144 407 144 431.5 182.5 c 128,-1,23
 456 221 456 221 456 320 c 2,24,-1
 456 732 l 1,25,-1
 621 732 l 1,26,-1
 621 320 l 2,27,28
 621 125 621 125 548 57 c 0,29,30
 522 33 522 33 501.5 21 c 128,-1,31
 481 9 481 9 448 3 c 0,32,33
 404 -5 404 -5 340 -5 c 2,4,-1
EndSplineSet
Substitution2: "'c2sc' Capitals to Small Capitals in Latin lookup 2 subtable" ugrave.smcp
EndChar

StartChar: Uacute
Encoding: 218 218 155
Width: 660
GlyphClass: 2
Flags: W
LayerCount: 2
Fore
SplineSet
288 797 m 1,0,-1
 372 938 l 1,1,-1
 505 938 l 1,2,-1
 387 797 l 1,3,-1
 288 797 l 1,0,-1
340 -5 m 2,4,-1
 325 -5 l 2,5,6
 232 -5 232 -5 208 3.5 c 128,-1,7
 184 12 184 12 161 23 c 128,-1,8
 138 34 138 34 125 50 c 128,-1,9
 112 66 112 66 96.5 91 c 128,-1,10
 81 116 81 116 73 148 c 0,11,12
 54 224 54 224 54 320 c 2,13,-1
 54 732 l 1,14,-1
 218 732 l 1,15,-1
 218 320 l 2,16,17
 218 267 218 267 222.5 235 c 128,-1,18
 227 203 227 203 241 181.5 c 128,-1,19
 255 160 255 160 278 152 c 128,-1,20
 301 144 301 144 340 144 c 0,21,22
 407 144 407 144 431.5 182.5 c 128,-1,23
 456 221 456 221 456 320 c 2,24,-1
 456 732 l 1,25,-1
 621 732 l 1,26,-1
 621 320 l 2,27,28
 621 125 621 125 548 57 c 0,29,30
 522 33 522 33 501.5 21 c 128,-1,31
 481 9 481 9 448 3 c 0,32,33
 404 -5 404 -5 340 -5 c 2,4,-1
EndSplineSet
Substitution2: "'c2sc' Capitals to Small Capitals in Latin lookup 2 subtable" uacute.smcp
EndChar

StartChar: Ucircumflex
Encoding: 219 219 156
Width: 660
GlyphClass: 2
Flags: W
LayerCount: 2
Fore
SplineSet
180 797 m 1,0,-1
 284 934 l 1,1,-1
 400 934 l 1,2,-1
 494 797 l 1,3,-1
 394 797 l 1,4,-1
 339 853 l 1,5,-1
 282 797 l 1,6,-1
 180 797 l 1,0,-1
340 -5 m 2,7,-1
 325 -5 l 2,8,9
 232 -5 232 -5 208 3.5 c 128,-1,10
 184 12 184 12 161 23 c 128,-1,11
 138 34 138 34 125 50 c 128,-1,12
 112 66 112 66 96.5 91 c 128,-1,13
 81 116 81 116 73 148 c 0,14,15
 54 224 54 224 54 320 c 2,16,-1
 54 732 l 1,17,-1
 218 732 l 1,18,-1
 218 320 l 2,19,20
 218 267 218 267 222.5 235 c 128,-1,21
 227 203 227 203 241 181.5 c 128,-1,22
 255 160 255 160 278 152 c 128,-1,23
 301 144 301 144 340 144 c 0,24,25
 407 144 407 144 431.5 182.5 c 128,-1,26
 456 221 456 221 456 320 c 2,27,-1
 456 732 l 1,28,-1
 621 732 l 1,29,-1
 621 320 l 2,30,31
 621 125 621 125 548 57 c 0,32,33
 522 33 522 33 501.5 21 c 128,-1,34
 481 9 481 9 448 3 c 0,35,36
 404 -5 404 -5 340 -5 c 2,7,-1
EndSplineSet
Substitution2: "'c2sc' Capitals to Small Capitals in Latin lookup 2 subtable" ucircumflex.smcp
EndChar

StartChar: Udieresis
Encoding: 220 220 157
Width: 660
GlyphClass: 2
Flags: W
LayerCount: 2
Fore
SplineSet
166.5 815.5 m 128,-1,1
 148 834 148 834 148 855 c 128,-1,2
 148 876 148 876 156 890 c 0,3,4
 175 920 175 920 205.5 920 c 128,-1,5
 236 920 236 920 254 902.5 c 128,-1,6
 272 885 272 885 272 859.5 c 128,-1,7
 272 834 272 834 254 815.5 c 128,-1,8
 236 797 236 797 210.5 797 c 128,-1,0
 185 797 185 797 166.5 815.5 c 128,-1,1
403 859.5 m 128,-1,10
 403 885 403 885 421.5 902.5 c 128,-1,11
 440 920 440 920 465.5 920 c 128,-1,12
 491 920 491 920 508.5 902.5 c 128,-1,13
 526 885 526 885 526 859.5 c 128,-1,14
 526 834 526 834 508.5 815.5 c 128,-1,15
 491 797 491 797 465.5 797 c 128,-1,16
 440 797 440 797 421.5 815.5 c 128,-1,9
 403 834 403 834 403 859.5 c 128,-1,10
340 -5 m 2,17,-1
 325 -5 l 2,18,19
 232 -5 232 -5 208 3.5 c 128,-1,20
 184 12 184 12 161 23 c 128,-1,21
 138 34 138 34 125 50 c 128,-1,22
 112 66 112 66 96.5 91 c 128,-1,23
 81 116 81 116 73 148 c 0,24,25
 54 224 54 224 54 320 c 2,26,-1
 54 732 l 1,27,-1
 218 732 l 1,28,-1
 218 320 l 2,29,30
 218 267 218 267 222.5 235 c 128,-1,31
 227 203 227 203 241 181.5 c 128,-1,32
 255 160 255 160 278 152 c 128,-1,33
 301 144 301 144 340 144 c 0,34,35
 407 144 407 144 431.5 182.5 c 128,-1,36
 456 221 456 221 456 320 c 2,37,-1
 456 732 l 1,38,-1
 621 732 l 1,39,-1
 621 320 l 2,40,41
 621 125 621 125 548 57 c 0,42,43
 522 33 522 33 501.5 21 c 128,-1,44
 481 9 481 9 448 3 c 0,45,46
 404 -5 404 -5 340 -5 c 2,17,-1
EndSplineSet
Substitution2: "'c2sc' Capitals to Small Capitals in Latin lookup 2 subtable" udieresis.smcp
EndChar

StartChar: Yacute
Encoding: 221 221 158
Width: 666
GlyphClass: 2
Flags: W
LayerCount: 2
Fore
SplineSet
290 797 m 1,0,-1
 375 938 l 1,1,-1
 508 938 l 1,2,-1
 390 797 l 1,3,-1
 290 797 l 1,0,-1
414 0 m 1,4,-1
 250 0 l 1,5,-1
 250 215 l 1,6,-1
 30 732 l 1,7,-1
 208 732 l 1,8,-1
 334 393 l 1,9,-1
 472 732 l 1,10,-1
 650 732 l 1,11,-1
 414 215 l 1,12,-1
 414 0 l 1,4,-1
EndSplineSet
Substitution2: "'c2sc' Capitals to Small Capitals in Latin lookup 2 subtable" yacute.smcp
EndChar

StartChar: Thorn
Encoding: 222 222 159
Width: 542
GlyphClass: 2
Flags: W
LayerCount: 2
Fore
SplineSet
289.5 148 m 128,-1,1
 263 148 263 148 204 168 c 1,2,-1
 204 0 l 1,3,-1
 40 0 l 1,4,-1
 40 729 l 1,5,-1
 204 729 l 1,6,-1
 204 588 l 1,7,-1
 334 588 l 1,8,9
 510 587 510 587 510 375 c 0,10,11
 510 216 510 216 428 171 c 0,12,13
 391 151 391 151 353.5 149.5 c 128,-1,0
 316 148 316 148 289.5 148 c 128,-1,1
204 290 m 1,14,-1
 274 290 l 2,15,16
 275 290 275 290 275 290 c 2,17,18
 316 290 316 290 330.5 305 c 128,-1,19
 345 320 345 320 345 359.5 c 128,-1,20
 345 399 345 399 340 414.5 c 128,-1,21
 335 430 335 430 323 437 c 0,22,23
 306 446 306 446 274 446 c 2,24,-1
 204 446 l 1,25,-1
 204 290 l 1,14,-1
EndSplineSet
Substitution2: "'c2sc' Capitals to Small Capitals in Latin lookup 2 subtable" thorn.smcp
EndChar

StartChar: germandbls
Encoding: 223 223 160
Width: 573
GlyphClass: 2
Flags: W
LayerCount: 2
Fore
SplineSet
40 0 m 1,0,-1
 40 566 l 2,1,2
 40 659 40 659 103.5 720.5 c 128,-1,3
 167 782 167 782 286 782 c 0,4,5
 355 782 355 782 406 765 c 0,6,7
 498 736 498 736 529 657 c 0,8,9
 541 626 541 626 541 607 c 128,-1,10
 541 588 541 588 539.5 566 c 128,-1,11
 538 544 538 544 523.5 506.5 c 128,-1,12
 509 469 509 469 491.5 447 c 128,-1,13
 474 425 474 425 454 406 c 128,-1,14
 434 387 434 387 426.5 375 c 128,-1,15
 419 363 419 363 419 349 c 128,-1,16
 419 335 419 335 433.5 323 c 128,-1,17
 448 311 448 311 469 299 c 128,-1,18
 490 287 490 287 510.5 272 c 128,-1,19
 531 257 531 257 545.5 231 c 128,-1,20
 560 205 560 205 560 172 c 2,21,-1
 560 147 l 1,22,23
 561 -8 561 -8 388 -8 c 0,24,25
 319 -8 319 -8 248 11 c 1,26,-1
 248 124 l 1,27,28
 313 118 313 118 331.5 118 c 128,-1,29
 350 118 350 118 359.5 121 c 128,-1,30
 369 124 369 124 378 130 c 0,31,32
 396 142 396 142 396 171 c 2,33,-1
 396 187 l 2,34,35
 396 216 396 216 349 241 c 0,36,37
 330 251 330 251 310 263 c 128,-1,38
 290 275 290 275 276 297.5 c 128,-1,39
 262 320 262 320 262 357.5 c 128,-1,40
 262 395 262 395 279 421 c 128,-1,41
 296 447 296 447 339 485 c 1,42,43
 377 520 377 520 377 562.5 c 128,-1,44
 377 605 377 605 355 620.5 c 128,-1,45
 333 636 333 636 288.5 636 c 128,-1,46
 244 636 244 636 224 605 c 128,-1,47
 204 574 204 574 204 498 c 2,48,-1
 204 0 l 1,49,-1
 40 0 l 1,0,-1
EndSplineSet
Substitution2: "'smcp' Lowercase to Small Capitals lookup 1 subtable" germandbls.smcp
EndChar

StartChar: agrave
Encoding: 224 224 161
Width: 519
GlyphClass: 2
Flags: W
LayerCount: 2
Fore
SplineSet
100 742 m 1,0,-1
 233 742 l 1,1,-1
 317 601 l 1,2,-1
 218 601 l 1,3,-1
 100 742 l 1,0,-1
26 139 m 2,4,-1
 26 185 l 2,5,6
 26 250 26 250 65 292.5 c 128,-1,7
 104 335 104 335 180 335 c 128,-1,8
 256 335 256 335 289 335 c 128,-1,9
 322 335 322 335 322 335 c 1,10,11
 323 356 323 356 322 357 c 1,12,13
 322 395 322 395 307 405.5 c 128,-1,14
 292 416 292 416 246 416 c 128,-1,15
 200 416 200 416 44 405 c 1,16,-1
 44 504 l 1,17,18
 94 525 94 525 148 533 c 0,19,20
 203 541 203 541 292.5 541 c 128,-1,21
 382 541 382 541 434 502 c 128,-1,22
 486 463 486 463 486 364 c 2,23,-1
 486 0 l 1,24,-1
 356 0 l 1,25,-1
 322 56 l 1,26,27
 314 39 314 39 275 16.5 c 128,-1,28
 236 -6 236 -6 189 -6 c 0,29,30
 107 -6 107 -6 66.5 39 c 128,-1,31
 26 84 26 84 26 139 c 2,4,-1
237 120 m 0,32,33
 285 120 285 120 322 158 c 1,34,-1
 322 239 l 1,35,-1
 228 231 l 2,36,37
 190 228 190 228 190 181 c 2,38,-1
 190 164 l 2,39,40
 190 133 190 133 206 126 c 1,41,42
 217 120 217 120 237 120 c 0,32,33
EndSplineSet
AlternateSubs2: "'salt' Stylistic Alternatives in Latin lookup 16 subtable" agrave.salt
Substitution2: "'smcp' Lowercase to Small Capitals lookup 1 subtable" agrave.smcp
EndChar

StartChar: aacute
Encoding: 225 225 162
Width: 519
GlyphClass: 2
Flags: W
LayerCount: 2
Fore
SplineSet
217 601 m 1,0,-1
 301 742 l 1,1,-1
 434 742 l 1,2,-1
 316 601 l 1,3,-1
 217 601 l 1,0,-1
26 139 m 2,4,-1
 26 185 l 2,5,6
 26 250 26 250 65 292.5 c 128,-1,7
 104 335 104 335 180 335 c 128,-1,8
 256 335 256 335 289 335 c 128,-1,9
 322 335 322 335 322 335 c 1,10,11
 323 356 323 356 322 357 c 1,12,13
 322 395 322 395 307 405.5 c 128,-1,14
 292 416 292 416 246 416 c 128,-1,15
 200 416 200 416 44 405 c 1,16,-1
 44 504 l 1,17,18
 94 525 94 525 148 533 c 0,19,20
 203 541 203 541 292.5 541 c 128,-1,21
 382 541 382 541 434 502 c 128,-1,22
 486 463 486 463 486 364 c 2,23,-1
 486 0 l 1,24,-1
 356 0 l 1,25,-1
 322 56 l 1,26,27
 314 39 314 39 275 16.5 c 128,-1,28
 236 -6 236 -6 189 -6 c 0,29,30
 107 -6 107 -6 66.5 39 c 128,-1,31
 26 84 26 84 26 139 c 2,4,-1
237 120 m 0,32,33
 285 120 285 120 322 158 c 1,34,-1
 322 239 l 1,35,-1
 228 231 l 2,36,37
 190 228 190 228 190 181 c 2,38,-1
 190 164 l 2,39,40
 190 133 190 133 206 126 c 1,41,42
 217 120 217 120 237 120 c 0,32,33
EndSplineSet
AlternateSubs2: "'salt' Stylistic Alternatives in Latin lookup 16 subtable" aacute.salt
Substitution2: "'smcp' Lowercase to Small Capitals lookup 1 subtable" aacute.smcp
EndChar

StartChar: acircumflex
Encoding: 226 226 163
Width: 519
GlyphClass: 2
Flags: W
LayerCount: 2
Fore
SplineSet
110 601 m 1,0,-1
 214 738 l 1,1,-1
 330 738 l 1,2,-1
 424 601 l 1,3,-1
 323 601 l 1,4,-1
 268 657 l 1,5,-1
 212 601 l 1,6,-1
 110 601 l 1,0,-1
26 139 m 2,7,-1
 26 185 l 2,8,9
 26 250 26 250 65 292.5 c 128,-1,10
 104 335 104 335 180 335 c 128,-1,11
 256 335 256 335 289 335 c 128,-1,12
 322 335 322 335 322 335 c 1,13,14
 323 356 323 356 322 357 c 1,15,16
 322 395 322 395 307 405.5 c 128,-1,17
 292 416 292 416 246 416 c 128,-1,18
 200 416 200 416 44 405 c 1,19,-1
 44 504 l 1,20,21
 94 525 94 525 148 533 c 0,22,23
 203 541 203 541 292.5 541 c 128,-1,24
 382 541 382 541 434 502 c 128,-1,25
 486 463 486 463 486 364 c 2,26,-1
 486 0 l 1,27,-1
 356 0 l 1,28,-1
 322 56 l 1,29,30
 314 39 314 39 275 16.5 c 128,-1,31
 236 -6 236 -6 189 -6 c 0,32,33
 107 -6 107 -6 66.5 39 c 128,-1,34
 26 84 26 84 26 139 c 2,7,-1
237 120 m 0,35,36
 285 120 285 120 322 158 c 1,37,-1
 322 239 l 1,38,-1
 228 231 l 2,39,40
 190 228 190 228 190 181 c 2,41,-1
 190 164 l 2,42,43
 190 133 190 133 206 126 c 1,44,45
 217 120 217 120 237 120 c 0,35,36
EndSplineSet
AlternateSubs2: "'salt' Stylistic Alternatives in Latin lookup 16 subtable" acircumflex.salt
Substitution2: "'smcp' Lowercase to Small Capitals lookup 1 subtable" acircumflex.smcp
EndChar

StartChar: atilde
Encoding: 227 227 164
Width: 519
GlyphClass: 2
Flags: W
LayerCount: 2
Fore
SplineSet
325 698 m 0,0,1
 369 698 369 698 413 737 c 1,2,-1
 438 671 l 1,3,4
 383 601 383 601 326 601 c 0,5,6
 302 601 302 601 266 618.5 c 128,-1,7
 230 636 230 636 207.5 636 c 128,-1,8
 185 636 185 636 166 628 c 128,-1,9
 147 620 147 620 118 601 c 1,10,-1
 93 662 l 1,11,12
 151 733 151 733 214 733 c 0,13,14
 238 733 238 733 271 715 c 0,15,16
 304 698 304 698 325 698 c 0,0,1
26 139 m 2,17,-1
 26 185 l 2,18,19
 26 250 26 250 65 292.5 c 128,-1,20
 104 335 104 335 180 335 c 128,-1,21
 256 335 256 335 289 335 c 128,-1,22
 322 335 322 335 322 335 c 1,23,24
 323 356 323 356 322 357 c 1,25,26
 322 395 322 395 307 405.5 c 128,-1,27
 292 416 292 416 246 416 c 128,-1,28
 200 416 200 416 44 405 c 1,29,-1
 44 504 l 1,30,31
 94 525 94 525 148 533 c 0,32,33
 203 541 203 541 292.5 541 c 128,-1,34
 382 541 382 541 434 502 c 128,-1,35
 486 463 486 463 486 364 c 2,36,-1
 486 0 l 1,37,-1
 356 0 l 1,38,-1
 322 56 l 1,39,40
 314 39 314 39 275 16.5 c 128,-1,41
 236 -6 236 -6 189 -6 c 0,42,43
 107 -6 107 -6 66.5 39 c 128,-1,44
 26 84 26 84 26 139 c 2,17,-1
237 120 m 0,45,46
 285 120 285 120 322 158 c 1,47,-1
 322 239 l 1,48,-1
 228 231 l 2,49,50
 190 228 190 228 190 181 c 2,51,-1
 190 164 l 2,52,53
 190 133 190 133 206 126 c 1,54,55
 217 120 217 120 237 120 c 0,45,46
EndSplineSet
AlternateSubs2: "'salt' Stylistic Alternatives in Latin lookup 16 subtable" atilde.salt
Substitution2: "'smcp' Lowercase to Small Capitals lookup 1 subtable" atilde.smcp
EndChar

StartChar: adieresis
Encoding: 228 228 165
Width: 519
GlyphClass: 2
Flags: W
LayerCount: 2
Fore
SplineSet
77 663.5 m 128,-1,1
 77 689 77 689 95.5 707 c 128,-1,2
 114 725 114 725 139.5 725 c 128,-1,3
 165 725 165 725 183 707 c 128,-1,4
 201 689 201 689 201 663.5 c 128,-1,5
 201 638 201 638 183 619.5 c 128,-1,6
 165 601 165 601 139.5 601 c 128,-1,7
 114 601 114 601 95.5 619.5 c 128,-1,0
 77 638 77 638 77 663.5 c 128,-1,1
332 663.5 m 128,-1,9
 332 689 332 689 350.5 707 c 128,-1,10
 369 725 369 725 394.5 725 c 128,-1,11
 420 725 420 725 438 707 c 128,-1,12
 456 689 456 689 456 663.5 c 128,-1,13
 456 638 456 638 438 619.5 c 128,-1,14
 420 601 420 601 394.5 601 c 128,-1,15
 369 601 369 601 350.5 619.5 c 128,-1,8
 332 638 332 638 332 663.5 c 128,-1,9
26 139 m 2,16,-1
 26 185 l 2,17,18
 26 250 26 250 65 292.5 c 128,-1,19
 104 335 104 335 180 335 c 128,-1,20
 256 335 256 335 289 335 c 128,-1,21
 322 335 322 335 322 335 c 1,22,23
 323 356 323 356 322 357 c 1,24,25
 322 395 322 395 307 405.5 c 128,-1,26
 292 416 292 416 246 416 c 128,-1,27
 200 416 200 416 44 405 c 1,28,-1
 44 504 l 1,29,30
 94 525 94 525 148 533 c 0,31,32
 203 541 203 541 292.5 541 c 128,-1,33
 382 541 382 541 434 502 c 128,-1,34
 486 463 486 463 486 364 c 2,35,-1
 486 0 l 1,36,-1
 356 0 l 1,37,-1
 322 56 l 1,38,39
 314 39 314 39 275 16.5 c 128,-1,40
 236 -6 236 -6 189 -6 c 0,41,42
 107 -6 107 -6 66.5 39 c 128,-1,43
 26 84 26 84 26 139 c 2,16,-1
237 120 m 0,44,45
 285 120 285 120 322 158 c 1,46,-1
 322 239 l 1,47,-1
 228 231 l 2,48,49
 190 228 190 228 190 181 c 2,50,-1
 190 164 l 2,51,52
 190 133 190 133 206 126 c 1,53,54
 217 120 217 120 237 120 c 0,44,45
EndSplineSet
AlternateSubs2: "'salt' Stylistic Alternatives in Latin lookup 16 subtable" adieresis.salt
Substitution2: "'smcp' Lowercase to Small Capitals lookup 1 subtable" adieresis.smcp
EndChar

StartChar: aring
Encoding: 229 229 166
Width: 519
GlyphClass: 2
Flags: W
LayerCount: 2
Fore
SplineSet
175 656 m 128,-1,1
 167 675 167 675 167 699.5 c 128,-1,2
 167 724 167 724 180.5 747.5 c 128,-1,3
 194 771 194 771 217.5 784.5 c 128,-1,4
 241 798 241 798 276 798 c 128,-1,5
 311 798 311 798 340.5 768 c 128,-1,6
 370 738 370 738 370 702.5 c 128,-1,7
 370 667 370 667 356.5 644 c 128,-1,8
 343 621 343 621 319.5 607.5 c 128,-1,9
 296 594 296 594 272 594 c 128,-1,10
 248 594 248 594 229 601.5 c 128,-1,11
 210 609 210 609 196.5 623 c 128,-1,0
 183 637 183 637 175 656 c 128,-1,1
229 695.5 m 128,-1,13
 229 679 229 679 240.5 668 c 128,-1,14
 252 657 252 657 268.5 657 c 128,-1,15
 285 657 285 657 296 668 c 128,-1,16
 307 679 307 679 307 695.5 c 128,-1,17
 307 712 307 712 296 723.5 c 128,-1,18
 285 735 285 735 268.5 735 c 128,-1,19
 252 735 252 735 240.5 723.5 c 128,-1,12
 229 712 229 712 229 695.5 c 128,-1,13
26 139 m 2,20,-1
 26 185 l 2,21,22
 26 250 26 250 65 292.5 c 128,-1,23
 104 335 104 335 180 335 c 128,-1,24
 256 335 256 335 289 335 c 128,-1,25
 322 335 322 335 322 335 c 1,26,27
 323 356 323 356 322 357 c 1,28,29
 322 395 322 395 307 405.5 c 128,-1,30
 292 416 292 416 246 416 c 128,-1,31
 200 416 200 416 44 405 c 1,32,-1
 44 504 l 1,33,34
 94 525 94 525 148 533 c 0,35,36
 203 541 203 541 292.5 541 c 128,-1,37
 382 541 382 541 434 502 c 128,-1,38
 486 463 486 463 486 364 c 2,39,-1
 486 0 l 1,40,-1
 356 0 l 1,41,-1
 322 56 l 1,42,43
 314 39 314 39 275 16.5 c 128,-1,44
 236 -6 236 -6 189 -6 c 0,45,46
 107 -6 107 -6 66.5 39 c 128,-1,47
 26 84 26 84 26 139 c 2,20,-1
237 120 m 0,48,49
 285 120 285 120 322 158 c 1,50,-1
 322 239 l 1,51,-1
 228 231 l 2,52,53
 190 228 190 228 190 181 c 2,54,-1
 190 164 l 2,55,56
 190 133 190 133 206 126 c 1,57,58
 217 120 217 120 237 120 c 0,48,49
EndSplineSet
AlternateSubs2: "'salt' Stylistic Alternatives in Latin lookup 16 subtable" aring.salt
Substitution2: "'smcp' Lowercase to Small Capitals lookup 1 subtable" aring.smcp
EndChar

StartChar: ae
Encoding: 230 230 167
Width: 832
GlyphClass: 2
Flags: W
LayerCount: 2
Fore
SplineSet
26 140 m 2,0,-1
 26 174 l 2,1,2
 26 286 26 286 125 315 c 0,3,4
 154 324 154 324 205 323.5 c 128,-1,5
 256 323 256 323 289 323 c 128,-1,6
 322 323 322 323 322 324 c 0,7,8
 323 341 323 341 323 349.5 c 128,-1,9
 323 358 323 358 322 358 c 1,10,11
 322 397 322 397 307 407.5 c 128,-1,12
 292 418 292 418 254 418 c 128,-1,13
 216 418 216 418 44 406 c 1,14,-1
 44 505 l 1,15,16
 93 527 93 527 146.5 534.5 c 128,-1,17
 200 542 200 542 280 542 c 1,18,19
 383 540 383 540 424 506 c 1,20,21
 454 524 454 524 488 530 c 128,-1,22
 522 536 522 536 574 536 c 128,-1,23
 626 536 626 536 660.5 532.5 c 128,-1,24
 695 529 695 529 725 518 c 128,-1,25
 755 507 755 507 772 486 c 0,26,27
 806 442 806 442 806 350 c 0,28,29
 806 276 806 276 766 247 c 0,30,31
 728 220 728 220 654 220 c 2,32,-1
 505 220 l 1,33,34
 505 161 505 161 532 141.5 c 128,-1,35
 559 122 559 122 622.5 122 c 128,-1,36
 686 122 686 122 715 123.5 c 128,-1,37
 744 125 744 125 796 133 c 1,38,-1
 796 24 l 1,39,40
 763 11 763 11 704.5 4 c 128,-1,41
 646 -3 646 -3 615 -3.5 c 128,-1,42
 584 -4 584 -4 524 -4 c 128,-1,43
 464 -4 464 -4 430.5 13 c 128,-1,44
 397 30 397 30 374 65 c 1,45,46
 364 42 364 42 301 18.5 c 128,-1,47
 238 -5 238 -5 187 -5 c 0,48,49
 107 -5 107 -5 66.5 40 c 128,-1,50
 26 85 26 85 26 140 c 2,0,-1
237 122 m 2,51,52
 285 122 285 122 322 160 c 1,53,-1
 322 229 l 1,54,-1
 228 221 l 2,55,56
 190 218 190 218 190 171 c 2,57,-1
 190 162 l 2,58,59
 190 133 190 133 204 127 c 0,60,61
 214 122 214 122 230 122 c 2,62,-1
 237 122 l 2,51,52
583 418 m 2,63,-1
 576 418 l 2,64,65
 552 418 552 418 542 416.5 c 128,-1,66
 532 415 532 415 521 406 c 128,-1,67
 510 397 510 397 507.5 379.5 c 128,-1,68
 505 362 505 362 505 345.5 c 128,-1,69
 505 329 505 329 505 324 c 1,70,-1
 604 324 l 2,71,72
 622 324 622 324 632 333.5 c 128,-1,73
 642 343 642 343 642 362 c 128,-1,74
 642 381 642 381 640.5 391.5 c 128,-1,75
 639 402 639 402 632 408.5 c 128,-1,76
 625 415 625 415 615 416.5 c 128,-1,77
 605 418 605 418 583 418 c 2,63,-1
EndSplineSet
Substitution2: "'smcp' Lowercase to Small Capitals lookup 1 subtable" ae.smcp
EndChar

StartChar: ccedilla
Encoding: 231 231 168
Width: 492
GlyphClass: 2
Flags: W
LayerCount: 2
Fore
SplineSet
284 -6 m 2,0,-1
 216 -5 l 2,1,2
 212 -5 212 -5 208 -6 c 1,3,4
 80 -6 80 -6 47 134 c 0,5,6
 34 188 34 188 34 253.5 c 128,-1,7
 34 319 34 319 39.5 360.5 c 128,-1,8
 45 402 45 402 56.5 431.5 c 128,-1,9
 68 461 68 461 83 481.5 c 128,-1,10
 98 502 98 502 118 514 c 0,11,12
 156 536 156 536 208 536 c 0,13,14
 365 536 365 536 459 502 c 1,15,-1
 459 404 l 1,16,17
 379 410 379 410 324.5 410 c 128,-1,18
 270 410 270 410 260 409 c 128,-1,19
 250 408 250 408 237 404 c 128,-1,20
 224 400 224 400 218.5 391 c 128,-1,21
 213 382 213 382 207 366 c 0,22,23
 198 339 198 339 198 281.5 c 128,-1,24
 198 224 198 224 201 199 c 128,-1,25
 204 174 204 174 209.5 157.5 c 128,-1,26
 215 141 215 141 227 134 c 0,27,28
 247 121 247 121 289 121 c 0,29,30
 372 121 372 121 443 128 c 2,31,-1
 466 130 l 1,32,-1
 466 30 l 1,33,34
 422 4 422 4 378 0 c 0,35,36
 321 -6 321 -6 284 -6 c 2,0,-1
222 -38 m 1,37,-1
 326 -38 l 1,38,39
 326 -116 326 -116 301 -148.5 c 128,-1,40
 276 -181 276 -181 210 -181 c 2,41,-1
 152 -181 l 1,42,-1
 152 -113 l 1,43,-1
 193 -98 l 1,44,45
 213 -89 213 -89 217.5 -78.5 c 128,-1,46
 222 -68 222 -68 222 -38 c 1,37,-1
EndSplineSet
Substitution2: "'smcp' Lowercase to Small Capitals lookup 1 subtable" ccedilla.smcp
EndChar

StartChar: egrave
Encoding: 232 232 169
Width: 525
GlyphClass: 2
Flags: W
LayerCount: 2
Fore
SplineSet
103 736 m 1,0,-1
 236 736 l 1,1,-1
 320 596 l 1,2,-1
 221 596 l 1,3,-1
 103 736 l 1,0,-1
314 121 m 0,4,5
 415 121 415 121 488 132 c 1,6,-1
 488 23 l 1,7,8
 455 9 455 9 396.5 2.5 c 128,-1,9
 338 -4 338 -4 307 -4.5 c 128,-1,10
 276 -5 276 -5 208 -5 c 0,11,12
 110 -5 110 -5 72 58 c 128,-1,13
 34 121 34 121 34 268 c 0,14,15
 34 353 34 353 45.5 405 c 128,-1,16
 57 457 57 457 86.5 486 c 128,-1,17
 116 515 116 515 157 525 c 128,-1,18
 198 535 198 535 254.5 535 c 128,-1,19
 311 535 311 535 340.5 532.5 c 128,-1,20
 370 530 370 530 398.5 523 c 128,-1,21
 427 516 427 516 444 503 c 128,-1,22
 461 490 461 490 474 468 c 0,23,24
 498 429 498 429 498 340 c 0,25,26
 498 233 498 233 411 210 c 0,27,28
 383 202 383 202 346 202 c 2,29,-1
 198 202 l 1,30,31
 198 150 198 150 218.5 136 c 128,-1,32
 239 122 239 122 277 121 c 0,33,34
 286 121 286 121 298.5 121 c 128,-1,35
 311 121 311 121 314 121 c 0,4,5
297 313 m 2,36,37
 321 313 321 313 330 330 c 0,38,39
 334 338 334 338 334 354.5 c 128,-1,40
 334 371 334 371 332.5 382.5 c 128,-1,41
 331 394 331 394 325 402 c 0,42,43
 315 416 315 416 283 416 c 128,-1,44
 251 416 251 416 238 413.5 c 128,-1,45
 225 411 225 411 214 401 c 0,46,47
 197 385 197 385 197 323 c 0,48,49
 197 318 197 318 198 313 c 1,50,-1
 297 313 l 2,36,37
EndSplineSet
Substitution2: "'smcp' Lowercase to Small Capitals lookup 1 subtable" egrave.smcp
EndChar

StartChar: eacute
Encoding: 233 233 170
Width: 525
GlyphClass: 2
Flags: W
LayerCount: 2
Fore
SplineSet
219 596 m 1,0,-1
 303 736 l 1,1,-1
 436 736 l 1,2,-1
 318 596 l 1,3,-1
 219 596 l 1,0,-1
314 121 m 0,4,5
 415 121 415 121 488 132 c 1,6,-1
 488 23 l 1,7,8
 455 9 455 9 396.5 2.5 c 128,-1,9
 338 -4 338 -4 307 -4.5 c 128,-1,10
 276 -5 276 -5 208 -5 c 0,11,12
 110 -5 110 -5 72 58 c 128,-1,13
 34 121 34 121 34 268 c 0,14,15
 34 353 34 353 45.5 405 c 128,-1,16
 57 457 57 457 86.5 486 c 128,-1,17
 116 515 116 515 157 525 c 128,-1,18
 198 535 198 535 254.5 535 c 128,-1,19
 311 535 311 535 340.5 532.5 c 128,-1,20
 370 530 370 530 398.5 523 c 128,-1,21
 427 516 427 516 444 503 c 128,-1,22
 461 490 461 490 474 468 c 0,23,24
 498 429 498 429 498 340 c 0,25,26
 498 233 498 233 411 210 c 0,27,28
 383 202 383 202 346 202 c 2,29,-1
 198 202 l 1,30,31
 198 150 198 150 218.5 136 c 128,-1,32
 239 122 239 122 277 121 c 0,33,34
 286 121 286 121 298.5 121 c 128,-1,35
 311 121 311 121 314 121 c 0,4,5
297 313 m 2,36,37
 321 313 321 313 330 330 c 0,38,39
 334 338 334 338 334 354.5 c 128,-1,40
 334 371 334 371 332.5 382.5 c 128,-1,41
 331 394 331 394 325 402 c 0,42,43
 315 416 315 416 283 416 c 128,-1,44
 251 416 251 416 238 413.5 c 128,-1,45
 225 411 225 411 214 401 c 0,46,47
 197 385 197 385 197 323 c 0,48,49
 197 318 197 318 198 313 c 1,50,-1
 297 313 l 2,36,37
EndSplineSet
Substitution2: "'smcp' Lowercase to Small Capitals lookup 1 subtable" eacute.smcp
EndChar

StartChar: ecircumflex
Encoding: 234 234 171
Width: 525
GlyphClass: 2
Flags: W
LayerCount: 2
Fore
SplineSet
106 596 m 1,0,-1
 210 734 l 1,1,-1
 326 734 l 1,2,-1
 421 596 l 1,3,-1
 320 596 l 1,4,-1
 265 652 l 1,5,-1
 208 596 l 1,6,-1
 106 596 l 1,0,-1
314 121 m 0,7,8
 415 121 415 121 488 132 c 1,9,-1
 488 23 l 1,10,11
 455 9 455 9 396.5 2.5 c 128,-1,12
 338 -4 338 -4 307 -4.5 c 128,-1,13
 276 -5 276 -5 208 -5 c 0,14,15
 110 -5 110 -5 72 58 c 128,-1,16
 34 121 34 121 34 268 c 0,17,18
 34 353 34 353 45.5 405 c 128,-1,19
 57 457 57 457 86.5 486 c 128,-1,20
 116 515 116 515 157 525 c 128,-1,21
 198 535 198 535 254.5 535 c 128,-1,22
 311 535 311 535 340.5 532.5 c 128,-1,23
 370 530 370 530 398.5 523 c 128,-1,24
 427 516 427 516 444 503 c 128,-1,25
 461 490 461 490 474 468 c 0,26,27
 498 429 498 429 498 340 c 0,28,29
 498 233 498 233 411 210 c 0,30,31
 383 202 383 202 346 202 c 2,32,-1
 198 202 l 1,33,34
 198 150 198 150 218.5 136 c 128,-1,35
 239 122 239 122 277 121 c 0,36,37
 286 121 286 121 298.5 121 c 128,-1,38
 311 121 311 121 314 121 c 0,7,8
297 313 m 2,39,40
 321 313 321 313 330 330 c 0,41,42
 334 338 334 338 334 354.5 c 128,-1,43
 334 371 334 371 332.5 382.5 c 128,-1,44
 331 394 331 394 325 402 c 0,45,46
 315 416 315 416 283 416 c 128,-1,47
 251 416 251 416 238 413.5 c 128,-1,48
 225 411 225 411 214 401 c 0,49,50
 197 385 197 385 197 323 c 0,51,52
 197 318 197 318 198 313 c 1,53,-1
 297 313 l 2,39,40
EndSplineSet
Substitution2: "'smcp' Lowercase to Small Capitals lookup 1 subtable" ecircumflex.smcp
EndChar

StartChar: edieresis
Encoding: 235 235 172
Width: 525
GlyphClass: 2
Flags: W
LayerCount: 2
Fore
SplineSet
74 658.5 m 128,-1,1
 74 684 74 684 92 702 c 128,-1,2
 110 720 110 720 135.5 720 c 128,-1,3
 161 720 161 720 179 702 c 128,-1,4
 197 684 197 684 197 658.5 c 128,-1,5
 197 633 197 633 179 614.5 c 128,-1,6
 161 596 161 596 135.5 596 c 128,-1,7
 110 596 110 596 92 614.5 c 128,-1,0
 74 633 74 633 74 658.5 c 128,-1,1
328 658.5 m 128,-1,9
 328 684 328 684 346.5 702 c 128,-1,10
 365 720 365 720 390.5 720 c 128,-1,11
 416 720 416 720 434 702 c 128,-1,12
 452 684 452 684 452 658.5 c 128,-1,13
 452 633 452 633 434 614.5 c 128,-1,14
 416 596 416 596 390.5 596 c 128,-1,15
 365 596 365 596 346.5 614.5 c 128,-1,8
 328 633 328 633 328 658.5 c 128,-1,9
314 121 m 0,16,17
 415 121 415 121 488 132 c 1,18,-1
 488 23 l 1,19,20
 455 9 455 9 396.5 2.5 c 128,-1,21
 338 -4 338 -4 307 -4.5 c 128,-1,22
 276 -5 276 -5 208 -5 c 0,23,24
 110 -5 110 -5 72 58 c 128,-1,25
 34 121 34 121 34 268 c 0,26,27
 34 353 34 353 45.5 405 c 128,-1,28
 57 457 57 457 86.5 486 c 128,-1,29
 116 515 116 515 157 525 c 128,-1,30
 198 535 198 535 254.5 535 c 128,-1,31
 311 535 311 535 340.5 532.5 c 128,-1,32
 370 530 370 530 398.5 523 c 128,-1,33
 427 516 427 516 444 503 c 128,-1,34
 461 490 461 490 474 468 c 0,35,36
 498 429 498 429 498 340 c 0,37,38
 498 233 498 233 411 210 c 0,39,40
 383 202 383 202 346 202 c 2,41,-1
 198 202 l 1,42,43
 198 150 198 150 218.5 136 c 128,-1,44
 239 122 239 122 277 121 c 0,45,46
 286 121 286 121 298.5 121 c 128,-1,47
 311 121 311 121 314 121 c 0,16,17
297 313 m 2,48,49
 321 313 321 313 330 330 c 0,50,51
 334 338 334 338 334 354.5 c 128,-1,52
 334 371 334 371 332.5 382.5 c 128,-1,53
 331 394 331 394 325 402 c 0,54,55
 315 416 315 416 283 416 c 128,-1,56
 251 416 251 416 238 413.5 c 128,-1,57
 225 411 225 411 214 401 c 0,58,59
 197 385 197 385 197 323 c 0,60,61
 197 318 197 318 198 313 c 1,62,-1
 297 313 l 2,48,49
EndSplineSet
Substitution2: "'smcp' Lowercase to Small Capitals lookup 1 subtable" edieresis.smcp
EndChar

StartChar: igrave
Encoding: 236 236 173
Width: 244
GlyphClass: 2
Flags: W
LayerCount: 2
Fore
SplineSet
-45 736 m 1,0,-1
 88 736 l 1,1,-1
 172 596 l 1,2,-1
 73 596 l 1,3,-1
 -45 736 l 1,0,-1
40 0 m 1,4,-1
 40 531 l 1,5,-1
 204 531 l 1,6,-1
 204 0 l 1,7,-1
 40 0 l 1,4,-1
EndSplineSet
Substitution2: "'smcp' Lowercase to Small Capitals lookup 1 subtable" igrave.smcp
EndChar

StartChar: iacute
Encoding: 237 237 174
Width: 244
GlyphClass: 2
Flags: W
LayerCount: 2
Fore
SplineSet
73 596 m 1,0,-1
 158 736 l 1,1,-1
 290 736 l 1,2,-1
 172 596 l 1,3,-1
 73 596 l 1,0,-1
40 0 m 1,4,-1
 40 531 l 1,5,-1
 204 531 l 1,6,-1
 204 0 l 1,7,-1
 40 0 l 1,4,-1
EndSplineSet
Substitution2: "'smcp' Lowercase to Small Capitals lookup 1 subtable" iacute.smcp
EndChar

StartChar: icircumflex
Encoding: 238 238 175
Width: 244
GlyphClass: 2
Flags: W
LayerCount: 2
Fore
SplineSet
-35 596 m 1,0,-1
 70 734 l 1,1,-1
 186 734 l 1,2,-1
 280 596 l 1,3,-1
 179 596 l 1,4,-1
 124 652 l 1,5,-1
 67 596 l 1,6,-1
 -35 596 l 1,0,-1
40 0 m 1,7,-1
 40 531 l 1,8,-1
 204 531 l 1,9,-1
 204 0 l 1,10,-1
 40 0 l 1,7,-1
EndSplineSet
Substitution2: "'smcp' Lowercase to Small Capitals lookup 1 subtable" icircumflex.smcp
EndChar

StartChar: idieresis
Encoding: 239 239 176
Width: 244
GlyphClass: 2
Flags: W
LayerCount: 2
Fore
SplineSet
-67 658.5 m 128,-1,1
 -67 684 -67 684 -48.5 702 c 128,-1,2
 -30 720 -30 720 -4.5 720 c 128,-1,3
 21 720 21 720 39 702 c 128,-1,4
 57 684 57 684 57 658.5 c 128,-1,5
 57 633 57 633 39 614.5 c 128,-1,6
 21 596 21 596 -4.5 596 c 128,-1,7
 -30 596 -30 596 -48.5 614.5 c 128,-1,0
 -67 633 -67 633 -67 658.5 c 128,-1,1
188 658.5 m 128,-1,9
 188 684 188 684 206.5 702 c 128,-1,10
 225 720 225 720 250.5 720 c 128,-1,11
 276 720 276 720 294 702 c 128,-1,12
 312 684 312 684 312 658.5 c 128,-1,13
 312 633 312 633 294 614.5 c 128,-1,14
 276 596 276 596 250.5 596 c 128,-1,15
 225 596 225 596 206.5 614.5 c 128,-1,8
 188 633 188 633 188 658.5 c 128,-1,9
40 0 m 1,16,-1
 40 531 l 1,17,-1
 204 531 l 1,18,-1
 204 0 l 1,19,-1
 40 0 l 1,16,-1
EndSplineSet
Substitution2: "'smcp' Lowercase to Small Capitals lookup 1 subtable" idieresis.smcp
EndChar

StartChar: eth
Encoding: 240 240 177
Width: 541
GlyphClass: 2
Flags: W
LayerCount: 2
Fore
SplineSet
70.5 64 m 128,-1,1
 26 128 26 128 26 261.5 c 128,-1,2
 26 395 26 395 72 463 c 128,-1,3
 118 531 118 531 216 531 c 2,4,-1
 256 531 l 2,5,6
 316 531 316 531 334 524 c 1,7,8
 319 576 319 576 282 608 c 1,9,-1
 180 556 l 1,10,-1
 150 612 l 1,11,-1
 209 642 l 1,12,13
 174 651 174 651 136.5 651 c 128,-1,14
 99 651 99 651 85 650 c 1,15,-1
 85 783 l 1,16,17
 262 783 262 783 358 722 c 1,18,-1
 441 764 l 1,19,-1
 472 707 l 1,20,-1
 413 678 l 1,21,22
 472 613 472 613 493 511 c 128,-1,23
 514 409 514 409 514 264 c 0,24,25
 514 0 514 0 324 0 c 2,26,-1
 216 0 l 2,27,0
 115 0 115 0 70.5 64 c 128,-1,1
196 339.5 m 128,-1,29
 190 314 190 314 190 253 c 128,-1,30
 190 192 190 192 201.5 171.5 c 128,-1,31
 213 151 213 151 248 151 c 2,32,-1
 294 151 l 2,33,34
 331 151 331 151 340.5 172.5 c 128,-1,35
 350 194 350 194 350 268 c 128,-1,36
 350 342 350 342 341 362 c 128,-1,37
 332 382 332 382 294 382 c 2,38,-1
 248 382 l 2,39,40
 226 382 226 382 214 373.5 c 128,-1,28
 202 365 202 365 196 339.5 c 128,-1,29
EndSplineSet
Substitution2: "'smcp' Lowercase to Small Capitals lookup 1 subtable" eth.smcp
EndChar

StartChar: ntilde
Encoding: 241 241 178
Width: 552
GlyphClass: 2
Flags: W
LayerCount: 2
Fore
SplineSet
340 697 m 0,0,1
 383 697 383 697 428 736 c 1,2,-1
 453 670 l 1,3,4
 397 600 397 600 341 600 c 0,5,6
 317 600 317 600 281 617.5 c 128,-1,7
 245 635 245 635 222 635 c 128,-1,8
 199 635 199 635 180.5 627 c 128,-1,9
 162 619 162 619 133 600 c 1,10,-1
 107 660 l 1,11,12
 166 732 166 732 229 732 c 0,13,14
 253 732 253 732 285 714 c 1,15,16
 318 697 318 697 340 697 c 0,0,1
40 0 m 1,17,-1
 40 531 l 1,18,-1
 175 531 l 1,19,-1
 204 476 l 1,20,21
 232 498 232 498 247 508.5 c 128,-1,22
 262 519 262 519 293.5 529.5 c 128,-1,23
 325 540 325 540 367.5 540 c 128,-1,24
 410 540 410 540 442 525.5 c 128,-1,25
 474 511 474 511 490 483 c 0,26,27
 520 433 520 433 520 348 c 2,28,-1
 520 0 l 1,29,-1
 356 0 l 1,30,-1
 356 350 l 2,31,32
 356 396 356 396 334 408 c 0,33,34
 324 414 324 414 298 414 c 0,35,36
 245 414 245 414 204 372 c 1,37,-1
 204 0 l 1,38,-1
 40 0 l 1,17,-1
EndSplineSet
AlternateSubs2: "'salt' Stylistic Alternatives in Latin lookup 16 subtable" ntilde.salt
Substitution2: "'smcp' Lowercase to Small Capitals lookup 1 subtable" ntilde.smcp
EndChar

StartChar: ograve
Encoding: 242 242 179
Width: 557
GlyphClass: 2
Flags: W
LayerCount: 2
Fore
SplineSet
114 736 m 1,0,-1
 246 736 l 1,1,-1
 331 596 l 1,2,-1
 232 596 l 1,3,-1
 114 736 l 1,0,-1
34 258 m 0,4,5
 34 367 34 367 58 427 c 128,-1,6
 82 487 82 487 133.5 511.5 c 128,-1,7
 185 536 185 536 279 536 c 0,8,9
 417 536 417 536 470.5 476 c 128,-1,10
 524 416 524 416 524 262.5 c 128,-1,11
 524 109 524 109 471.5 52 c 128,-1,12
 419 -5 419 -5 280.5 -5 c 128,-1,13
 142 -5 142 -5 88 54.5 c 128,-1,14
 34 114 34 114 34 258 c 0,4,5
198 245 m 128,-1,16
 198 196 198 196 205.5 167.5 c 128,-1,17
 213 139 213 139 228.5 130.5 c 128,-1,18
 244 122 244 122 273 122 c 128,-1,19
 302 122 302 122 314 124 c 128,-1,20
 326 126 326 126 336.5 132.5 c 128,-1,21
 347 139 347 139 351 155 c 0,22,23
 360 188 360 188 360 244.5 c 128,-1,24
 360 301 360 301 358 325.5 c 128,-1,25
 356 350 356 350 352 368.5 c 128,-1,26
 348 387 348 387 338 395 c 0,27,28
 310 417 310 417 248 408 c 0,29,30
 222 404 222 404 211 384 c 256,31,32
 200 364 200 364 199 329 c 128,-1,15
 198 294 198 294 198 245 c 128,-1,16
EndSplineSet
Substitution2: "'smcp' Lowercase to Small Capitals lookup 1 subtable" ograve.smcp
EndChar

StartChar: oacute
Encoding: 243 243 180
Width: 557
GlyphClass: 2
Flags: W
LayerCount: 2
Fore
SplineSet
229 596 m 1,0,-1
 314 736 l 1,1,-1
 446 736 l 1,2,-1
 328 596 l 1,3,-1
 229 596 l 1,0,-1
34 258 m 0,4,5
 34 367 34 367 58 427 c 128,-1,6
 82 487 82 487 133.5 511.5 c 128,-1,7
 185 536 185 536 279 536 c 0,8,9
 417 536 417 536 470.5 476 c 128,-1,10
 524 416 524 416 524 262.5 c 128,-1,11
 524 109 524 109 471.5 52 c 128,-1,12
 419 -5 419 -5 280.5 -5 c 128,-1,13
 142 -5 142 -5 88 54.5 c 128,-1,14
 34 114 34 114 34 258 c 0,4,5
198 245 m 128,-1,16
 198 196 198 196 205.5 167.5 c 128,-1,17
 213 139 213 139 228.5 130.5 c 128,-1,18
 244 122 244 122 273 122 c 128,-1,19
 302 122 302 122 314 124 c 128,-1,20
 326 126 326 126 336.5 132.5 c 128,-1,21
 347 139 347 139 351 155 c 0,22,23
 360 188 360 188 360 244.5 c 128,-1,24
 360 301 360 301 358 325.5 c 128,-1,25
 356 350 356 350 352 368.5 c 128,-1,26
 348 387 348 387 338 395 c 0,27,28
 310 417 310 417 248 408 c 0,29,30
 222 404 222 404 211 384 c 256,31,32
 200 364 200 364 199 329 c 128,-1,15
 198 294 198 294 198 245 c 128,-1,16
EndSplineSet
Substitution2: "'smcp' Lowercase to Small Capitals lookup 1 subtable" oacute.smcp
EndChar

StartChar: ocircumflex
Encoding: 244 244 181
Width: 557
GlyphClass: 2
Flags: W
LayerCount: 2
Fore
SplineSet
123 596 m 1,0,-1
 227 734 l 1,1,-1
 343 734 l 1,2,-1
 437 596 l 1,3,-1
 336 596 l 1,4,-1
 282 652 l 1,5,-1
 225 596 l 1,6,-1
 123 596 l 1,0,-1
34 258 m 0,7,8
 34 367 34 367 58 427 c 128,-1,9
 82 487 82 487 133.5 511.5 c 128,-1,10
 185 536 185 536 279 536 c 0,11,12
 417 536 417 536 470.5 476 c 128,-1,13
 524 416 524 416 524 262.5 c 128,-1,14
 524 109 524 109 471.5 52 c 128,-1,15
 419 -5 419 -5 280.5 -5 c 128,-1,16
 142 -5 142 -5 88 54.5 c 128,-1,17
 34 114 34 114 34 258 c 0,7,8
198 245 m 128,-1,19
 198 196 198 196 205.5 167.5 c 128,-1,20
 213 139 213 139 228.5 130.5 c 128,-1,21
 244 122 244 122 273 122 c 128,-1,22
 302 122 302 122 314 124 c 128,-1,23
 326 126 326 126 336.5 132.5 c 128,-1,24
 347 139 347 139 351 155 c 0,25,26
 360 188 360 188 360 244.5 c 128,-1,27
 360 301 360 301 358 325.5 c 128,-1,28
 356 350 356 350 352 368.5 c 128,-1,29
 348 387 348 387 338 395 c 0,30,31
 310 417 310 417 248 408 c 0,32,33
 222 404 222 404 211 384 c 256,34,35
 200 364 200 364 199 329 c 128,-1,18
 198 294 198 294 198 245 c 128,-1,19
EndSplineSet
Substitution2: "'smcp' Lowercase to Small Capitals lookup 1 subtable" ocircumflex.smcp
EndChar

StartChar: otilde
Encoding: 245 245 182
Width: 557
GlyphClass: 2
Flags: W
LayerCount: 2
Fore
SplineSet
341 693 m 0,0,1
 384 693 384 693 429 732 c 1,2,-1
 454 666 l 1,3,4
 398 596 398 596 342 596 c 0,5,6
 318 596 318 596 282 613.5 c 128,-1,7
 246 631 246 631 223 631 c 128,-1,8
 200 631 200 631 181.5 623 c 128,-1,9
 163 615 163 615 134 596 c 1,10,-1
 108 656 l 1,11,12
 167 728 167 728 230 728 c 0,13,14
 254 728 254 728 286 710 c 1,15,16
 319 693 319 693 341 693 c 0,0,1
34 258 m 0,17,18
 34 367 34 367 58 427 c 128,-1,19
 82 487 82 487 133.5 511.5 c 128,-1,20
 185 536 185 536 279 536 c 0,21,22
 417 536 417 536 470.5 476 c 128,-1,23
 524 416 524 416 524 262.5 c 128,-1,24
 524 109 524 109 471.5 52 c 128,-1,25
 419 -5 419 -5 280.5 -5 c 128,-1,26
 142 -5 142 -5 88 54.5 c 128,-1,27
 34 114 34 114 34 258 c 0,17,18
198 245 m 128,-1,29
 198 196 198 196 205.5 167.5 c 128,-1,30
 213 139 213 139 228.5 130.5 c 128,-1,31
 244 122 244 122 273 122 c 128,-1,32
 302 122 302 122 314 124 c 128,-1,33
 326 126 326 126 336.5 132.5 c 128,-1,34
 347 139 347 139 351 155 c 0,35,36
 360 188 360 188 360 244.5 c 128,-1,37
 360 301 360 301 358 325.5 c 128,-1,38
 356 350 356 350 352 368.5 c 128,-1,39
 348 387 348 387 338 395 c 0,40,41
 310 417 310 417 248 408 c 0,42,43
 222 404 222 404 211 384 c 256,44,45
 200 364 200 364 199 329 c 128,-1,28
 198 294 198 294 198 245 c 128,-1,29
EndSplineSet
Substitution2: "'smcp' Lowercase to Small Capitals lookup 1 subtable" otilde.smcp
EndChar

StartChar: odieresis
Encoding: 246 246 183
Width: 557
GlyphClass: 2
Flags: W
LayerCount: 2
Fore
SplineSet
108 614.5 m 128,-1,1
 90 633 90 633 90 654 c 128,-1,2
 90 675 90 675 98 689 c 0,3,4
 116 720 116 720 147 720 c 128,-1,5
 178 720 178 720 195.5 702 c 128,-1,6
 213 684 213 684 213 658.5 c 128,-1,7
 213 633 213 633 195 614.5 c 128,-1,8
 177 596 177 596 151.5 596 c 128,-1,0
 126 596 126 596 108 614.5 c 128,-1,1
345 658.5 m 128,-1,10
 345 684 345 684 363 702 c 128,-1,11
 381 720 381 720 406.5 720 c 128,-1,12
 432 720 432 720 450 702 c 128,-1,13
 468 684 468 684 468 658.5 c 128,-1,14
 468 633 468 633 450 614.5 c 128,-1,15
 432 596 432 596 407 596 c 128,-1,16
 382 596 382 596 363.5 614.5 c 128,-1,9
 345 633 345 633 345 658.5 c 128,-1,10
34 258 m 0,17,18
 34 367 34 367 58 427 c 128,-1,19
 82 487 82 487 133.5 511.5 c 128,-1,20
 185 536 185 536 279 536 c 0,21,22
 417 536 417 536 470.5 476 c 128,-1,23
 524 416 524 416 524 262.5 c 128,-1,24
 524 109 524 109 471.5 52 c 128,-1,25
 419 -5 419 -5 280.5 -5 c 128,-1,26
 142 -5 142 -5 88 54.5 c 128,-1,27
 34 114 34 114 34 258 c 0,17,18
198 245 m 128,-1,29
 198 196 198 196 205.5 167.5 c 128,-1,30
 213 139 213 139 228.5 130.5 c 128,-1,31
 244 122 244 122 273 122 c 128,-1,32
 302 122 302 122 314 124 c 128,-1,33
 326 126 326 126 336.5 132.5 c 128,-1,34
 347 139 347 139 351 155 c 0,35,36
 360 188 360 188 360 244.5 c 128,-1,37
 360 301 360 301 358 325.5 c 128,-1,38
 356 350 356 350 352 368.5 c 128,-1,39
 348 387 348 387 338 395 c 0,40,41
 310 417 310 417 248 408 c 0,42,43
 222 404 222 404 211 384 c 256,44,45
 200 364 200 364 199 329 c 128,-1,28
 198 294 198 294 198 245 c 128,-1,29
EndSplineSet
Substitution2: "'smcp' Lowercase to Small Capitals lookup 1 subtable" odieresis.smcp
EndChar

StartChar: divide
Encoding: 247 247 184
Width: 491
GlyphClass: 2
Flags: W
LayerCount: 2
Fore
SplineSet
34 286 m 1,0,-1
 34 420 l 1,1,-1
 458 420 l 1,2,-1
 458 286 l 1,3,-1
 34 286 l 1,0,-1
177 148 m 2,4,-1
 177 220 l 2,5,6
 177 244 177 244 201 244 c 2,7,-1
 283 244 l 2,8,9
 308 244 308 244 308 220 c 2,10,-1
 308 148 l 2,11,12
 308 125 308 125 283 125 c 2,13,-1
 201 125 l 2,14,15
 190 125 190 125 183.5 131.5 c 128,-1,16
 177 138 177 138 177 148 c 2,4,-1
177 480 m 2,17,-1
 177 552 l 2,18,19
 177 576 177 576 201 576 c 2,20,-1
 283 576 l 2,21,22
 308 576 308 576 308 552 c 2,23,-1
 308 480 l 2,24,25
 308 457 308 457 283 457 c 2,26,-1
 201 457 l 2,27,28
 184 457 184 457 179 471 c 0,29,30
 177 475 177 475 177 480 c 2,17,-1
EndSplineSet
EndChar

StartChar: oslash
Encoding: 248 248 185
Width: 586
GlyphClass: 2
Flags: W
LayerCount: 2
Fore
SplineSet
90 69 m 1,0,1
 48 128 48 128 48 247.5 c 128,-1,2
 48 367 48 367 72.5 427 c 128,-1,3
 97 487 97 487 148.5 511.5 c 128,-1,4
 200 536 200 536 298 536 c 128,-1,5
 396 536 396 536 448 506 c 1,6,-1
 468 531 l 1,7,-1
 550 531 l 1,8,-1
 495 464 l 1,9,10
 539 404 539 404 539 256.5 c 128,-1,11
 539 109 539 109 486.5 52 c 128,-1,12
 434 -5 434 -5 294 -5 c 0,13,14
 190 -5 190 -5 136 27 c 1,15,-1
 114 0 l 1,16,-1
 34 0 l 1,17,-1
 90 69 l 1,0,1
213 316 m 128,-1,19
 212 294 212 294 212 264 c 128,-1,20
 212 234 212 234 218 221 c 1,21,-1
 353 392 l 1,22,23
 339 410 339 410 294 410 c 0,24,25
 256 410 256 410 243.5 401.5 c 128,-1,26
 231 393 231 393 226 384 c 128,-1,27
 221 375 221 375 217.5 356.5 c 128,-1,18
 214 338 214 338 213 316 c 128,-1,19
254 126 m 128,-1,29
 268 122 268 122 292.5 122 c 128,-1,30
 317 122 317 122 329 124 c 128,-1,31
 341 126 341 126 351.5 132.5 c 128,-1,32
 362 139 362 139 366 155 c 0,33,34
 375 188 375 188 375 242 c 128,-1,35
 375 296 375 296 369 314 c 1,36,-1
 232 142 l 1,37,28
 240 130 240 130 254 126 c 128,-1,29
EndSplineSet
Substitution2: "'smcp' Lowercase to Small Capitals lookup 1 subtable" oslash.smcp
EndChar

StartChar: ugrave
Encoding: 249 249 186
Width: 552
GlyphClass: 2
Flags: W
LayerCount: 2
Fore
SplineSet
108 736 m 1,0,-1
 240 736 l 1,1,-1
 325 596 l 1,2,-1
 226 596 l 1,3,-1
 108 736 l 1,0,-1
34 184 m 2,4,-1
 34 531 l 1,5,-1
 198 531 l 1,6,-1
 198 180 l 2,7,8
 198 135 198 135 219 123 c 0,9,10
 229 118 229 118 255 118 c 0,11,12
 308 118 308 118 348 160 c 1,13,-1
 348 531 l 1,14,-1
 512 531 l 1,15,-1
 512 0 l 1,16,-1
 378 0 l 1,17,-1
 348 54 l 1,18,19
 338 48 338 48 321 36.5 c 128,-1,20
 304 25 304 25 293.5 18.5 c 128,-1,21
 283 12 283 12 267 5 c 0,22,23
 237 -9 237 -9 190 -9 c 128,-1,24
 143 -9 143 -9 111 5.5 c 128,-1,25
 79 20 79 20 63 48 c 0,26,27
 34 98 34 98 34 184 c 2,4,-1
EndSplineSet
AlternateSubs2: "'salt' Stylistic Alternatives in Latin lookup 16 subtable" ugrave.salt
Substitution2: "'smcp' Lowercase to Small Capitals lookup 1 subtable" ugrave.smcp
EndChar

StartChar: uacute
Encoding: 250 250 187
Width: 552
GlyphClass: 2
Flags: W
LayerCount: 2
Fore
SplineSet
224 596 m 1,0,-1
 308 736 l 1,1,-1
 440 736 l 1,2,-1
 322 596 l 1,3,-1
 224 596 l 1,0,-1
34 184 m 2,4,-1
 34 531 l 1,5,-1
 198 531 l 1,6,-1
 198 180 l 2,7,8
 198 135 198 135 219 123 c 0,9,10
 229 118 229 118 255 118 c 0,11,12
 308 118 308 118 348 160 c 1,13,-1
 348 531 l 1,14,-1
 512 531 l 1,15,-1
 512 0 l 1,16,-1
 378 0 l 1,17,-1
 348 54 l 1,18,19
 338 48 338 48 321 36.5 c 128,-1,20
 304 25 304 25 293.5 18.5 c 128,-1,21
 283 12 283 12 267 5 c 0,22,23
 237 -9 237 -9 190 -9 c 128,-1,24
 143 -9 143 -9 111 5.5 c 128,-1,25
 79 20 79 20 63 48 c 0,26,27
 34 98 34 98 34 184 c 2,4,-1
EndSplineSet
AlternateSubs2: "'salt' Stylistic Alternatives in Latin lookup 16 subtable" uacute.salt
Substitution2: "'smcp' Lowercase to Small Capitals lookup 1 subtable" uacute.smcp
EndChar

StartChar: ucircumflex
Encoding: 251 251 188
Width: 552
GlyphClass: 2
Flags: W
LayerCount: 2
Fore
SplineSet
116 596 m 1,0,-1
 220 734 l 1,1,-1
 336 734 l 1,2,-1
 430 596 l 1,3,-1
 329 596 l 1,4,-1
 275 652 l 1,5,-1
 218 596 l 1,6,-1
 116 596 l 1,0,-1
34 184 m 2,7,-1
 34 531 l 1,8,-1
 198 531 l 1,9,-1
 198 180 l 2,10,11
 198 135 198 135 219 123 c 0,12,13
 229 118 229 118 255 118 c 0,14,15
 308 118 308 118 348 160 c 1,16,-1
 348 531 l 1,17,-1
 512 531 l 1,18,-1
 512 0 l 1,19,-1
 378 0 l 1,20,-1
 348 54 l 1,21,22
 338 48 338 48 321 36.5 c 128,-1,23
 304 25 304 25 293.5 18.5 c 128,-1,24
 283 12 283 12 267 5 c 0,25,26
 237 -9 237 -9 190 -9 c 128,-1,27
 143 -9 143 -9 111 5.5 c 128,-1,28
 79 20 79 20 63 48 c 0,29,30
 34 98 34 98 34 184 c 2,7,-1
EndSplineSet
AlternateSubs2: "'salt' Stylistic Alternatives in Latin lookup 16 subtable" ucircumflex.salt
Substitution2: "'smcp' Lowercase to Small Capitals lookup 1 subtable" ucircumflex.smcp
EndChar

StartChar: udieresis
Encoding: 252 252 189
Width: 552
GlyphClass: 2
Flags: W
LayerCount: 2
Fore
SplineSet
84 658.5 m 128,-1,1
 84 684 84 684 102 702 c 128,-1,2
 120 720 120 720 146 720 c 128,-1,3
 172 720 172 720 189.5 702 c 128,-1,4
 207 684 207 684 207 658.5 c 128,-1,5
 207 633 207 633 189 614.5 c 128,-1,6
 171 596 171 596 145.5 596 c 128,-1,7
 120 596 120 596 102 614.5 c 128,-1,0
 84 633 84 633 84 658.5 c 128,-1,1
339 658.5 m 128,-1,9
 339 684 339 684 357 702 c 128,-1,10
 375 720 375 720 400.5 720 c 128,-1,11
 426 720 426 720 444 702 c 128,-1,12
 462 684 462 684 462 658.5 c 128,-1,13
 462 633 462 633 444 614.5 c 128,-1,14
 426 596 426 596 401 596 c 128,-1,15
 376 596 376 596 357.5 614.5 c 128,-1,8
 339 633 339 633 339 658.5 c 128,-1,9
34 184 m 2,16,-1
 34 531 l 1,17,-1
 198 531 l 1,18,-1
 198 180 l 2,19,20
 198 135 198 135 219 123 c 0,21,22
 229 118 229 118 255 118 c 0,23,24
 308 118 308 118 348 160 c 1,25,-1
 348 531 l 1,26,-1
 512 531 l 1,27,-1
 512 0 l 1,28,-1
 378 0 l 1,29,-1
 348 54 l 1,30,31
 338 48 338 48 321 36.5 c 128,-1,32
 304 25 304 25 293.5 18.5 c 128,-1,33
 283 12 283 12 267 5 c 0,34,35
 237 -9 237 -9 190 -9 c 128,-1,36
 143 -9 143 -9 111 5.5 c 128,-1,37
 79 20 79 20 63 48 c 0,38,39
 34 98 34 98 34 184 c 2,16,-1
EndSplineSet
AlternateSubs2: "'salt' Stylistic Alternatives in Latin lookup 16 subtable" udieresis.salt
Substitution2: "'smcp' Lowercase to Small Capitals lookup 1 subtable" udieresis.smcp
EndChar

StartChar: yacute
Encoding: 253 253 190
Width: 587
GlyphClass: 2
Flags: W
LayerCount: 2
Fore
SplineSet
243 596 m 1,0,-1
 327 736 l 1,1,-1
 460 736 l 1,2,-1
 342 596 l 1,3,-1
 243 596 l 1,0,-1
14 531 m 1,4,-1
 185 531 l 1,5,-1
 263 175 l 1,6,7
 272 139 272 139 312 136 c 1,8,-1
 402 531 l 1,9,-1
 570 531 l 1,10,-1
 404 -168 l 1,11,-1
 332 -270 l 1,12,-1
 213 -270 l 1,13,-1
 281 0 l 1,14,15
 145 0 145 0 109 144 c 2,16,-1
 14 531 l 1,4,-1
EndSplineSet
Substitution2: "'smcp' Lowercase to Small Capitals lookup 1 subtable" yacute.smcp
EndChar

StartChar: thorn
Encoding: 254 254 191
Width: 557
GlyphClass: 2
Flags: W
LayerCount: 2
Fore
SplineSet
47 -270 m 1,0,-1
 47 782 l 1,1,-1
 211 782 l 1,2,-1
 211 474 l 1,3,4
 282 532 282 532 358 532 c 0,5,6
 448 532 448 532 489 465 c 128,-1,7
 530 398 530 398 530 262 c 0,8,9
 530 97 530 97 482 37 c 0,10,11
 441 -14 441 -14 357 -14 c 128,-1,12
 273 -14 273 -14 211 22 c 1,13,-1
 211 -270 l 1,14,-1
 47 -270 l 1,0,-1
359 162 m 128,-1,16
 366 195 366 195 366 265.5 c 128,-1,17
 366 336 366 336 352 366 c 128,-1,18
 338 396 338 396 308 396 c 0,19,20
 244 395 244 395 211 367 c 1,21,-1
 211 126 l 1,22,23
 243 111 243 111 308 109 c 0,24,25
 328 109 328 109 340 119 c 128,-1,15
 352 129 352 129 359 162 c 128,-1,16
EndSplineSet
Substitution2: "'smcp' Lowercase to Small Capitals lookup 1 subtable" thorn.smcp
EndChar

StartChar: ydieresis
Encoding: 255 255 192
Width: 587
GlyphClass: 2
Flags: W
LayerCount: 2
Fore
SplineSet
121.5 614.5 m 128,-1,1
 103 633 103 633 103 654 c 128,-1,2
 103 675 103 675 111 689 c 0,3,4
 130 720 130 720 160.5 720 c 128,-1,5
 191 720 191 720 208.5 702 c 128,-1,6
 226 684 226 684 226 658.5 c 128,-1,7
 226 633 226 633 208.5 614.5 c 128,-1,8
 191 596 191 596 165.5 596 c 128,-1,0
 140 596 140 596 121.5 614.5 c 128,-1,1
358 658.5 m 128,-1,10
 358 684 358 684 376.5 702 c 128,-1,11
 395 720 395 720 420.5 720 c 128,-1,12
 446 720 446 720 464 702 c 128,-1,13
 482 684 482 684 482 658.5 c 128,-1,14
 482 633 482 633 464 614.5 c 128,-1,15
 446 596 446 596 420.5 596 c 128,-1,16
 395 596 395 596 376.5 614.5 c 128,-1,9
 358 633 358 633 358 658.5 c 128,-1,10
14 531 m 1,17,-1
 185 531 l 1,18,-1
 263 175 l 1,19,20
 272 139 272 139 312 136 c 1,21,-1
 402 531 l 1,22,-1
 570 531 l 1,23,-1
 404 -168 l 1,24,-1
 332 -270 l 1,25,-1
 213 -270 l 1,26,-1
 281 0 l 1,27,28
 145 0 145 0 109 144 c 2,29,-1
 14 531 l 1,17,-1
EndSplineSet
Substitution2: "'smcp' Lowercase to Small Capitals lookup 1 subtable" ydieresis.smcp
EndChar

StartChar: Amacron
Encoding: 256 256 193
Width: 700
GlyphClass: 2
Flags: W
LayerCount: 2
Fore
SplineSet
218 797 m 1,0,-1
 218 882 l 1,1,-1
 510 882 l 1,2,-1
 510 797 l 1,3,-1
 218 797 l 1,0,-1
30 0 m 1,4,-1
 269 732 l 1,5,-1
 459 732 l 1,6,-1
 690 0 l 1,7,-1
 519 0 l 1,8,-1
 471 147 l 1,9,-1
 250 147 l 1,10,-1
 202 0 l 1,11,-1
 30 0 l 1,4,-1
290 289 m 1,12,-1
 435 289 l 1,13,-1
 366 522 l 1,14,-1
 290 289 l 1,12,-1
EndSplineSet
Substitution2: "'c2sc' Capitals to Small Capitals in Latin lookup 2 subtable" amacron.smcp
EndChar

StartChar: amacron
Encoding: 257 257 194
Width: 519
GlyphClass: 2
Flags: W
LayerCount: 2
Fore
SplineSet
123 601 m 1,0,-1
 123 686 l 1,1,-1
 415 686 l 1,2,-1
 415 601 l 1,3,-1
 123 601 l 1,0,-1
26 139 m 2,4,-1
 26 185 l 2,5,6
 26 250 26 250 65 292.5 c 128,-1,7
 104 335 104 335 180 335 c 128,-1,8
 256 335 256 335 289 335 c 128,-1,9
 322 335 322 335 322 335 c 1,10,11
 323 356 323 356 322 357 c 1,12,13
 322 395 322 395 307 405.5 c 128,-1,14
 292 416 292 416 246 416 c 128,-1,15
 200 416 200 416 44 405 c 1,16,-1
 44 504 l 1,17,18
 94 525 94 525 148 533 c 0,19,20
 203 541 203 541 292.5 541 c 128,-1,21
 382 541 382 541 434 502 c 128,-1,22
 486 463 486 463 486 364 c 2,23,-1
 486 0 l 1,24,-1
 356 0 l 1,25,-1
 322 56 l 1,26,27
 314 39 314 39 275 16.5 c 128,-1,28
 236 -6 236 -6 189 -6 c 0,29,30
 107 -6 107 -6 66.5 39 c 128,-1,31
 26 84 26 84 26 139 c 2,4,-1
237 120 m 0,32,33
 285 120 285 120 322 158 c 1,34,-1
 322 239 l 1,35,-1
 228 231 l 2,36,37
 190 228 190 228 190 181 c 2,38,-1
 190 164 l 2,39,40
 190 133 190 133 206 126 c 1,41,42
 217 120 217 120 237 120 c 0,32,33
EndSplineSet
AlternateSubs2: "'salt' Stylistic Alternatives in Latin lookup 16 subtable" amacron.salt
Substitution2: "'smcp' Lowercase to Small Capitals lookup 1 subtable" amacron.smcp
EndChar

StartChar: Abreve
Encoding: 258 258 195
Width: 700
GlyphClass: 2
Flags: W
LayerCount: 2
Fore
SplineSet
249 911 m 1,0,-1
 311 911 l 1,1,2
 311 887 311 887 325 873 c 128,-1,3
 339 859 339 859 363 859 c 0,4,5
 417 859 417 859 417 911 c 1,6,-1
 479 911 l 1,7,8
 479 877 479 877 464 851 c 0,9,10
 433 797 433 797 363 797 c 0,11,12
 313 797 313 797 281 828.5 c 128,-1,13
 249 860 249 860 249 911 c 1,0,-1
30 0 m 1,14,-1
 269 732 l 1,15,-1
 459 732 l 1,16,-1
 690 0 l 1,17,-1
 519 0 l 1,18,-1
 471 147 l 1,19,-1
 250 147 l 1,20,-1
 202 0 l 1,21,-1
 30 0 l 1,14,-1
290 289 m 1,22,-1
 435 289 l 1,23,-1
 366 522 l 1,24,-1
 290 289 l 1,22,-1
EndSplineSet
Substitution2: "'c2sc' Capitals to Small Capitals in Latin lookup 2 subtable" abreve.smcp
EndChar

StartChar: abreve
Encoding: 259 259 196
Width: 519
GlyphClass: 2
Flags: W
LayerCount: 2
Fore
SplineSet
154 715 m 1,0,-1
 216 715 l 1,1,2
 216 691 216 691 230 677 c 128,-1,3
 244 663 244 663 268 663 c 0,4,5
 322 663 322 663 322 715 c 1,6,-1
 384 715 l 1,7,8
 384 681 384 681 369 655 c 0,9,10
 338 601 338 601 268 601 c 0,11,12
 218 601 218 601 186 632.5 c 128,-1,13
 154 664 154 664 154 715 c 1,0,-1
26 139 m 2,14,-1
 26 185 l 2,15,16
 26 250 26 250 65 292.5 c 128,-1,17
 104 335 104 335 180 335 c 128,-1,18
 256 335 256 335 289 335 c 128,-1,19
 322 335 322 335 322 335 c 1,20,21
 323 356 323 356 322 357 c 1,22,23
 322 395 322 395 307 405.5 c 128,-1,24
 292 416 292 416 246 416 c 128,-1,25
 200 416 200 416 44 405 c 1,26,-1
 44 504 l 1,27,28
 94 525 94 525 148 533 c 0,29,30
 203 541 203 541 292.5 541 c 128,-1,31
 382 541 382 541 434 502 c 128,-1,32
 486 463 486 463 486 364 c 2,33,-1
 486 0 l 1,34,-1
 356 0 l 1,35,-1
 322 56 l 1,36,37
 314 39 314 39 275 16.5 c 128,-1,38
 236 -6 236 -6 189 -6 c 0,39,40
 107 -6 107 -6 66.5 39 c 128,-1,41
 26 84 26 84 26 139 c 2,14,-1
237 120 m 0,42,43
 285 120 285 120 322 158 c 1,44,-1
 322 239 l 1,45,-1
 228 231 l 2,46,47
 190 228 190 228 190 181 c 2,48,-1
 190 164 l 2,49,50
 190 133 190 133 206 126 c 1,51,52
 217 120 217 120 237 120 c 0,42,43
EndSplineSet
Substitution2: "'smcp' Lowercase to Small Capitals lookup 1 subtable" abreve.smcp
EndChar

StartChar: Aogonek
Encoding: 260 260 197
Width: 700
GlyphClass: 2
Flags: W
LayerCount: 2
Fore
SplineSet
639 1 m 1,0,1
 595 -31 595 -31 595 -60.5 c 128,-1,2
 595 -90 595 -90 623 -101 c 0,3,4
 635 -106 635 -106 649 -105 c 1,5,-1
 649 -187 l 1,6,7
 635 -191 635 -191 624 -191 c 128,-1,8
 613 -191 613 -191 598 -189.5 c 128,-1,9
 583 -188 583 -188 566 -176 c 0,10,11
 512 -140 512 -140 512 -87 c 128,-1,12
 512 -34 512 -34 577 1 c 1,13,-1
 639 1 l 1,0,1
30 0 m 1,14,-1
 269 732 l 1,15,-1
 459 732 l 1,16,-1
 690 0 l 1,17,-1
 519 0 l 1,18,-1
 471 147 l 1,19,-1
 250 147 l 1,20,-1
 202 0 l 1,21,-1
 30 0 l 1,14,-1
290 289 m 1,22,-1
 435 289 l 1,23,-1
 366 522 l 1,24,-1
 290 289 l 1,22,-1
EndSplineSet
Substitution2: "'c2sc' Capitals to Small Capitals in Latin lookup 2 subtable" aogonek.smcp
EndChar

StartChar: aogonek
Encoding: 261 261 198
Width: 519
GlyphClass: 2
Flags: W
LayerCount: 2
Fore
SplineSet
455 0 m 1,0,1
 411 -31 411 -31 411 -61 c 128,-1,2
 411 -91 411 -91 439 -102 c 0,3,4
 452 -107 452 -107 466 -106 c 1,5,-1
 466 -188 l 1,6,7
 451 -192 451 -192 440 -192 c 128,-1,8
 429 -192 429 -192 414 -190 c 128,-1,9
 399 -188 399 -188 382 -177 c 0,10,11
 328 -141 328 -141 328 -88 c 128,-1,12
 328 -35 328 -35 394 0 c 1,13,-1
 455 0 l 1,0,1
26 139 m 2,14,-1
 26 185 l 2,15,16
 26 250 26 250 65 292.5 c 128,-1,17
 104 335 104 335 180 335 c 128,-1,18
 256 335 256 335 289 335 c 128,-1,19
 322 335 322 335 322 335 c 1,20,21
 323 356 323 356 322 357 c 1,22,23
 322 395 322 395 307 405.5 c 128,-1,24
 292 416 292 416 246 416 c 128,-1,25
 200 416 200 416 44 405 c 1,26,-1
 44 504 l 1,27,28
 94 525 94 525 148 533 c 0,29,30
 203 541 203 541 292.5 541 c 128,-1,31
 382 541 382 541 434 502 c 128,-1,32
 486 463 486 463 486 364 c 2,33,-1
 486 0 l 1,34,-1
 356 0 l 1,35,-1
 322 56 l 1,36,37
 314 39 314 39 275 16.5 c 128,-1,38
 236 -6 236 -6 189 -6 c 0,39,40
 107 -6 107 -6 66.5 39 c 128,-1,41
 26 84 26 84 26 139 c 2,14,-1
237 120 m 0,42,43
 285 120 285 120 322 158 c 1,44,-1
 322 239 l 1,45,-1
 228 231 l 2,46,47
 190 228 190 228 190 181 c 2,48,-1
 190 164 l 2,49,50
 190 133 190 133 206 126 c 1,51,52
 217 120 217 120 237 120 c 0,42,43
EndSplineSet
AlternateSubs2: "'salt' Stylistic Alternatives in Latin lookup 16 subtable" aogonek.salt
Substitution2: "'smcp' Lowercase to Small Capitals lookup 1 subtable" aogonek.smcp
EndChar

StartChar: Cacute
Encoding: 262 262 199
Width: 569
GlyphClass: 2
Flags: W
LayerCount: 2
Fore
SplineSet
283 800 m 1,0,-1
 368 940 l 1,1,-1
 500 940 l 1,2,-1
 382 800 l 1,3,-1
 283 800 l 1,0,-1
37 368 m 0,4,5
 37 460 37 460 48.5 525.5 c 128,-1,6
 60 591 60 591 88 641 c 0,7,8
 142 740 142 740 288 740 c 0,9,10
 377 740 377 740 430.5 732.5 c 128,-1,11
 484 725 484 725 547 704 c 1,12,-1
 547 576 l 1,13,14
 547 576 547 576 540 576.5 c 128,-1,15
 533 577 533 577 521 578.5 c 128,-1,16
 509 580 509 580 493.5 581.5 c 128,-1,17
 478 583 478 583 458.5 585 c 128,-1,18
 439 587 439 587 419 588 c 0,19,20
 374 591 374 591 342 591 c 128,-1,21
 310 591 310 591 296 589.5 c 128,-1,22
 282 588 282 588 266 583.5 c 128,-1,23
 250 579 250 579 241 569.5 c 128,-1,24
 232 560 232 560 223.5 544 c 128,-1,25
 215 528 215 528 210 504 c 1,26,27
 201 449 201 449 201 344 c 128,-1,28
 201 239 201 239 227.5 191 c 128,-1,29
 254 143 254 143 334 143 c 0,30,31
 427 143 427 143 517 149 c 1,32,-1
 547 152 l 1,33,-1
 547 24 l 1,34,35
 463 -6 463 -6 316 -6 c 0,36,37
 302 -6 302 -6 288 -6 c 0,38,39
 151 -4 151 -4 93 93 c 0,40,41
 37 186 37 186 37 368 c 0,4,5
EndSplineSet
Substitution2: "'c2sc' Capitals to Small Capitals in Latin lookup 2 subtable" cacute.smcp
EndChar

StartChar: cacute
Encoding: 263 263 200
Width: 492
GlyphClass: 2
Flags: W
LayerCount: 2
Fore
SplineSet
227 597 m 1,0,-1
 312 737 l 1,1,-1
 444 737 l 1,2,-1
 326 597 l 1,3,-1
 227 597 l 1,0,-1
284 -6 m 2,4,-1
 216 -5 l 2,5,6
 212 -5 212 -5 208 -5 c 0,7,8
 80 -5 80 -5 47 134 c 0,9,10
 34 188 34 188 34 266 c 128,-1,11
 34 344 34 344 46.5 398 c 128,-1,12
 59 452 59 452 83 482 c 0,13,14
 128 536 128 536 208 536 c 0,15,16
 366 536 366 536 459 502 c 1,17,-1
 459 404 l 1,18,19
 379 410 379 410 326 410 c 128,-1,20
 273 410 273 410 264 409 c 128,-1,21
 255 408 255 408 243 405.5 c 128,-1,22
 231 403 231 403 225.5 397.5 c 128,-1,23
 220 392 220 392 213.5 382 c 128,-1,24
 207 372 207 372 204 356 c 0,25,26
 198 316 198 316 198 265 c 128,-1,27
 198 214 198 214 201.5 186.5 c 128,-1,28
 205 159 205 159 217 144 c 128,-1,29
 229 129 229 129 244.5 125.5 c 128,-1,30
 260 122 260 122 296 122 c 0,31,32
 372 122 372 122 443 128 c 2,33,-1
 466 130 l 1,34,-1
 466 31 l 1,35,36
 422 4 422 4 378 0 c 0,37,38
 321 -6 321 -6 284 -6 c 2,4,-1
EndSplineSet
Substitution2: "'smcp' Lowercase to Small Capitals lookup 1 subtable" cacute.smcp
EndChar

StartChar: Ccircumflex
Encoding: 264 264 201
Width: 569
GlyphClass: 2
Flags: W
LayerCount: 2
Fore
SplineSet
174 800 m 1,0,-1
 278 938 l 1,1,-1
 394 938 l 1,2,-1
 488 800 l 1,3,-1
 388 800 l 1,4,-1
 333 856 l 1,5,-1
 276 800 l 1,6,-1
 174 800 l 1,0,-1
37 368 m 0,7,8
 37 460 37 460 48.5 525.5 c 128,-1,9
 60 591 60 591 88 641 c 0,10,11
 142 740 142 740 288 740 c 0,12,13
 377 740 377 740 430.5 732.5 c 128,-1,14
 484 725 484 725 547 704 c 1,15,-1
 547 576 l 1,16,17
 547 576 547 576 540 576.5 c 128,-1,18
 533 577 533 577 521 578.5 c 128,-1,19
 509 580 509 580 493.5 581.5 c 128,-1,20
 478 583 478 583 458.5 585 c 128,-1,21
 439 587 439 587 419 588 c 0,22,23
 374 591 374 591 342 591 c 128,-1,24
 310 591 310 591 296 589.5 c 128,-1,25
 282 588 282 588 266 583.5 c 128,-1,26
 250 579 250 579 241 569.5 c 128,-1,27
 232 560 232 560 223.5 544 c 128,-1,28
 215 528 215 528 210 504 c 1,29,30
 201 449 201 449 201 344 c 128,-1,31
 201 239 201 239 227.5 191 c 128,-1,32
 254 143 254 143 334 143 c 0,33,34
 427 143 427 143 517 149 c 1,35,-1
 547 152 l 1,36,-1
 547 24 l 1,37,38
 463 -6 463 -6 316 -6 c 0,39,40
 302 -6 302 -6 288 -6 c 0,41,42
 151 -4 151 -4 93 93 c 0,43,44
 37 186 37 186 37 368 c 0,7,8
EndSplineSet
Substitution2: "'c2sc' Capitals to Small Capitals in Latin lookup 2 subtable" ccircumflex.smcp
EndChar

StartChar: ccircumflex
Encoding: 265 265 202
Width: 492
GlyphClass: 2
Flags: W
LayerCount: 2
Fore
SplineSet
108 596 m 1,0,-1
 212 734 l 1,1,-1
 328 734 l 1,2,-1
 422 596 l 1,3,-1
 321 596 l 1,4,-1
 267 652 l 1,5,-1
 210 596 l 1,6,-1
 108 596 l 1,0,-1
284 -6 m 2,7,-1
 216 -5 l 2,8,9
 212 -5 212 -5 208 -5 c 0,10,11
 80 -5 80 -5 47 134 c 0,12,13
 34 188 34 188 34 266 c 128,-1,14
 34 344 34 344 46.5 398 c 128,-1,15
 59 452 59 452 83 482 c 0,16,17
 128 536 128 536 208 536 c 0,18,19
 366 536 366 536 459 502 c 1,20,-1
 459 404 l 1,21,22
 379 410 379 410 326 410 c 128,-1,23
 273 410 273 410 264 409 c 128,-1,24
 255 408 255 408 243 405.5 c 128,-1,25
 231 403 231 403 225.5 397.5 c 128,-1,26
 220 392 220 392 213.5 382 c 128,-1,27
 207 372 207 372 204 356 c 0,28,29
 198 316 198 316 198 265 c 128,-1,30
 198 214 198 214 201.5 186.5 c 128,-1,31
 205 159 205 159 217 144 c 128,-1,32
 229 129 229 129 244.5 125.5 c 128,-1,33
 260 122 260 122 296 122 c 0,34,35
 372 122 372 122 443 128 c 2,36,-1
 466 130 l 1,37,-1
 466 31 l 1,38,39
 422 4 422 4 378 0 c 0,40,41
 321 -6 321 -6 284 -6 c 2,7,-1
EndSplineSet
Substitution2: "'smcp' Lowercase to Small Capitals lookup 1 subtable" ccircumflex.smcp
EndChar

StartChar: Cdotaccent
Encoding: 266 266 203
Width: 569
GlyphClass: 2
Flags: W
LayerCount: 2
Fore
SplineSet
264 824 m 2,0,-1
 264 908 l 2,1,2
 264 932 264 932 288 932 c 2,3,-1
 368 932 l 2,4,5
 379 932 379 932 385.5 925 c 128,-1,6
 392 918 392 918 392 908 c 2,7,-1
 392 824 l 2,8,9
 392 800 392 800 368 800 c 2,10,-1
 288 800 l 2,11,12
 278 800 278 800 271 806.5 c 128,-1,13
 264 813 264 813 264 824 c 2,0,-1
37 368 m 0,14,15
 37 460 37 460 48.5 525.5 c 128,-1,16
 60 591 60 591 88 641 c 0,17,18
 142 740 142 740 288 740 c 0,19,20
 377 740 377 740 430.5 732.5 c 128,-1,21
 484 725 484 725 547 704 c 1,22,-1
 547 576 l 1,23,24
 547 576 547 576 540 576.5 c 128,-1,25
 533 577 533 577 521 578.5 c 128,-1,26
 509 580 509 580 493.5 581.5 c 128,-1,27
 478 583 478 583 458.5 585 c 128,-1,28
 439 587 439 587 419 588 c 0,29,30
 374 591 374 591 342 591 c 128,-1,31
 310 591 310 591 296 589.5 c 128,-1,32
 282 588 282 588 266 583.5 c 128,-1,33
 250 579 250 579 241 569.5 c 128,-1,34
 232 560 232 560 223.5 544 c 128,-1,35
 215 528 215 528 210 504 c 1,36,37
 201 449 201 449 201 344 c 128,-1,38
 201 239 201 239 227.5 191 c 128,-1,39
 254 143 254 143 334 143 c 0,40,41
 427 143 427 143 517 149 c 1,42,-1
 547 152 l 1,43,-1
 547 24 l 1,44,45
 463 -6 463 -6 316 -6 c 0,46,47
 302 -6 302 -6 288 -6 c 0,48,49
 151 -4 151 -4 93 93 c 0,50,51
 37 186 37 186 37 368 c 0,14,15
EndSplineSet
Substitution2: "'c2sc' Capitals to Small Capitals in Latin lookup 2 subtable" cdotaccent.smcp
EndChar

StartChar: cdotaccent
Encoding: 267 267 204
Width: 492
GlyphClass: 2
Flags: W
LayerCount: 2
Fore
SplineSet
217 620 m 2,0,-1
 217 704 l 2,1,2
 217 729 217 729 241 729 c 2,3,-1
 321 729 l 2,4,5
 332 729 332 729 338 722 c 128,-1,6
 344 715 344 715 344 704 c 2,7,-1
 344 620 l 2,8,9
 344 597 344 597 321 597 c 2,10,-1
 241 597 l 2,11,12
 231 597 231 597 224 603.5 c 128,-1,13
 217 610 217 610 217 620 c 2,0,-1
284 -6 m 2,14,-1
 216 -5 l 2,15,16
 212 -5 212 -5 208 -5 c 0,17,18
 80 -5 80 -5 47 134 c 0,19,20
 34 188 34 188 34 266 c 128,-1,21
 34 344 34 344 46.5 398 c 128,-1,22
 59 452 59 452 83 482 c 0,23,24
 128 536 128 536 208 536 c 0,25,26
 366 536 366 536 459 502 c 1,27,-1
 459 404 l 1,28,29
 379 410 379 410 326 410 c 128,-1,30
 273 410 273 410 264 409 c 128,-1,31
 255 408 255 408 243 405.5 c 128,-1,32
 231 403 231 403 225.5 397.5 c 128,-1,33
 220 392 220 392 213.5 382 c 128,-1,34
 207 372 207 372 204 356 c 0,35,36
 198 316 198 316 198 265 c 128,-1,37
 198 214 198 214 201.5 186.5 c 128,-1,38
 205 159 205 159 217 144 c 128,-1,39
 229 129 229 129 244.5 125.5 c 128,-1,40
 260 122 260 122 296 122 c 0,41,42
 372 122 372 122 443 128 c 2,43,-1
 466 130 l 1,44,-1
 466 31 l 1,45,46
 422 4 422 4 378 0 c 0,47,48
 321 -6 321 -6 284 -6 c 2,14,-1
EndSplineSet
Substitution2: "'smcp' Lowercase to Small Capitals lookup 1 subtable" cdotaccent.smcp
EndChar

StartChar: Ccaron
Encoding: 268 268 205
Width: 569
GlyphClass: 2
Flags: W
LayerCount: 2
Fore
SplineSet
183 938 m 1,0,-1
 284 938 l 1,1,-1
 341 882 l 1,2,-1
 396 938 l 1,3,-1
 497 938 l 1,4,-1
 396 800 l 1,5,-1
 280 800 l 1,6,-1
 183 938 l 1,0,-1
37 368 m 0,7,8
 37 460 37 460 48.5 525.5 c 128,-1,9
 60 591 60 591 88 641 c 0,10,11
 142 740 142 740 288 740 c 0,12,13
 377 740 377 740 430.5 732.5 c 128,-1,14
 484 725 484 725 547 704 c 1,15,-1
 547 576 l 1,16,17
 547 576 547 576 540 576.5 c 128,-1,18
 533 577 533 577 521 578.5 c 128,-1,19
 509 580 509 580 493.5 581.5 c 128,-1,20
 478 583 478 583 458.5 585 c 128,-1,21
 439 587 439 587 419 588 c 0,22,23
 374 591 374 591 342 591 c 128,-1,24
 310 591 310 591 296 589.5 c 128,-1,25
 282 588 282 588 266 583.5 c 128,-1,26
 250 579 250 579 241 569.5 c 128,-1,27
 232 560 232 560 223.5 544 c 128,-1,28
 215 528 215 528 210 504 c 1,29,30
 201 449 201 449 201 344 c 128,-1,31
 201 239 201 239 227.5 191 c 128,-1,32
 254 143 254 143 334 143 c 0,33,34
 427 143 427 143 517 149 c 1,35,-1
 547 152 l 1,36,-1
 547 24 l 1,37,38
 463 -6 463 -6 316 -6 c 0,39,40
 302 -6 302 -6 288 -6 c 0,41,42
 151 -4 151 -4 93 93 c 0,43,44
 37 186 37 186 37 368 c 0,7,8
EndSplineSet
Substitution2: "'c2sc' Capitals to Small Capitals in Latin lookup 2 subtable" ccaron.smcp
EndChar

StartChar: ccaron
Encoding: 269 269 206
Width: 492
GlyphClass: 2
Flags: W
LayerCount: 2
Fore
SplineSet
115 734 m 1,0,-1
 216 734 l 1,1,-1
 273 678 l 1,2,-1
 327 734 l 1,3,-1
 429 734 l 1,4,-1
 328 597 l 1,5,-1
 212 597 l 1,6,-1
 115 734 l 1,0,-1
284 -6 m 2,7,-1
 216 -5 l 2,8,9
 212 -5 212 -5 208 -5 c 0,10,11
 80 -5 80 -5 47 134 c 0,12,13
 34 188 34 188 34 266 c 128,-1,14
 34 344 34 344 46.5 398 c 128,-1,15
 59 452 59 452 83 482 c 0,16,17
 128 536 128 536 208 536 c 0,18,19
 366 536 366 536 459 502 c 1,20,-1
 459 404 l 1,21,22
 379 410 379 410 326 410 c 128,-1,23
 273 410 273 410 264 409 c 128,-1,24
 255 408 255 408 243 405.5 c 128,-1,25
 231 403 231 403 225.5 397.5 c 128,-1,26
 220 392 220 392 213.5 382 c 128,-1,27
 207 372 207 372 204 356 c 0,28,29
 198 316 198 316 198 265 c 128,-1,30
 198 214 198 214 201.5 186.5 c 128,-1,31
 205 159 205 159 217 144 c 128,-1,32
 229 129 229 129 244.5 125.5 c 128,-1,33
 260 122 260 122 296 122 c 0,34,35
 372 122 372 122 443 128 c 2,36,-1
 466 130 l 1,37,-1
 466 31 l 1,38,39
 422 4 422 4 378 0 c 0,40,41
 321 -6 321 -6 284 -6 c 2,7,-1
EndSplineSet
Substitution2: "'smcp' Lowercase to Small Capitals lookup 1 subtable" ccaron.smcp
EndChar

StartChar: Dcaron
Encoding: 270 270 207
Width: 664
GlyphClass: 2
Flags: W
LayerCount: 2
Fore
SplineSet
161 933 m 1,0,-1
 262 933 l 1,1,-1
 319 877 l 1,2,-1
 374 933 l 1,3,-1
 475 933 l 1,4,-1
 374 796 l 1,5,-1
 258 796 l 1,6,-1
 161 933 l 1,0,-1
54 0 m 1,7,-1
 54 732 l 1,8,-1
 379 732 l 2,9,10
 439 732 439 732 484 711.5 c 128,-1,11
 529 691 529 691 556.5 658 c 128,-1,12
 584 625 584 625 601 576 c 0,13,14
 631 491 631 491 631 363 c 0,15,16
 631 0 631 0 379 0 c 2,17,-1
 54 0 l 1,7,-1
218 142 m 1,18,-1
 364 142 l 2,19,20
 419 142 419 142 443 197 c 128,-1,21
 467 252 467 252 467 354 c 128,-1,22
 467 456 467 456 454 507 c 128,-1,23
 441 558 441 558 420 574 c 128,-1,24
 399 590 399 590 364 590 c 2,25,-1
 218 590 l 1,26,-1
 218 142 l 1,18,-1
EndSplineSet
Substitution2: "'c2sc' Capitals to Small Capitals in Latin lookup 2 subtable" dcaron.smcp
EndChar

StartChar: dcaron
Encoding: 271 271 208
Width: 627
GlyphClass: 2
Flags: W
LayerCount: 2
Fore
SplineSet
48.5 425.5 m 128,-1,1
 63 474 63 474 82 495 c 0,2,3
 123 539 123 539 205 539 c 128,-1,4
 287 539 287 539 354 506 c 1,5,-1
 354 785 l 1,6,-1
 518 785 l 1,7,-1
 518 0 l 1,8,-1
 380 0 l 1,9,-1
 354 52 l 1,10,11
 285 -6 285 -6 199.5 -6 c 128,-1,12
 114 -6 114 -6 74 59 c 128,-1,13
 34 124 34 124 34 250.5 c 128,-1,0
 34 377 34 377 48.5 425.5 c 128,-1,1
205 364 m 128,-1,15
 198 331 198 331 198 260 c 128,-1,16
 198 189 198 189 211.5 159.5 c 128,-1,17
 225 130 225 130 256 130 c 0,18,19
 322 130 322 130 354 158 c 1,20,-1
 354 398 l 1,21,22
 320 416 320 416 256 416 c 0,23,24
 235 416 235 416 223.5 406.5 c 128,-1,14
 212 397 212 397 205 364 c 128,-1,15
674 782 m 1,25,-1
 674 714 l 1,26,-1
 664 580 l 1,27,-1
 580 580 l 1,28,-1
 570 714 l 1,29,-1
 570 782 l 1,30,-1
 674 782 l 1,25,-1
EndSplineSet
AlternateSubs2: "'salt' Stylistic Alternatives in Latin lookup 16 subtable" dcaron.salt
Substitution2: "'smcp' Lowercase to Small Capitals lookup 1 subtable" dcaron.smcp
EndChar

StartChar: Dcroat
Encoding: 272 272 209
Width: 664
GlyphClass: 2
Flags: W
LayerCount: 2
Fore
SplineSet
-11 338 m 1,0,-1
 -11 408 l 1,1,-1
 54 408 l 1,2,-1
 54 732 l 1,3,4
 54 732 54 732 379 732 c 0,5,6
 439 732 439 732 484 711.5 c 128,-1,7
 529 691 529 691 556.5 658 c 128,-1,8
 584 625 584 625 601 576 c 0,9,10
 631 491 631 491 631 363 c 0,11,12
 631 0 631 0 379 0 c 2,13,-1
 54 0 l 1,14,-1
 54 338 l 1,15,-1
 -11 338 l 1,0,-1
218 142 m 1,16,-1
 364 142 l 2,17,18
 419 142 419 142 442.5 197 c 128,-1,19
 466 252 466 252 466 342.5 c 128,-1,20
 466 433 466 433 459 478.5 c 128,-1,21
 452 524 452 524 438 547.5 c 128,-1,22
 424 571 424 571 406.5 580 c 128,-1,23
 389 589 389 589 364 589 c 2,24,-1
 218 589 l 1,25,-1
 218 408 l 1,26,-1
 319 408 l 1,27,-1
 319 338 l 1,28,-1
 218 338 l 1,29,-1
 218 142 l 1,16,-1
EndSplineSet
Substitution2: "'c2sc' Capitals to Small Capitals in Latin lookup 2 subtable" dcroat.smcp
EndChar

StartChar: dcroat
Encoding: 273 273 210
Width: 567
GlyphClass: 2
Flags: W
LayerCount: 2
Fore
SplineSet
44 425.5 m 128,-1,1
 59 474 59 474 78 495 c 0,2,3
 119 539 119 539 200.5 539 c 128,-1,4
 282 539 282 539 350 506 c 1,5,-1
 350 601 l 1,6,-1
 249 601 l 1,7,-1
 249 670 l 1,8,-1
 350 670 l 1,9,-1
 350 785 l 1,10,-1
 514 785 l 1,11,-1
 514 670 l 1,12,-1
 576 670 l 1,13,-1
 576 601 l 1,14,-1
 514 601 l 1,15,-1
 514 0 l 1,16,-1
 376 0 l 1,17,-1
 350 52 l 1,18,19
 280 -6 280 -6 194.5 -6 c 128,-1,20
 109 -6 109 -6 69 59 c 128,-1,21
 29 124 29 124 29 250.5 c 128,-1,0
 29 377 29 377 44 425.5 c 128,-1,1
200.5 364 m 128,-1,23
 193 331 193 331 193 260 c 128,-1,24
 193 189 193 189 207 159.5 c 128,-1,25
 221 130 221 130 251 130 c 0,26,27
 318 130 318 130 350 158 c 1,28,-1
 350 398 l 1,29,30
 315 416 315 416 251 416 c 0,31,32
 231 416 231 416 219.5 406.5 c 128,-1,22
 208 397 208 397 200.5 364 c 128,-1,23
EndSplineSet
AlternateSubs2: "'salt' Stylistic Alternatives in Latin lookup 16 subtable" dcroat.salt
Substitution2: "'smcp' Lowercase to Small Capitals lookup 1 subtable" dcroat.smcp
EndChar

StartChar: Emacron
Encoding: 274 274 211
Width: 567
GlyphClass: 2
Flags: W
LayerCount: 2
Fore
SplineSet
163 796 m 1,0,-1
 163 882 l 1,1,-1
 455 882 l 1,2,-1
 455 796 l 1,3,-1
 163 796 l 1,0,-1
50 152 m 2,4,-1
 50 572 l 2,5,6
 50 680 50 680 131 716 c 0,7,8
 169 732 169 732 221 732 c 0,9,10
 458 728 458 728 545 716 c 1,11,-1
 545 579 l 1,12,-1
 266 579 l 2,13,14
 229 579 229 579 220 561 c 0,15,16
 214 547 214 547 214 523 c 2,17,-1
 214 440 l 1,18,-1
 498 430 l 1,19,-1
 498 294 l 1,20,-1
 214 285 l 1,21,-1
 214 202 l 2,22,23
 214 164 214 164 235 156 c 0,24,25
 250 150 250 150 276 150 c 2,26,-1
 545 150 l 1,27,-1
 545 14 l 1,28,29
 473 4 473 4 256 -2 c 1,30,-1
 231 -3 l 2,31,32
 223 -3 223 -3 212 -3 c 128,-1,33
 201 -3 201 -3 183.5 -1.5 c 128,-1,34
 166 0 166 0 139.5 9 c 128,-1,35
 113 18 113 18 94.5 34 c 128,-1,36
 76 50 76 50 63 80.5 c 128,-1,37
 50 111 50 111 50 152 c 2,4,-1
EndSplineSet
Substitution2: "'c2sc' Capitals to Small Capitals in Latin lookup 2 subtable" emacron.smcp
EndChar

StartChar: emacron
Encoding: 275 275 212
Width: 525
GlyphClass: 2
Flags: W
LayerCount: 2
Fore
SplineSet
125 596 m 1,0,-1
 125 681 l 1,1,-1
 417 681 l 1,2,-1
 417 596 l 1,3,-1
 125 596 l 1,0,-1
314 121 m 0,4,5
 415 121 415 121 488 132 c 1,6,-1
 488 23 l 1,7,8
 455 9 455 9 396.5 2.5 c 128,-1,9
 338 -4 338 -4 307 -4.5 c 128,-1,10
 276 -5 276 -5 208 -5 c 0,11,12
 110 -5 110 -5 72 58 c 128,-1,13
 34 121 34 121 34 268 c 0,14,15
 34 353 34 353 45.5 405 c 128,-1,16
 57 457 57 457 86.5 486 c 128,-1,17
 116 515 116 515 157 525 c 128,-1,18
 198 535 198 535 254.5 535 c 128,-1,19
 311 535 311 535 340.5 532.5 c 128,-1,20
 370 530 370 530 398.5 523 c 128,-1,21
 427 516 427 516 444 503 c 128,-1,22
 461 490 461 490 474 468 c 0,23,24
 498 429 498 429 498 340 c 0,25,26
 498 233 498 233 411 210 c 0,27,28
 383 202 383 202 346 202 c 2,29,-1
 198 202 l 1,30,31
 198 150 198 150 218.5 136 c 128,-1,32
 239 122 239 122 277 121 c 0,33,34
 286 121 286 121 298.5 121 c 128,-1,35
 311 121 311 121 314 121 c 0,4,5
297 313 m 2,36,37
 321 313 321 313 330 330 c 0,38,39
 334 338 334 338 334 354.5 c 128,-1,40
 334 371 334 371 332.5 382.5 c 128,-1,41
 331 394 331 394 325 402 c 0,42,43
 315 416 315 416 283 416 c 128,-1,44
 251 416 251 416 238 413.5 c 128,-1,45
 225 411 225 411 214 401 c 0,46,47
 197 385 197 385 197 323 c 0,48,49
 197 318 197 318 198 313 c 1,50,-1
 297 313 l 2,36,37
EndSplineSet
Substitution2: "'smcp' Lowercase to Small Capitals lookup 1 subtable" emacron.smcp
EndChar

StartChar: Edotaccent
Encoding: 278 278 213
Width: 567
GlyphClass: 2
Flags: W
LayerCount: 2
Fore
SplineSet
263 819 m 2,0,-1
 263 903 l 2,1,2
 263 928 263 928 287 928 c 2,3,-1
 367 928 l 2,4,5
 378 928 378 928 384 921 c 128,-1,6
 390 914 390 914 390 903 c 2,7,-1
 390 819 l 2,8,9
 390 796 390 796 367 796 c 2,10,-1
 287 796 l 2,11,12
 276 796 276 796 269.5 802.5 c 128,-1,13
 263 809 263 809 263 819 c 2,0,-1
50 152 m 2,14,-1
 50 572 l 2,15,16
 50 680 50 680 131 716 c 0,17,18
 169 732 169 732 221 732 c 0,19,20
 458 728 458 728 545 716 c 1,21,-1
 545 579 l 1,22,-1
 266 579 l 2,23,24
 229 579 229 579 220 561 c 0,25,26
 214 547 214 547 214 523 c 2,27,-1
 214 440 l 1,28,-1
 498 430 l 1,29,-1
 498 294 l 1,30,-1
 214 285 l 1,31,-1
 214 202 l 2,32,33
 214 164 214 164 235 156 c 0,34,35
 250 150 250 150 276 150 c 2,36,-1
 545 150 l 1,37,-1
 545 14 l 1,38,39
 473 4 473 4 256 -2 c 1,40,-1
 231 -3 l 2,41,42
 223 -3 223 -3 212 -3 c 128,-1,43
 201 -3 201 -3 183.5 -1.5 c 128,-1,44
 166 0 166 0 139.5 9 c 128,-1,45
 113 18 113 18 94.5 34 c 128,-1,46
 76 50 76 50 63 80.5 c 128,-1,47
 50 111 50 111 50 152 c 2,14,-1
EndSplineSet
Substitution2: "'c2sc' Capitals to Small Capitals in Latin lookup 2 subtable" edotaccent.smcp
EndChar

